<?xml version="1.0" encoding="utf-8"?>
<!-- Generator: Adobe Illustrator 27.2.0, SVG Export Plug-In . SVG Version: 6.00 Build 0)  -->
<svg version="1.1" xmlns="http://www.w3.org/2000/svg" xmlns:xlink="http://www.w3.org/1999/xlink" x="0px" y="0px"
	 viewBox="0 0 750 500" style="enable-background:new 0 0 750 500;" xml:space="preserve">
<style type="text/css">
	.st0{fill:#E9D3C2;}
	.st1{fill:#CDA590;}
	.st2{fill:#DCBEAA;}
	.st3{fill:#E9A68E;}
	.st4{fill:#FFFFFF;}
	.st5{fill:#190638;}
	.st6{fill:#CD755D;}
	.st7{fill:#661F48;}
	.st8{fill:#53466D;}
	.st9{fill:#490D32;}
	.st10{fill:#E18D74;}
	.st11{opacity:0.48;fill:url(#SVGID_1_);}
	.st12{opacity:0.48;fill:url(#SVGID_00000116198114466497368320000006120518920223595672_);}
	.st13{fill:#F3E7DC;}
	.st14{fill:#3B2A5B;}
	.st15{fill:#E4CEBC;}
	.st16{fill:#DBA154;}
	.st17{fill:#BA5B3A;}
	.st18{fill:#D5B29E;}
	.st19{font-family:'MuseoSlab-500';}
	.st20{font-size:13px;}
	.st21{fill:#ADB66A;}
	.st22{fill:#999F45;}
	.st23{fill:#5B78C7;}
	.st24{fill:#905469;}
	.st25{fill:#3A052B;}
	.st26{font-size:13.0389px;}
	.st27{font-size:6.7234px;}
</style>
<g id="BACKGROUND">
</g>
<g id="OBJECTS">
	<g>
		<g>
			<g>
				<g>
					<path class="st0" d="M515.9,278.3c-23.5-3.1-48.1,37.7-55,90.9c-5.3,40.5,1.2,76.5,14.9,92.9h36.9
						c15.3-14.7,28.4-45.3,33.1-81.8C552.7,327,539.3,281.4,515.9,278.3z"/>
					
						<rect x="416" y="375.1" transform="matrix(0.1288 -0.9917 0.9917 0.1288 65.9065 826.2344)" class="st1" width="174.4" height="1"/>
					
						<rect x="507.3" y="323.6" transform="matrix(0.8824 -0.4704 0.4704 0.8824 -91.1032 283.6518)" class="st1" width="29.3" height="1"/>
					
						<rect x="496.2" y="408.9" transform="matrix(0.8824 -0.4705 0.4705 0.8824 -132.5334 288.4809)" class="st1" width="29.3" height="1"/>
					
						<rect x="486.9" y="349.2" transform="matrix(0.6816 -0.7317 0.7317 0.6816 -115.1237 474.2829)" class="st1" width="1" height="40.5"/>
					
						<rect x="484.3" y="433.5" transform="matrix(0.6816 -0.7317 0.7317 0.6816 -171.2204 496.4158)" class="st1" width="1" height="22.9"/>
				</g>
				<g>
					<path class="st0" d="M238.5,462.8H272c0,0,0.1,0,0.1,0c10.2-14.2,8.1-48.6-1.2-85.1c-11.4-44.7-35.9-76.7-54.7-71.5
						c-18.9,5.2-25,45.6-13.6,90.3C210.3,427.3,224.4,452,238.5,462.8z"/>
					
						<rect x="236.7" y="313" transform="matrix(0.9692 -0.2463 0.2463 0.9692 -88.5254 70.4068)" class="st1" width="1" height="152.2"/>
					
						<rect x="215.6" y="333.9" transform="matrix(0.3666 -0.9304 0.9304 0.3666 -185.0653 420.2019)" class="st1" width="1" height="24.3"/>
					
						<rect x="233.7" y="405.4" transform="matrix(0.3666 -0.9304 0.9304 0.3666 -240.0883 482.4096)" class="st1" width="1" height="24.3"/>
					
						<rect x="232" y="380.4" transform="matrix(0.6225 -0.7826 0.7826 0.6225 -204.0066 338.7533)" class="st1" width="34.2" height="1"/>
					
						<rect x="249.7" y="444.5" transform="matrix(0.6226 -0.7826 0.7826 0.6226 -250.3444 370.8957)" class="st1" width="19.4" height="1"/>
				</g>
				<g>
					<path class="st0" d="M284.2,343.4l13.5,2.9c8.8-3.6,9.1-23.1,4.6-44.3c-4.8-22.3-16.6-38.6-26.4-36.5
						c-9.8,2.1-13.9,21.8-9.1,44.1C270.1,325.2,277,338,284.2,343.4z"/>
					
						<rect x="284.4" y="269.1" transform="matrix(0.9779 -0.209 0.209 0.9779 -57.9827 66.3442)" class="st1" width="1" height="76.8"/>
					
						<rect x="274.4" y="278.8" transform="matrix(0.3984 -0.9172 0.9172 0.3984 -95.9867 423.5677)" class="st1" width="1" height="12.4"/>
					
						<rect x="282" y="314.4" transform="matrix(0.3984 -0.9172 0.9172 0.3984 -124.0769 451.9899)" class="st1" width="1" height="12.4"/>
					
						<rect x="282.5" y="302.4" transform="matrix(0.6741 -0.7386 0.7386 0.6741 -128.8951 313.6873)" class="st1" width="17.1" height="1"/>
					
						<rect x="289.9" y="334.2" transform="matrix(0.6741 -0.7386 0.7386 0.6741 -151.1744 326.7804)" class="st1" width="9.7" height="1"/>
				</g>
				<g>
					<path class="st0" d="M443.2,326.8c7.3-17.3,4.5-35.1-6.4-39.8c-10.8-4.7-25.6,5.5-32.9,22.8c-5.2,12.2-5.3,24.6-1.1,32.6
						l11.8,10.1C425.4,355.6,436.3,343.3,443.2,326.8z"/>
					
						<rect x="391.4" y="319.2" transform="matrix(0.3942 -0.919 0.919 0.3942 -37.5738 582.4585)" class="st1" width="63.3" height="1"/>
					
						<rect x="426.5" y="294.7" transform="matrix(0.8548 -0.519 0.519 0.8548 -93.5829 265.1492)" class="st1" width="1" height="10.2"/>
					
						<rect x="414.7" y="322.3" transform="matrix(0.8548 -0.519 0.519 0.8548 -109.6278 263.0182)" class="st1" width="1" height="10.2"/>
					
						<rect x="422.3" y="319.1" transform="matrix(0.9771 -0.213 0.213 0.9771 -58.217 98.7847)" class="st1" width="14.1" height="1"/>
					
						<rect x="412.7" y="342.2" transform="matrix(0.9767 -0.2148 0.2148 0.9767 -63.9028 97.5252)" class="st1" width="8" height="1"/>
				</g>
				<g>
					<path class="st2" d="M491.6,462.1c-4.6-12-1.1-34.1,10.1-56.2c14.7-29,37-47.3,49.8-40.8c12.8,6.5,11.2,35.2-3.5,64.3
						c-7.1,13.9-15.9,25.3-24.5,32.8H491.6z"/>
					
						<rect x="474.4" y="415.9" transform="matrix(0.4535 -0.8912 0.8912 0.4535 -83.9982 695.7603)" class="st1" width="102" height="1"/>
					
						<rect x="536.8" y="391.9" transform="matrix(0.9886 -0.1504 0.1504 0.9886 -52.8273 86.5669)" class="st1" width="17.7" height="1"/>
					
						<rect x="513.3" y="438.4" transform="matrix(0.9886 -0.1505 0.1505 0.9886 -60.0873 83.5618)" class="st1" width="17.7" height="1"/>
					
						<rect x="516.3" y="399.1" transform="matrix(0.8865 -0.4628 0.4628 0.8865 -131.6851 285.9153)" class="st1" width="1" height="24.5"/>
					
						<rect x="499.6" y="447" transform="matrix(0.8865 -0.4628 0.4628 0.8865 -153.2833 282.9681)" class="st1" width="1" height="13.9"/>
				</g>
				<g>
					<path class="st2" d="M242.2,462.9c4-10.4,0.9-29.4-8.7-48.5c-12.7-25-31.9-40.8-42.9-35.2c-11,5.6-9.7,30.4,3,55.4
						c6.1,12,13.7,21.9,21.1,28.3H242.2z"/>
					
						<rect x="212.6" y="379.6" transform="matrix(0.8911 -0.4539 0.4539 0.8911 -169.0197 142.8462)" class="st1" width="1" height="87.9"/>
					
						<rect x="195" y="395.2" transform="matrix(0.1506 -0.9886 0.9886 0.1506 -232.1878 535.4853)" class="st1" width="1" height="15.3"/>
					
						<rect x="215.3" y="435.2" transform="matrix(0.1505 -0.9886 0.9886 0.1505 -254.5163 589.5889)" class="st1" width="1" height="15.3"/>
					
						<rect x="209.8" y="418.7" transform="matrix(0.4628 -0.8865 0.8865 0.4628 -253.1779 420.5536)" class="st1" width="21.1" height="1"/>
					
						<rect x="228.8" y="455.4" transform="matrix(0.4628 -0.8865 0.8865 0.4628 -277.9695 453.0646)" class="st1" width="11.9" height="1"/>
				</g>
			</g>
			<g>
				<path class="st3" d="M407.4,360.4l13.8,95.1c0.1,2.6,0.4,5.2,1,7.6h55.9c-0.8-18.4-0.5-50.5-10.3-107.1
					c-1.2-9.6-5.4-17.4-12.3-22.5c-6.1-4.5-13.8-6.6-21.7-5.9c-13.9,1.4-28.1,12.2-26.5,32.6L407.4,360.4z"/>
				<path class="st4" d="M410.8,420.5l-6.5-58.8l3-1.5C396.6,335.7,439,319,439,319s27.6,14.5,32.7,37.7c3.6,20.8,7,38.9,7.6,54.1
					C447.9,423.3,410.9,420.5,410.8,420.5z"/>
				<ellipse class="st5" cx="377.7" cy="231.5" rx="65.6" ry="65.7"/>
				<rect x="352" y="261" class="st3" width="50.3" height="73.6"/>
				<path class="st6" d="M402.2,287.6c-11.4,12.8-37.2,12.8-50.3,6v-30h50.3V287.6z"/>
				<g>
					<path class="st7" d="M418.6,260.6c0,0-1.3,10-8,14.7c-6.6,4.7-5.3-9.5-5.3-9.5l8.1-9.4L418.6,260.6z"/>
					<g>
						<path class="st4" d="M420.8,269.8c-0.2-1.5-1-2.6-1.8-2.6c-0.2,0-0.2,0-0.4,0.1l-0.3-0.9c0.2-0.1,0.5-0.1,0.7-0.1
							c1.4,0,2.6,1.5,2.8,3.5L420.8,269.8z"/>
						<path class="st3" d="M413.2,241.8c0,0,6.8-6.6,13.2,0.1c6.4,6.7-0.8,32.5-13,27.1C401.2,263.7,413.2,241.8,413.2,241.8z"/>
						<path class="st6" d="M415.8,260l-0.1-1c6.7-1,7.1-9.2,7.1-9.5l1,0C423.7,249.6,423.3,258.9,415.8,260z"/>
						<path class="st6" d="M421.2,255.8c-2.3-2.2-5.1-1-5.2-1l-0.4-0.9c0.1-0.1,3.5-1.5,6.3,1.2L421.2,255.8z"/>
						<path class="st4" d="M418.9,274.9C418.9,274.9,418.9,274.9,418.9,274.9c-0.8,0-1.6-0.5-2.1-1.4c-0.5-0.8-0.8-1.9-0.8-3
							c0-2,0.9-3.8,2.2-4.2c0.3-0.1,0.5,0,0.6,0.3c0.1,0.3,0,0.5-0.3,0.6c-0.9,0.3-1.6,1.7-1.6,3.3c0,0.9,0.2,1.8,0.6,2.5
							c0.2,0.3,0.6,0.9,1.3,0.9c0.6,0,1.1-0.5,1.3-0.9c0.4-0.6,0.6-1.5,0.7-2.5c0-0.2,0-0.5,0-0.7c0-0.3,0.2-0.5,0.4-0.6
							c0.3,0,0.5,0.2,0.6,0.4c0,0.3,0,0.6,0,0.9c0,1.1-0.3,2.2-0.8,3C420.5,274.4,419.7,274.9,418.9,274.9z"/>
					</g>
					<path class="st7" d="M336.2,259.8c0,0,1.1,10,7.7,14.8c6.6,4.8,5.5-9.4,5.5-9.4l-7.9-9.5L336.2,259.8z"/>
					<path class="st8" d="M441.7,231.6l-1,0c0.3-33.4-27.7-60.9-62.4-61.2c-16.8-0.2-32.7,6-44.8,17.3c-12,11.3-18.7,26.5-18.9,42.7
						l-1,0c0.2-16.5,7-31.9,19.2-43.4c12.2-11.5,28.4-17.8,45.5-17.6C413.6,169.7,442.1,197.6,441.7,231.6z"/>
					<path class="st3" d="M397,195.7c-11.4-7.5-26.2-7.6-37.8-0.4c-12.6,7.9-18.7,22.7-18.2,41l-0.2,24.4
						c1.6,22.1,18.7,35,36.3,35.2c17.7,0.2,35-12.5,37-34.5l0.2-24.4C415.2,218.8,409.4,203.9,397,195.7z"/>
					<g>
						<path class="st3" d="M342,241.1c0,0-6.7-6.7-13.2-0.1c-6.5,6.6,0.2,32.5,12.5,27.4C353.6,263.2,342,241.1,342,241.1z"/>
						<path class="st6" d="M339.1,259.3c-7.5-1.3-7.7-10.5-7.7-10.6l1,0c0,0.3,0.2,8.6,6.9,9.7L339.1,259.3z"/>
					</g>
					<path class="st6" d="M333.8,254.9l-0.7-0.7c2.8-2.6,6.2-1.1,6.3-1l-0.4,0.9C338.9,254,336.1,252.8,333.8,254.9z"/>
					<path class="st6" d="M341.4,268.2c-1-4-1.3-8.3-0.9-12.5l1,0.1c-0.4,4.2-0.1,8.3,0.9,12.2L341.4,268.2z"/>
					<path class="st6" d="M413.2,268.9l-1-0.3c1-3.9,1.4-8,1.1-12.2l1-0.1C414.7,260.7,414.3,264.9,413.2,268.9z"/>
					<path class="st7" d="M340.8,233.6c5.3-4.9,8-9.6,8.8-18.1c0,0,8.7,13.4,36.4,12.9c-2.9-2.1-5.1-4.7-6.6-7.7
						c0.2,0.4,8.3,8.4,23.4,8.8c-3.1-1.8-5.4-4-6.4-6.9c0,0,9.9,6.2,19.4,5.6l-2.3-9L402.4,200l-22.6-3.4l-17.3-0.2l-11.6,7
						l-8.3,7.2L340.8,233.6z"/>
					<path class="st5" d="M340.8,233.6c0.7-43.9,67.9-47.9,73.7,0.6c0,0,18-56.6-36.3-57.1S340.8,233.6,340.8,233.6z"/>
					<path class="st7" d="M348.4,211.8c0,0,9.5-17.7,33.9-15.5c31.8,4.2,35.2,30.8,35.2,30.8c-1.9,1.4-5.3,1.2-9.3,0.2l-12.2-6.3
						l-14.9-0.3l-14.4-1.8L348.4,211.8z"/>
					<path class="st9" d="M396.3,227.3c-13.5-3.7-17.2-14.1-17.2-14.2l0.9-0.3c0,0.1,3.5,10,16.5,13.5L396.3,227.3z"/>
					<path class="st9" d="M376.4,226.2c-13-1.2-21.8-9.9-21.9-10l0.7-0.7c0.1,0.1,8.6,8.6,21.2,9.7L376.4,226.2z"/>
					<path class="st9" d="M365.2,219.4c-6.4-2.6-11.7-8.8-12-9l0.8-0.7c0.1,0.1,5.4,6.3,11.6,8.7L365.2,219.4z"/>
					<g>
						<path class="st10" d="M409.7,251.8c0,1.2-1.4,2.1-3,2.1s-3-1-3-2.1c0-1.2,1.4-2.1,3-2.1C408.3,249.7,409.7,250.7,409.7,251.8z
							"/>
						<path class="st10" d="M351.5,251.3c0,1.2-1.4,2.1-3,2.1c-1.7,0-3-1-3-2.1c0-1.2,1.4-2.1,3-2.1
							C350.2,249.1,351.5,250.1,351.5,251.3z"/>
						<path class="st6" d="M379.6,265.1l-0.5-0.9c0.9-0.5,3.5-2.2,3.3-3.6c-0.1-0.9-1.6-3-2.9-5c-1.8-2.6-3.5-5.1-3.5-6.4
							c-0.1-2.4,1.9-6.3,2-6.4l0.9,0.5c0,0-2,3.7-1.9,5.9c0.1,1.1,1.8,3.7,3.4,5.9c1.6,2.3,2.9,4.3,3.1,5.4
							C383.8,262.9,380,264.9,379.6,265.1z"/>
						<path class="st6" d="M378.9,271.9c-2.6,0-4.8-0.4-6.5-0.9c-4-1.2-6.2-3.2-6.3-3.3l0.7-0.7c0.1,0.1,8.5,7.6,22.8,1.7l0.4,0.9
							C385.8,271.3,382,271.9,378.9,271.9z"/>
						<path class="st6" d="M379.5,276.7c-0.1,0-0.1,0-0.2,0c-2.4,0-4.5-0.8-5.6-2l0.8-0.7c0.8,0.9,2.7,1.6,4.8,1.6
							c2.1,0.1,4-0.5,4.9-1.5l0.7,0.7C383.9,276.1,381.9,276.7,379.5,276.7z"/>
						<path class="st7" d="M351,238.7c1.2-0.9,2.6-1.5,4-1.8c1.4-0.3,2.9-0.4,4.4-0.3c1.5,0.1,2.9,0.3,4.3,0.7
							c1.4,0.4,2.7,0.9,4,1.5c0.3,0.1,0.4,0.5,0.3,0.8c-0.1,0.3-0.4,0.4-0.7,0.3c-1.3-0.4-2.6-0.7-4-1c-1.3-0.3-2.7-0.4-4-0.5
							c-2.7-0.1-5.2,0.5-7.8,1.3l0,0c-0.3,0.1-0.7-0.1-0.8-0.4C350.7,239.1,350.8,238.9,351,238.7z"/>
						<path class="st7" d="M403.3,240.3c-2.5-0.8-5-1.5-7.6-1.4c-1.3,0-2.6,0.2-3.9,0.4c-1.3,0.2-2.6,0.6-3.9,0.9
							c-0.3,0.1-0.7-0.1-0.8-0.4c-0.1-0.3,0.1-0.6,0.3-0.7c1.3-0.6,2.6-1.1,3.9-1.5c1.4-0.4,2.8-0.6,4.2-0.7c1.4,0,2.9,0,4.3,0.4
							c1.4,0.4,2.7,1,3.9,1.9c0.3,0.2,0.3,0.6,0.1,0.9C403.8,240.3,403.6,240.4,403.3,240.3L403.3,240.3z"/>
						<g>
							<path class="st5" d="M362.1,246.4c0,1.6-1.3,2.9-2.9,2.9c-1.6,0-2.9-1.3-2.9-2.9c0-1.6,1.3-2.9,2.9-2.9
								S362.1,244.8,362.1,246.4z"/>
							<path class="st5" d="M353.7,246.1l-0.5-0.9c4.7-2.8,7.6-2.5,11.9-0.8l-0.4,0.9C360.7,243.8,358.1,243.5,353.7,246.1z"/>
						</g>
						<g>
							<path class="st5" d="M398.8,246.8c0,1.6-1.3,2.9-2.9,2.9s-2.9-1.3-2.9-2.9c0-1.6,1.3-2.9,2.9-2.9
								C397.6,243.8,398.9,245.1,398.8,246.8z"/>
							<path class="st5" d="M401.4,246.6c-4.3-2.7-6.9-2.5-11-0.9l-0.4-0.9c4.3-1.7,7.2-1.9,11.9,1L401.4,246.6z"/>
						</g>
						<g>
							<linearGradient id="SVGID_1_" gradientUnits="userSpaceOnUse" x1="348.7699" y1="253.903" x2="367.6209" y2="235.052">
								<stop  offset="0" style="stop-color:#FFFFFF;stop-opacity:0.4"/>
								<stop  offset="1" style="stop-color:#FFFFFF;stop-opacity:0.7"/>
							</linearGradient>
							<path class="st11" d="M371.3,246.4c-0.9,4.5-3.5,8.1-7.1,9.9c-1.9,0.9-4.1,1.4-6.3,1.4c0,0,0,0,0,0c-3.8,0-7.2-1.5-9.4-4
								c-0.9-1.1-1.7-2.4-2.3-3.8c-0.5-1.2-0.7-2.3-0.9-3.5c-0.1-0.4-0.2-0.8-0.2-1.1c-0.7-3.1-0.3-5.6,1.1-7.5
								c1.9-2.4,5.6-3.6,11.1-3.7c6.3-0.2,10.5,1,13,3.7c0.9,0.9,1.2,2.5,1.3,3.5C371.8,242.9,371.7,244.6,371.3,246.4z"/>
							
								<linearGradient id="SVGID_00000039836686568349355010000003326282404251178167_" gradientUnits="userSpaceOnUse" x1="407.368" y1="254.2409" x2="388.6038" y2="235.4766" gradientTransform="matrix(-1 0 0 1 795.0014 0)">
								<stop  offset="0" style="stop-color:#FFFFFF;stop-opacity:0.4"/>
								<stop  offset="1" style="stop-color:#FFFFFF;stop-opacity:0.7"/>
							</linearGradient>
							<path style="opacity:0.48;fill:url(#SVGID_00000039836686568349355010000003326282404251178167_);" d="M383.6,241.6
								c0.1-1.1,0.4-2.6,1.3-3.5c2.5-2.6,6.7-3.8,13-3.7c5.5,0.1,9.3,1.3,11.1,3.7c1.4,1.8,1.8,4.3,1.1,7.5
								c-0.1,0.4-0.2,0.8-0.2,1.1c-0.2,1.2-0.5,2.3-0.9,3.5c-0.6,1.5-1.4,2.7-2.3,3.8c-2.2,2.5-5.6,4-9.4,4c0,0,0,0,0,0
								c-2.2,0-4.4-0.5-6.3-1.4c-3.5-1.7-6.1-5.3-7.1-9.9C383.5,245,383.4,243.3,383.6,241.6z"/>
							<path class="st5" d="M388.1,256.9c4,2.8,10.1,3.5,14.9,1.8c4.1-1.5,6.5-5.1,7.7-7.7c1-2.3,1.8-4.8,2.1-7.3
								c0.3-1.9,1.7-2.7,2.1-3l0.1-5.4c-1-0.3-8-2.5-16.8-2.3c-7.6,0.1-12.1,1.5-14.6,2.2c-0.6,0.2-1.1,0.3-1.5,0.4
								c-0.5,0.1-0.8,0.2-1.2,0.3c-0.9,0.2-1.6,0.4-3.1,0.4c-1.5,0-2.2-0.2-3.1-0.5c-0.4-0.1-0.7-0.2-1.2-0.3
								c-0.4-0.1-0.9-0.2-1.5-0.4c-2.4-0.8-6.9-2.2-14.5-2.5c-8.8-0.3-15.9,1.7-16.9,2l-0.1,5.4c0.4,0.3,1.9,1.4,2.1,3
								c0.3,2.5,0.9,5.1,1.9,7.4c1.2,2.7,3.4,6.3,7.5,7.9c4.8,1.9,10.9,1.3,14.9-1.5c3.4-2.3,5.6-6.3,6.8-11.9
								c0-0.2,0.1-0.5,0.1-0.7c0-0.2,0.1-0.4,0.1-0.6c0.4-1.9,2-3.2,3.7-3.2c0,0,0,0,0.1,0c1.7,0,3.3,1.4,3.6,3.3
								c0,0.2,0.1,0.4,0.1,0.7c0,0.2,0.1,0.5,0.1,0.7C382.6,250.5,384.8,254.6,388.1,256.9z M371.3,246.4c-0.9,4.5-3.5,8.1-7.1,9.9
								c-1.9,0.9-4.1,1.4-6.3,1.4c0,0,0,0,0,0c-3.8,0-7.2-1.5-9.4-4c-0.9-1.1-1.7-2.4-2.3-3.8c-0.5-1.2-0.7-2.3-0.9-3.5
								c-0.1-0.4-0.2-0.8-0.2-1.1c-0.7-3.1-0.3-5.6,1.1-7.5c1.9-2.4,5.6-3.6,11.1-3.7c6.3-0.2,10.5,1,13,3.7
								c0.9,0.9,1.2,2.5,1.3,3.5C371.8,242.9,371.7,244.6,371.3,246.4z M383.6,241.4c0.1-1.1,0.4-2.6,1.3-3.5
								c2.5-2.6,6.8-3.7,13.1-3.4c5.5,0.2,9.2,1.5,11.1,3.9c1.4,1.8,1.7,4.4,0.9,7.5c-0.1,0.4-0.2,0.8-0.3,1.1
								c-0.3,1.2-0.5,2.3-1,3.5c-0.6,1.4-1.4,2.7-2.4,3.8c-2.2,2.5-5.7,3.8-9.4,3.8c0,0,0,0,0,0c-2.2,0-4.4-0.5-6.2-1.5
								c-3.5-1.8-6-5.5-6.9-10C383.5,244.7,383.4,243,383.6,241.4z"/>
						</g>
					</g>
				</g>
				<path class="st4" d="M437.9,463.1c6.1-43.4,16-135.4,1.8-143.8c-20-11.8-37.4-13.6-37.4-13.6c-11.6,14.6-40.4,13.1-50.4,0
					c-18.7-1-40.9,3.6-56.3,11.6c0,0,1.8,99.6,8.2,145.7H437.9z"/>
				<path class="st3" d="M322.4,319.4c-7.1-3.6-15-4.4-22.3-2.4c-8.3,2.3-15,8-19.6,16.5c-29.6,49.5-39.8,88.8-39.8,88.8
					c-5.7,15.4-2,26.5,1.3,31.2c4.8,6.6,13.1,10.2,21.9,9.2c1-0.1,2.1-0.3,3.1-0.5c9.1-2.1,16.9-9,21.1-19l47.2-83.7l0.1-0.1
					C344.2,340.9,334.9,325.7,322.4,319.4z"/>
				<path class="st4" d="M310.5,414.4l27.2-52.4l-2.3-2.5c19-18.9-14.8-50.6-14.8-50.6s-31.5,5.5-43.9,24
					c-10.8,18.1-20.5,33.7-26.6,47.7C274.9,403.6,310.4,414.3,310.5,414.4z"/>
				<path class="st13" d="M377.5,323.4c-0.7,0-1.3,0-2,0c-13.2-0.6-25.4-7.1-32.8-17.4l0.8-0.6c7.2,10,19.1,16.4,32,17
					c13.4,0.6,25.8-4.8,34.8-15.3l0.8,0.7C402.5,317.8,390.3,323.4,377.5,323.4z"/>
				<polygon class="st13" points="310.7,415 305.2,413.1 305.6,412.2 310.2,413.7 332.9,373.3 333.7,373.8 				"/>
				<g>
					<path class="st5" d="M343.6,342.9c0,0-2.3-22.8,3.4-23c5.6-0.3,18.7,19.5,18.7,19.5L343.6,342.9z"/>
					<path class="st5" d="M396.2,342.9c0,0,2.3-22.8-3.4-23c-5.6-0.3-18.7,19.5-18.7,19.5L396.2,342.9z"/>
					<path class="st14" d="M348.8,337.1c0,0-1.1-11.3,1.7-11.4c2.8-0.1,9.3,9.6,9.3,9.6L348.8,337.1z"/>
					<path class="st14" d="M391,337.1c0,0,1.1-11.3-1.7-11.4c-2.8-0.1-9.3,9.6-9.3,9.6L391,337.1z"/>
					<path class="st5" d="M391.9,386.2c-1.1-7.7-3.8-15.7-8.3-24.2H360v0h-3.9c-4.5,8.5-7.2,16.6-8.3,24.4
						c-1.2,8.4-4.1,16.4-8.4,23.7c-6.7,11.5-13.4,31-0.7,53h22.9h16.4H401c12.7-22,6.1-41.4-0.6-52.9
						C396.1,402.9,393.2,394.7,391.9,386.2z"/>
					<path class="st5" d="M395.3,338.5c-5.8-4.9-45.1-4.9-50.9,0c-6.4,5.4-7.9,19.9-7.1,23.7c3.1,14.2,24.8,17.6,31.5,18.4l0,0.2
						c0,0,0.4,0,1-0.1c0.6,0.1,1,0.1,1,0.1l0-0.2c6.7-0.7,28.4-4.1,31.5-18.4C403.2,358.4,401.8,343.9,395.3,338.5z"/>
					<g>
						<ellipse class="st4" cx="356.7" cy="353.8" rx="8.7" ry="8.7"/>
						<ellipse class="st5" cx="357" cy="353.3" rx="7.7" ry="7.7"/>
						<ellipse class="st4" cx="358.6" cy="348.6" rx="1" ry="1"/>
						<path class="st4" d="M361.2,350.5c0,0.3-0.2,0.6-0.5,0.6c-0.3,0-0.5-0.2-0.5-0.6c0-0.3,0.2-0.6,0.5-0.6
							C361,350,361.2,350.2,361.2,350.5z"/>
					</g>
					<g>
						<ellipse class="st4" cx="383.4" cy="353.8" rx="8.7" ry="8.7"/>
						<ellipse class="st5" cx="383.1" cy="353.3" rx="7.7" ry="7.7"/>
						<ellipse class="st4" cx="384.1" cy="348.6" rx="1" ry="1"/>
						<path class="st4" d="M386.7,350.5c0,0.3-0.2,0.6-0.5,0.6c-0.3,0-0.5-0.2-0.5-0.6c0-0.3,0.2-0.6,0.5-0.6
							C386.5,350,386.7,350.2,386.7,350.5z"/>
					</g>
					<path class="st5" d="M338.1,451.5c-2.9,0-6.1-0.5-9-1.8c-4.6-2.1-7.9-5.9-9.8-11.2c-2.9-8.2,1.6-19.5,6.4-31.5
						c7.1-17.8,11.4-30.8,2.5-36.7c-5.8-3.6-9.9-1.9-11.9-0.6c-2.7,1.9-3.9,4.8-3.5,6.6c0.3,2-1,3.8-2.9,4.2c-2,0.3-3.8-1-4.1-2.9
						c-0.9-4.9,1.8-10.5,6.6-13.7c5.7-3.9,12.9-3.7,19.7,0.5c14.7,9.6,7.1,28.6,0.4,45.4c-4.1,10.2-8.3,20.8-6.3,26.5
						c1.2,3.5,3.2,5.8,6,7c6.5,3,15.4-0.6,15.5-0.6c1.8-0.7,3.9,0.1,4.7,2c0.7,1.8-0.1,3.9-2,4.7
						C349.9,449.3,344.5,451.5,338.1,451.5z"/>
					<g>
						
							<rect x="398.8" y="355.8" transform="matrix(0.9906 -0.1368 0.1368 0.9906 -44.971 58.3651)" class="st8" width="6.6" height="1"/>
						
							<rect x="401.9" y="356.6" transform="matrix(5.229406e-02 -0.9986 0.9986 5.229406e-02 22.0268 742.8912)" class="st8" width="1" height="6.4"/>
						
							<rect x="400.5" y="360.7" transform="matrix(0.4084 -0.9128 0.9128 0.4084 -94.7443 581.1951)" class="st8" width="1" height="5.9"/>
					</g>
					<g>
						
							<rect x="337.3" y="353" transform="matrix(0.137 -0.9906 0.9906 0.137 -61.427 642.0425)" class="st8" width="1" height="6.6"/>
						
							<rect x="334.1" y="359.3" transform="matrix(0.9986 -5.283192e-02 5.283192e-02 0.9986 -18.5399 18.3265)" class="st8" width="6.4" height="1"/>
						
							<rect x="335.9" y="363.2" transform="matrix(0.9128 -0.4085 0.4085 0.9128 -119.0063 170.1307)" class="st8" width="5.9" height="1"/>
					</g>
					<path class="st14" d="M370.1,352.4c-0.7,0-3.4,0.1-3.1,2.5c0,0,2.3-0.3,2.6,2h0.3h0.3h0.3c0.3-2.2,2.6-2,2.6-2
						C373.5,352.4,370.8,352.3,370.1,352.4z"/>
					<path class="st8" d="M370.1,380c-5.8,0-11.7-0.9-17.4-2.7l0.3-1c11.3,3.5,22.9,3.5,34.4,0l0.3,1
						C381.8,379.1,375.9,380,370.1,380z"/>
					<path class="st8" d="M370.3,404c-3.9,0-7.6-3.4-13-9.7l0.8-0.7c5.3,6,8.8,9.3,12.3,9.3c0,0,0.1,0,0.1,0c3.1,0,6.4-2.7,11.9-9.3
						l0.8,0.6C377.3,401.4,373.8,404,370.3,404C370.3,404,370.3,404,370.3,404z"/>
					<rect x="369.6" y="403.6" class="st8" width="1" height="59.6"/>
					<path class="st8" d="M351.2,413.3c-2.8-5.7-4.1-13.6-4.2-13.9l1-0.2c0,0.1,1.3,8,4.1,13.6L351.2,413.3z"/>
					<path class="st8" d="M388.3,413.3l-0.9-0.4c2.8-5.6,4.1-13.5,4.1-13.6l1,0.2C392.4,399.8,391.2,407.6,388.3,413.3z"/>
				</g>
				<path class="st3" d="M318.4,463.1h49.4l4.7-33.8c-35.9-6.6-70.4-11.5-105.3-13.9c-36.8-2.3-38.2,46.7-6.4,47.4L318.4,463.1z"/>
				<path class="st6" d="M302.2,418.8c-7.8-0.8-16.3-1.5-25.8-2.1l0.1-1c9.5,0.7,18,1.4,25.8,2.1L302.2,418.8z"/>
				<path class="st13" d="M443.6,419.6l-1-0.1c2.8-22.6,4-47.3,3.5-75.3l1,0C447.6,372.3,446.4,396.9,443.6,419.6z"/>
				<g>
					<path class="st3" d="M365.3,463.1h16.8c10.2-1.2,20.5-3.7,20.5-3.7c7-1.6,5.9-7.7,3.8-7.7c-1,0.1-1.7,0.2-0.7,0
						c7.2-0.9,5.7-9.1,2.1-9.3c4.8,0.1,5.1-7.7,2.6-8.2c3-0.8,2.1-7.8-2.7-8c-4.1-0.4-26.8,1.8-26.8,1.8c0-3.1,13.3-3.6,14.1-11.2
						c-0.1-0.8-0.8-1.1-1.4-1.1c-20,3.1-30.2,10.7-33.9,13c-5.7,3.5-12.7,9.7-11.9,18.5C349,459.9,355.8,462.1,365.3,463.1z"/>
					
						<rect x="386.4" y="452.6" transform="matrix(0.9909 -0.1349 0.1349 0.9909 -57.4996 57.6225)" class="st6" width="20.1" height="1"/>
					
						<rect x="386" y="443.7" transform="matrix(0.9906 -0.1369 0.1369 0.9906 -57.0503 58.5002)" class="st6" width="21.9" height="1"/>
					
						<rect x="385.6" y="435" transform="matrix(0.9944 -0.1054 0.1054 0.9944 -43.7056 44.3936)" class="st6" width="24.8" height="1"/>
					<path class="st6" d="M356.7,431.4l-0.6-0.8c1.6-1.2,3.3-2.3,5.2-3.5l0.5,0.9C360,429.1,358.3,430.2,356.7,431.4z"/>
				</g>
				<path class="st13" d="M314.9,406.5c-20.8-8.3-40.8-19.4-61.2-34l0.6-0.8c20.3,14.5,40.2,25.6,61,33.9L314.9,406.5z"/>
				<path class="st13" d="M444.2,410.1l-0.1-1c10.1-1.2,21.7-3.9,34.4-8.2l0.3,0.9C466,406.1,454.4,408.9,444.2,410.1z"/>
			</g>
			<rect x="178" y="462.4" class="st7" width="394" height="1"/>
		</g>
		<g>
			<g>
				<g>
					
						<ellipse transform="matrix(0.7071 -0.7071 0.7071 0.7071 70.0193 360.563)" class="st4" cx="470.2" cy="95.8" rx="56.3" ry="56.3"/>
					<g>
						<g>
							<polygon class="st13" points="494.7,126 457.7,126 453.9,69 498.5,69 							"/>
							<polygon class="st15" points="498.2,73.6 498.5,69 453.9,69 454.2,73.6 							"/>
							<path class="st16" d="M496.8,107.7l1.6-23.9c0-0.6-0.5-1.1-1.1-1.1h-42.3c-0.6,0-1.1,0.5-1.1,1.1l1.6,23.9c0,0.6,0.5,1,1.1,1
								h39.1C496.3,108.7,496.8,108.3,496.8,107.7z"/>
							<path class="st7" d="M453.1,66.9l-0.6,4.7h47.4l-0.7-4.7c-0.1-0.8-0.8-1.4-1.7-1.4h-42.8C453.9,65.5,453.2,66.1,453.1,66.9z"
								/>
							<path class="st7" d="M459.7,60.5l-0.4,6h34l-0.5-6c-0.1-0.6-0.6-1-1.2-1h-30.6C460.3,59.5,459.7,59.9,459.7,60.5z"/>
							<path class="st9" d="M481,104.1c-4.8,0-8.6-3.7-8.6-8.3c0-4.6,3.9-8.3,8.6-8.3c4.8,0,8.6,3.7,8.6,8.3
								C489.6,100.3,485.8,104.1,481,104.1z M481,88.4c-4.2,0-7.6,3.3-7.6,7.3c0,4.1,3.4,7.3,7.6,7.3c4.2,0,7.6-3.3,7.6-7.3
								C488.6,91.7,485.2,88.4,481,88.4z"/>
							<rect x="459.3" y="65" class="st9" width="33.9" height="1"/>
						</g>
						<g>
							<path class="st13" d="M436.6,106.4c0,0,2-10.9,16.3-10.8c14.3,0.2,18.5,10.8,18.5,10.8H436.6z"/>
							<path class="st7" d="M466.8,126h-25.9c-1.3,0-2.5-0.8-2.7-1.8l-3.5-18.5h38.2l-3.6,18.6C469.1,125.3,468,126,466.8,126z"/>
							
								<rect x="439.2" y="105.5" transform="matrix(0.9867 -0.1628 0.1628 0.9867 -12.9915 73.1306)" class="st9" width="1" height="20.6"/>
							
								<rect x="443.4" y="105.6" transform="matrix(0.9946 -0.1033 0.1033 0.9946 -9.593 46.4775)" class="st9" width="1" height="20.4"/>
							<rect x="453.3" y="105.7" class="st9" width="1" height="20.3"/>
							
								<rect x="448.1" y="105.7" transform="matrix(0.9991 -4.271964e-02 4.271964e-02 0.9991 -4.5391 19.2704)" class="st9" width="1" height="20.3"/>
							
								<rect x="457.6" y="115.3" transform="matrix(0.1631 -0.9866 0.9866 0.1631 277.2807 558.5782)" class="st9" width="20.6" height="1"/>
							
								<rect x="453.6" y="115.3" transform="matrix(0.1036 -0.9946 0.9946 0.1036 300.5584 565.1549)" class="st9" width="20.4" height="1"/>
							
								<rect x="448.9" y="115.3" transform="matrix(4.286058e-02 -0.9991 0.9991 4.286058e-02 323.6322 569.4929)" class="st9" width="20.3" height="1"/>
							<path class="st17" d="M450,95.7c1.9,0.5,3.9,0.5,5.8,0c0.9-0.8,1.4-1.9,1.4-3.2c0-2.4-1.9-4.3-4.3-4.3s-4.3,1.9-4.3,4.3
								C448.6,93.9,449.1,95,450,95.7z"/>
							<path class="st9" d="M452.4,89.9c-0.6-2.6-2.1-3.6-2.2-3.6l0.5-0.9c0.1,0,2,1.2,2.7,4.3L452.4,89.9z"/>
						</g>
					</g>
				</g>
			</g>
			<path class="st4" d="M470.2,159c-34.8,0-63.2-28.4-63.2-63.2c0-34.8,28.4-63.2,63.2-63.2c10.4,0,20.8,2.6,29.9,7.5l-0.5,0.9
				c-9-4.8-19.2-7.4-29.4-7.4C436,33.6,408,61.5,408,95.8S436,158,470.2,158s62.2-27.9,62.2-62.2c0-13.4-4.2-26.2-12.1-36.9l0.8-0.6
				c8.1,10.9,12.3,23.9,12.3,37.5C533.4,130.6,505.1,159,470.2,159z"/>
			<g>
				<text transform="matrix(1 0 0 1 444.3972 174.9267)" class="st18 st19 st20">COFFEE</text>
			</g>
		</g>
		<g>
			<g>
				<g>
					
						<ellipse transform="matrix(0.2432 -0.97 0.97 0.2432 118.62 343.5566)" class="st4" cx="279.5" cy="95.8" rx="56.3" ry="56.3"/>
					<g>
						<path class="st13" d="M304.6,120.7h-45.5c-1.6,0-2.8,1.3-2.8,2.8c0,1.6,1.3,2.8,2.8,2.8h45.5V120.7z"/>
						<path class="st21" d="M254.3,64v59.3h2c0.2-1.4,1.4-2.5,2.8-2.5h45.5V62.1c0-0.6-0.5-1.1-1.1-1.1h-46.1
							C255.7,60.9,254.3,62.3,254.3,64z"/>
						<path class="st22" d="M259.1,120.7h45.5v-1.6h-45.8c-2.5,0-4.5,2-4.5,4.5c0,2.4,2,4.5,4.5,4.5h45.8v-1.6h-45.5
							c-1.6,0-2.8-1.3-2.8-2.8C256.3,122,257.5,120.7,259.1,120.7z"/>
						<rect x="257.8" y="62.5" class="st9" width="1" height="54.9"/>
						<rect x="265.5" y="73" class="st9" width="29.8" height="1"/>
						<rect x="274.8" y="122.4" class="st9" width="29.8" height="1"/>
						<rect x="270.3" y="79.2" class="st9" width="20.3" height="1"/>
						<polygon class="st23" points="260.5,122.4 260.5,131 264.5,128.5 268.2,130.9 268.2,122.4 						"/>
					</g>
				</g>
			</g>
			<path class="st4" d="M279.5,159c-34.8,0-63.2-28.4-63.2-63.2c0-34.8,28.4-63.2,63.2-63.2c10.4,0,20.8,2.6,29.9,7.5l-0.5,0.9
				c-9-4.8-19.2-7.4-29.4-7.4c-34.3,0-62.2,27.9-62.2,62.2s27.9,62.2,62.2,62.2s62.2-27.9,62.2-62.2c0-13.4-4.2-26.2-12.1-36.9
				l0.8-0.6c8.1,10.9,12.3,23.9,12.3,37.5C342.7,130.6,314.3,159,279.5,159z"/>
			<g>
				<text transform="matrix(1 0 0 1 256.1633 174.9265)" class="st18 st19 st20">BOOKs</text>
			</g>
		</g>
		<g>
			<g>
				<g>
					<g>
						
							<ellipse transform="matrix(0.7071 -0.7071 0.7071 0.7071 -98.8587 150.8007)" class="st4" cx="132.6" cy="194.7" rx="56.3" ry="56.3"/>
					</g>
				</g>
				<g>
					<path class="st16" d="M142.4,174.3h-19.5c-1.7,0-3-1.7-2.5-3.3l2-7.4c0.3-1.1,1.4-1.9,2.5-1.9h15.5c1.2,0,2.2,0.8,2.5,1.9
						l2,7.4C145.4,172.6,144.1,174.3,142.4,174.3z"/>
					<path class="st7" d="M173.3,179.2H91.9c-0.8,0-1.4-0.6-1.4-1.4l0,0c0-0.8,0.6-1.4,1.4-1.4h81.4c0.8,0,1.4,0.6,1.4,1.4l0,0
						C174.7,178.6,174.1,179.2,173.3,179.2z"/>
					<path class="st16" d="M166.5,217.2H98.7c-2.7,0-4.9-2.2-4.9-4.9v-37c0-2.7,2.2-4.9,4.9-4.9h67.9c2.7,0,4.9,2.2,4.9,4.9v37
						C171.4,215,169.2,217.2,166.5,217.2z"/>
					<path class="st7" d="M110.9,170.4h-10.6c-0.6,0-1.1-0.5-1.1-1.1v-2.1c0-0.6,0.5-1.1,1.1-1.1h10.6c0.6,0,1.1,0.5,1.1,1.1v2.1
						C112,169.9,111.5,170.4,110.9,170.4z"/>
					<rect x="114.5" y="174.9" class="st7" width="1" height="36.8"/>
					<g>
						<circle class="st7" cx="145" cy="193.8" r="20.7"/>
						<path class="st9" d="M145,209.7c-8.8,0-15.9-7.1-15.9-15.9c0-8.8,7.1-15.9,15.9-15.9c8.8,0,15.9,7.1,15.9,15.9
							C160.9,202.6,153.8,209.7,145,209.7z M145,178.9c-8.2,0-14.9,6.7-14.9,14.9s6.7,14.9,14.9,14.9c8.2,0,14.9-6.7,14.9-14.9
							S153.2,178.9,145,178.9z"/>
						<path class="st9" d="M151,193.8c0,3.3-2.7,6.1-6.1,6.1c-3.3,0-6.1-2.7-6.1-6.1c0-3.3,2.7-6.1,6.1-6.1
							C148.3,187.7,151,190.4,151,193.8z"/>
						<circle class="st13" cx="149" cy="190.4" r="2.6"/>
						<path class="st13" d="M154.9,185.9c0,0.8-0.6,1.4-1.4,1.4c-0.8,0-1.4-0.6-1.4-1.4c0-0.8,0.6-1.4,1.4-1.4
							C154.3,184.5,154.9,185.1,154.9,185.9z"/>
					</g>
					<rect x="120.6" y="169.9" class="st7" width="24" height="1"/>
					<path class="st7" d="M164.5,179.3c-1.1,0-2.1-0.9-2.1-2.1c0-1.1,0.9-2.1,2.1-2.1s2.1,0.9,2.1,2.1
						C166.6,178.3,165.7,179.3,164.5,179.3z M164.5,176.1c-0.6,0-1.1,0.5-1.1,1.1c0,0.6,0.5,1.1,1.1,1.1s1.1-0.5,1.1-1.1
						C165.6,176.6,165.1,176.1,164.5,176.1z"/>
				</g>
			</g>
			<path class="st4" d="M132.6,257.9c-34.8,0-63.2-28.4-63.2-63.2s28.4-63.2,63.2-63.2c10.4,0,20.8,2.6,29.9,7.5l-0.5,0.9
				c-9-4.8-19.2-7.4-29.4-7.4c-34.3,0-62.2,27.9-62.2,62.2s27.9,62.2,62.2,62.2c34.3,0,62.2-27.9,62.2-62.2
				c0-13.4-4.2-26.2-12.1-36.9l0.8-0.6c8.1,10.9,12.3,23.9,12.3,37.5C195.8,229.6,167.5,257.9,132.6,257.9z"/>
			<g>
				<text transform="matrix(1 0 0 1 79.6806 273.7629)" class="st18 st19 st20">photography</text>
			</g>
		</g>
		<g>
			<g>
				<g>
					
						<ellipse transform="matrix(0.2243 -0.9745 0.9745 0.2243 289.7845 755.204)" class="st4" cx="619.3" cy="195.6" rx="56.3" ry="56.3"/>
					<g>
						<path class="st23" d="M640.8,222.7c-13.9,7.8-28.3,7.8-43,0v-12.3h43V222.7z"/>
						<path class="st16" d="M626.5,230.5c0,3.9-3.1,7-7,7s-7-3.1-7-7c0-3.9,3.1-7,7-7S626.5,226.7,626.5,230.5z"/>
						<rect x="619" y="220.6" class="st9" width="1" height="3"/>
						<path class="st7" d="M592.1,182.5c0,0-2.3-23.5,3.5-23.8c5.8-0.3,19.4,20.1,19.4,20.1L592.1,182.5z"/>
						<path class="st7" d="M646.5,182.5c0,0,2.3-23.5-3.5-23.8c-5.8-0.3-19.4,20.1-19.4,20.1L646.5,182.5z"/>
						<path class="st24" d="M597.5,176.5c0,0-1.2-11.7,1.7-11.8c2.9-0.1,9.6,10,9.6,10L597.5,176.5z"/>
						<path class="st24" d="M641.1,176.5c0,0,1.2-11.7-1.7-11.8c-2.9-0.1-9.6,10-9.6,10L641.1,176.5z"/>
						<path class="st7" d="M645.6,178c-6-5-46.6-5-52.6,0c-6.7,5.6-8.1,20.6-7.3,24.5c3.2,14.7,20.8,19.1,33.6,19.1
							c12.8,0,30.4-4.4,33.6-19.1C653.7,198.6,652.2,183.6,645.6,178z"/>
						<path class="st13" d="M626.7,202.1c-3.8-6.2-2.2-24.1-2.2-27.7c-1.7-0.1-3.4-0.1-5.1-0.1c-1.7,0-3.4,0-5.1,0.1
							c0,3.6,1.5,21.5-2.2,27.7c-3.8,6.2-20.9,7-23.5,7c6.2,9.5,20.2,12.6,30.9,12.6c0,0,0,0,0,0c0,0,0,0,0,0
							c10.7,0,24.7-3.1,30.9-12.6C647.6,209.1,630.4,208.3,626.7,202.1z"/>
						<g>
							
								<rect x="649.1" y="195.9" transform="matrix(0.9906 -0.1368 0.1368 0.9906 -20.7276 91.0808)" class="st9" width="6.8" height="1"/>
							
								<rect x="652.4" y="196.8" transform="matrix(5.226332e-02 -0.9986 0.9986 5.226332e-02 418.9911 841.6539)" class="st9" width="1" height="6.7"/>
							
								<rect x="650.9" y="201" transform="matrix(0.4083 -0.9129 0.9129 0.4083 199.1935 715.4119)" class="st9" width="1" height="6.1"/>
						</g>
						<g>
							
								<rect x="585.6" y="193" transform="matrix(0.1371 -0.9906 0.9906 0.1371 311.183 750.0079)" class="st9" width="1" height="6.8"/>
							
								<rect x="582.3" y="199.6" transform="matrix(0.9986 -5.277919e-02 5.277919e-02 0.9986 -9.7438 31.1899)" class="st9" width="6.7" height="1"/>
							
								<rect x="584.1" y="203.6" transform="matrix(0.9129 -0.4081 0.4081 0.9129 -32.1548 257.4)" class="st9" width="6.1" height="1"/>
						</g>
						<path class="st25" d="M619.5,192.4c-0.7,0-3.5,0.1-3.2,2.6c0,0,2.4-0.3,2.7,2h0.3h0.4h0.3c0.3-2.3,2.7-2,2.7-2
							C623,192.4,620.2,192.3,619.5,192.4z"/>
						<rect x="619" y="196.9" class="st9" width="1" height="6"/>
						<g>
							<ellipse class="st13" cx="603" cy="193.8" rx="9" ry="9"/>
							<path class="st9" d="M608.4,193.8c0,3-2.4,5.5-5.4,5.5c-3,0-5.4-2.4-5.4-5.5s2.4-5.5,5.4-5.5
								C606,188.3,608.4,190.8,608.4,193.8z"/>
							<circle class="st13" cx="606.4" cy="190.1" r="2.2"/>
						</g>
						<g>
							<ellipse class="st13" cx="636" cy="193.8" rx="9" ry="9"/>
							<ellipse class="st9" cx="636" cy="193.8" rx="5.4" ry="5.5"/>
							<circle class="st13" cx="639.3" cy="190.1" r="2.2"/>
						</g>
						<path class="st9" d="M626.9,231.2c-4.5-2.4-11.8-2.1-14.6,0l-0.6-0.8c3.4-2.5,11.2-2.5,15.6,0L626.9,231.2z"/>
						<rect x="619.1" y="235.4" class="st9" width="1" height="2.1"/>
						<path class="st9" d="M621,235.7c0,0.5-0.6,0.9-1.4,0.9s-1.4-0.4-1.4-0.9c0-0.5,0.6-0.9,1.4-0.9S621,235.2,621,235.7z"/>
					</g>
				</g>
			</g>
			<path class="st4" d="M619.3,258.8c-34.8,0-63.2-28.4-63.2-63.2c0-34.8,28.4-63.2,63.2-63.2c10.4,0,20.8,2.6,29.9,7.5l-0.5,0.9
				c-9-4.8-19.2-7.4-29.4-7.4c-34.3,0-62.2,27.9-62.2,62.2s27.9,62.2,62.2,62.2c34.3,0,62.2-27.9,62.2-62.2
				c0-13.4-4.2-26.2-12.1-36.9l0.8-0.6c8.1,10.9,12.3,23.9,12.3,37.5C682.5,230.4,654.1,258.8,619.3,258.8z"/>
			<g>
				<text transform="matrix(1 0 0 1 602.0253 274.7256)" class="st18 st19 st20">cats</text>
			</g>
		</g>
		<g>
			<g>
				<g>
					
						<ellipse transform="matrix(0.2354 -0.9719 0.9719 0.2354 143.1444 920.9855)" class="st4" cx="656.9" cy="369.5" rx="56.3" ry="56.3"/>
					<g>
						<path class="st16" d="M678.4,386.7v-34.3c-2.5,0-4.4-2-4.4-4.4h-53.4c0,2.5-2,4.4-4.4,4.4c-0.1,0-0.1,0-0.2,0v34.3
							c0.1,0,0.1,0,0.2,0c2.5,0,4.4,2,4.4,4.4H674C674,388.7,676,386.7,678.4,386.7z"/>
						<text transform="matrix(1 0 0 1 622.7276 377.6207)" class="st7 st19 st26">TICKET</text>
						<text transform="matrix(1 0 0 1 632.9405 363.2643)" class="st7 st19 st27">CINEMA</text>
						<path class="st21" d="M698.9,386.7v-34.3c-2.5,0-4.4-2-4.4-4.4h-11.5c0,2.5-2,4.4-4.4,4.4v34.3c2.5,0,4.4,2,4.4,4.4h11.5
							C694.4,388.7,696.4,386.7,698.9,386.7z"/>
						<g>
							<rect x="677.9" y="352.4" class="st7" width="1" height="2.5"/>
							<path class="st7" d="M678.9,380.9h-1v-5.4h1V380.9z M678.9,372.2h-1v-5.4h1V372.2z M678.9,363.5h-1v-5.4h1V363.5z"/>
							<rect x="677.9" y="384.2" class="st7" width="1" height="2.5"/>
						</g>
						<g>
							<g>
								<g>
									<polygon class="st7" points="686.4,377.5 688.1,377 688.1,375.2 689.2,376.6 690.9,376.1 689.8,377.5 690.9,379 
										689.2,378.4 688.1,379.9 688.1,378.1 									"/>
								</g>
								<g>
									<polygon class="st7" points="686.4,360.7 688.1,360.1 688.1,358.3 689.2,359.8 690.9,359.2 689.8,360.7 690.9,362.1 
										689.2,361.6 688.1,363 688.1,361.2 									"/>
								</g>
								<g>
									<polygon class="st7" points="685.7,369.1 687.9,368.4 687.9,366 689.3,367.9 691.6,367.2 690.2,369.1 691.6,371 
										689.3,370.3 687.9,372.2 687.9,369.8 									"/>
								</g>
							</g>
						</g>
						<rect x="623.1" y="360.2" class="st7" width="7.5" height="1"/>
						<rect x="664" y="360.2" class="st7" width="7.5" height="1"/>
						<path class="st13" d="M671.6,388.1H623l-0.1-0.3c-0.8-1.5-2-2.8-3.6-3.5l-0.3-0.1v-29.3l0.3-0.1c1.6-0.7,2.8-2,3.6-3.5
							l0.1-0.3h48.6l0.1,0.3c0.7,1.5,1.9,2.7,3.4,3.4l0.3,0.1v29.5l-0.3,0.1c-1.5,0.7-2.7,1.9-3.4,3.4L671.6,388.1z M623.6,387.1
							H671c0.8-1.4,2-2.6,3.4-3.4v-28.3c-1.4-0.8-2.6-2-3.4-3.4h-47.4c-0.8,1.5-2.1,2.7-3.6,3.5v28
							C621.5,384.3,622.8,385.5,623.6,387.1z"/>
					</g>
				</g>
			</g>
			<path class="st4" d="M656.9,432.7c-34.8,0-63.2-28.4-63.2-63.2c0-34.8,28.4-63.2,63.2-63.2c10.4,0,20.8,2.6,29.9,7.5l-0.5,0.9
				c-9-4.8-19.2-7.4-29.4-7.4c-34.3,0-62.2,27.9-62.2,62.2c0,34.3,27.9,62.2,62.2,62.2s62.2-27.9,62.2-62.2
				c0-13.4-4.2-26.2-12.1-36.9l0.8-0.6c8.1,10.9,12.3,23.9,12.3,37.5C720.1,404.4,691.8,432.7,656.9,432.7z"/>
			<text transform="matrix(1 0 0 1 627.8393 448.5661)" class="st18 st19 st20">cinema</text>
		</g>
		<g>
			<g>
				<g>
					
						<ellipse transform="matrix(0.2298 -0.9732 0.9732 0.2298 -288.0605 375.4122)" class="st4" cx="93.1" cy="369.7" rx="56.3" ry="56.3"/>
					<g>
						<polygon class="st7" points="102.9,401.9 83.5,401.9 85.9,386.3 100.4,386.3 						"/>
						<path class="st7" d="M122.1,391.2H63.1c-2.6,0-4.8-2.1-4.8-4.8v-37.9c0-2.6,2.1-4.8,4.8-4.8h58.9c2.6,0,4.8,2.1,4.8,4.8v37.9
							C126.8,389.1,124.7,391.2,122.1,391.2z"/>
						<rect x="64.8" y="349.9" class="st13" width="55.5" height="35.4"/>
						<rect x="64.8" y="349.9" class="st16" width="55.5" height="2.7"/>
						<rect x="79.4" y="400.5" class="st7" width="27.6" height="3.1"/>
						<rect x="85.2" y="390.7" class="st9" width="16.1" height="1"/>
						<rect x="83.7" y="400" class="st9" width="18.9" height="1"/>
						<g>
							<rect x="78.6" y="381.3" class="st9" width="29.2" height="1"/>
							<path class="st9" d="M93.2,382.3c-12.2,0-22.1-9.9-22.1-22.1h1c0,11.6,9.5,21.1,21.1,21.1c11.6,0,21.1-9.5,21.1-21.1h1
								C115.3,372.4,105.4,382.3,93.2,382.3z"/>
							<g>
								<path class="st7" d="M92.8,378v-7.6c-0.7-0.2-1.2-0.8-1.2-1.5c0-0.9,0.7-1.6,1.6-1.6c0.9,0,1.6,0.7,1.6,1.6
									c0,0.7-0.5,1.4-1.2,1.5v7.6l5.5-11.9c0,0-2.7-1.4-3.3-5h-2.6h-2.6c-0.6,3.6-3.3,5-3.3,5L92.8,378z"/>
								<path class="st23" d="M90.1,359.4h6.1c0.5,0,0.9,0.4,0.9,0.9v1.2c0,0.5-0.4,0.9-0.9,0.9h-6.1c-0.5,0-0.9-0.4-0.9-0.9v-1.2
									C89.3,359.8,89.7,359.4,90.1,359.4z"/>
								
									<rect x="90.1" y="355.1" transform="matrix(-1 -1.224647e-16 1.224647e-16 -1 186.3687 714.7041)" class="st23" width="6.1" height="4.6"/>
							</g>
							<rect x="91.7" y="380" class="st23" width="3.3" height="3.3"/>
						</g>
					</g>
				</g>
			</g>
			<path class="st4" d="M93.1,432.8c-34.8,0-63.2-28.4-63.2-63.2c0-34.8,28.4-63.2,63.2-63.2c10.4,0,20.8,2.6,29.9,7.5l-0.5,0.9
				c-9-4.8-19.2-7.4-29.4-7.4c-34.3,0-62.2,27.9-62.2,62.2s27.9,62.2,62.2,62.2s62.2-27.9,62.2-62.2c0-13.4-4.2-26.2-12.1-36.9
				l0.8-0.6c8.1,10.9,12.3,23.9,12.3,37.5C156.3,404.4,128,432.8,93.1,432.8z"/>
			<text transform="matrix(1 0 0 1 67.4 448.5654)" class="st18 st19 st20">design</text>
		</g>
	</g>
</g>
</svg>
