<?xml version="1.0" encoding="utf-8"?>
<!-- Generator: Adobe Illustrator 27.2.0, SVG Export Plug-In . SVG Version: 6.00 Build 0)  -->
<svg version="1.1" id="OBJECTS" xmlns="http://www.w3.org/2000/svg" xmlns:xlink="http://www.w3.org/1999/xlink" x="0px" y="0px"
	 viewBox="0 0 750 500" style="enable-background:new 0 0 750 500;" xml:space="preserve">
<style type="text/css">
	
		.st0{clip-path:url(#SVGID_00000098916190366741924310000002146185064755889558_);fill:url(#SVGID_00000034775668946360912670000007535125051184832146_);}
	
		.st1{clip-path:url(#SVGID_00000098916190366741924310000002146185064755889558_);fill:url(#SVGID_00000052801047274192766130000004866289798484038822_);}
</style>
<g>
	<defs>
		<rect id="SVGID_1_" width="750" height="500"/>
	</defs>
	<clipPath id="SVGID_00000090279003532378287800000016024138870968861870_">
		<use xlink:href="#SVGID_1_"  style="overflow:visible;"/>
	</clipPath>
	
		<linearGradient id="SVGID_00000169533339591728234600000004535988178025058992_" gradientUnits="userSpaceOnUse" x1="442.7155" y1="216.3255" x2="662.173" y2="-100.3739">
		<stop  offset="0" style="stop-color:#AEB0B1"/>
		<stop  offset="0.1327" style="stop-color:#BABBBC"/>
		<stop  offset="0.3786" style="stop-color:#C9CBCB"/>
		<stop  offset="0.5713" style="stop-color:#CFD0D0"/>
		<stop  offset="0.6868" style="stop-color:#D3D4D4"/>
		<stop  offset="0.8054" style="stop-color:#DFE0E0"/>
		<stop  offset="0.9251" style="stop-color:#F4F4F4"/>
		<stop  offset="0.976" style="stop-color:#FFFFFF"/>
	</linearGradient>
	
		<path style="clip-path:url(#SVGID_00000090279003532378287800000016024138870968861870_);fill:url(#SVGID_00000169533339591728234600000004535988178025058992_);" d="
		M758.17,270.39l-28.14-16.24l27.39-15.81l0.25-0.14V205.7l0.5-0.29l-0.5-0.29v-32.49l-27.62-15.95l27.4-15.82l0.25-0.14v-33.64
		l-28.89,16.68l-0.25,0.14v31.92l-0.02-0.01v33.07l-26.24,15.15c-0.24-0.24-0.55-0.42-0.89-0.51v-63.37l-28.14-16.24V91.42
		l-26.75-15.44c0.05-0.17,0.08-0.34,0.08-0.52c0-0.18-0.03-0.35-0.08-0.51l26.5-15.3l0.25-0.14v-31.9l27.11,15.65v65.55l27.24-15.73
		c0.36,0.36,0.85,0.58,1.39,0.58c1.08,0,1.96-0.88,1.96-1.96c0-0.91-0.62-1.67-1.46-1.89V27.05l27.93-16.13l0.25-0.14v-33.64
		L729.51-6.59v-0.03L700.87,9.91L672.24-6.62v33.08l-27.86,16.09l-0.25,0.14v30.89c-0.84,0.22-1.46,0.98-1.46,1.89
		c0,0.91,0.62,1.67,1.46,1.89v30.89l28.14,16.24v31.91l-27.14,15.67v-31.91l-28.14-16.24v-0.58l-0.5,0.29l-0.5-0.29v0.58L588.1,140
		l-0.25,0.14v33.64l27.24-15.73c0.36,0.36,0.85,0.58,1.39,0.58s1.04-0.22,1.39-0.58l26.24,15.15v65.56l28.64-16.53l27.64,15.95l0,0
		l27.64,15.96l-27.14,15.67l-0.5-0.29v0.58l-0.5,0.29l0.5,0.29v32.49l28.14,16.24v30.31c-0.84,0.22-1.46,0.98-1.46,1.89
		c0,1.08,0.88,1.96,1.96,1.96c1.08,0,1.96-0.88,1.96-1.96c0-0.18-0.03-0.35-0.08-0.51l26.5-15.3l0.25-0.14v-33.64l-28.14,16.24
		v-31.33L758.17,270.39z M729.55,124.48l27.14-15.67v31.33l-27.14,15.67V124.48z M756.67,237.61l-27.14,15.67v-31.33l27.14-15.67
		V237.61z M756.67,204.54l-27.14-15.67v-31.33l27.14,15.67V204.54z M729.03,189.74l27.14,15.67l-12.33,7.12l-14.81,8.55
		l-26.25-15.16c0.04-0.16,0.08-0.33,0.08-0.51c0-0.18-0.03-0.35-0.08-0.51L729.03,189.74z M700.4,173.21v30.3
		c-0.34,0.09-0.65,0.27-0.89,0.51l-12.67-7.32l-13.57-7.83v-31.33l13.57,7.83L700.4,173.21z M701.37,43.26l27.14-15.67v31.33
		l-27.14,15.67V43.26z M701.37,107.08V75.75l27.14-15.67v29.73c-0.84,0.22-1.46,0.98-1.46,1.89c0,0.18,0.03,0.35,0.08,0.51
		L701.37,107.08z M729.55-5.46l27.14-15.67V10.2l-27.14,15.67V-5.46z M728.51,26.44l-27.14,15.67V10.78l27.14-15.67V26.44z
		 M673.24-4.89l27.14,15.67v31.33l-27.11-15.65v-0.59l-0.02,0.01V-4.89z M672.26,27.6v31.33l-26.24,15.15
		c-0.24-0.24-0.55-0.42-0.89-0.51V43.26L672.26,27.6z M645.12,107.66V77.35c0.34-0.09,0.65-0.26,0.89-0.51L672.26,92v31.33
		L645.12,107.66z M700.4,140.73v31.33l-13.57-7.83l-13.57-7.83v-31.33L700.4,140.73z M588.85,172.05v-31.33l27.14-15.67v29.73
		c-0.84,0.22-1.46,0.98-1.46,1.89c0,0.18,0.03,0.35,0.08,0.51L588.85,172.05z M616.99,154.79v-29.73l27.14,15.67v31.33l-25.75-14.86
		c0.04-0.16,0.08-0.33,0.08-0.51C618.45,155.77,617.83,155.01,616.99,154.79z M645.12,173.21l27.14-15.67v31.33l-27.14,15.67V173.21
		z M645.12,205.7l27.14-15.67v31.33l-27.14,15.67V205.7z M673.26,221.36v-31.33l13.57,7.83l12.18,7.03
		c-0.04,0.16-0.08,0.33-0.08,0.51c0,0.91,0.62,1.67,1.46,1.89v29.73L673.26,221.36z M701.4,207.3c0.34-0.09,0.65-0.26,0.89-0.51
		l26.24,15.15v31.33l-27.14-15.67V207.3z M728.53,255.01L728.53,255.01l0.5-0.29l0.5,0.29v0l26.64,15.38l-27.14,15.67l-27.14-15.67
		L728.53,255.01z M701.4,271.25l27.14,15.67v31.33l-27.14-15.67V271.25z M756.67,303.74v31.33l-26.24,15.15
		c-0.24-0.24-0.55-0.42-0.89-0.51v-30.31L756.67,303.74z M590.32,107.95c0-0.18-0.03-0.35-0.08-0.51l26.5-15.3l0.25-0.14V27.05
		l26.08-15.06c0.36,0.5,0.94,0.83,1.6,0.83c1.08,0,1.96-0.88,1.96-1.96c0-0.91-0.62-1.67-1.46-1.89v-31.83L617.03-6.62v-31.91
		L587.9-55.35v33.64l27.61,15.94L588.35,9.91L562.1-5.25c0.04-0.16,0.08-0.33,0.08-0.51c0-1.08-0.88-1.96-1.96-1.96
		c-1.08,0-1.96,0.88-1.96,1.96c0,0.91,0.62,1.67,1.46,1.89v29.73l0,0v33.07l-27.64,15.96l-27.14-15.67l27.39-15.81l0.25-0.14V10.77
		l0.5-0.29l-0.5-0.29v-31.91l27.89-16.1l0.25-0.14V-71.6l-28.89,16.68l-0.25,0.14v31.91l-27.14-15.67v-0.58l-0.5,0.29l-28.64-16.53
		v31.46c-0.34,0.09-0.65,0.27-0.89,0.51l-26.24-15.15v-33.06l-28.14,16.24v-0.01l-28.89,16.68l-0.25,0.14v31.91l-27.14-15.67v-0.58
		l-0.5,0.29l-0.5-0.29v0.58L335.13-6.34l-28.64-16.53v33.06l-27.14,15.67V-6.05l-29.14-16.82v0l-28.14-16.24v33.07L195.84,9.1
		c-0.36-0.36-0.85-0.58-1.39-0.58c-1.08,0-1.96,0.88-1.96,1.96s0.88,1.96,1.96,1.96c0.55,0,1.04-0.22,1.39-0.58l26.24,15.15v33.07
		l28.89-16.68l0.25-0.14V11.35l27.14,15.67v33.06l27.24-15.73c0.24,0.24,0.55,0.42,0.89,0.51v30.89l29.14,16.82V60.08l28.14,16.24
		V42.68l-27.64-15.95l27.13-15.66l28.64,16.53V-5.47l27.14-15.67v63.82l-27.89,16.1l-0.25,0.14v33.64l27.24-15.73
		c0.36,0.36,0.85,0.58,1.39,0.58c1.08,0,1.96-0.88,1.96-1.96c0-0.91-0.62-1.67-1.46-1.89V43.26l27.89-16.1l0.25-0.14V-4.89
		l27.14,15.67v30.31c-0.84,0.22-1.46,0.98-1.46,1.89c0,0.18,0.03,0.35,0.08,0.51l-26.5,15.3l-0.25,0.14v33.64l28.64-16.53
		l28.14,16.24l28.14-16.24l28.14,16.24l27.64-15.96v29.73c-0.84,0.22-1.46,0.98-1.46,1.89c0,1.08,0.88,1.96,1.96,1.96
		C589.44,109.91,590.32,109.03,590.32,107.95z M615.99,91.41l-26.24,15.15c-0.24-0.24-0.55-0.42-0.89-0.51V75.75l0.5-0.29l0,0
		l26.64-15.38V91.41z M560.72,27.59l27.14,15.67v31.33l-27.14-15.67V27.59z M588.85,43.26l27.14-15.67v31.33l-27.14,15.67V43.26z
		 M615.99,26.44l-27.14,15.67V10.78l27.14-15.67V26.44z M644.17-21.13V8.96c-0.84,0.22-1.46,0.98-1.46,1.89
		c0,0.06,0.01,0.12,0.02,0.18l-25.69,14.83V-5.46L644.17-21.13z M588.9-53.62l27.14,15.67v31.33L588.9-22.28V-53.62z M560.72-3.87
		c0.34-0.09,0.65-0.26,0.89-0.51l26.24,15.15V42.1l-27.14-15.67V-3.87z M503.95,26.15l-27.14-15.67l12.33-7.12l14.81-8.55
		l27.14,15.67l-12.33,7.12L503.95,26.15z M476.31-20.11c0.34-0.09,0.65-0.26,0.89-0.51l25.74,14.86L476.31,9.62V-20.11z
		 M503.44-6.63L477.7-21.49c0.04-0.16,0.08-0.33,0.08-0.51c0-0.18-0.03-0.35-0.08-0.51l25.75-14.87V-6.63z M503.44,27.02v31.33
		L477.7,43.48c0.04-0.16,0.08-0.33,0.08-0.51c0-0.91-0.62-1.67-1.46-1.89V11.35L503.44,27.02z M476.31,44.86
		c0.34-0.09,0.65-0.27,0.89-0.51l25.74,14.86l-26.64,15.38V44.86z M531.58,42.68l-27.14,15.67V27.02l27.14-15.67V42.68z
		 M532.58-54.2l27.14-15.67v31.33l-27.14,15.67V-54.2z M531.58-21.72V9.62L504.44-6.05v-31.33L531.58-21.72z M502.94-38.25
		L477.2-23.39c-0.24-0.24-0.55-0.42-0.89-0.51v-29.73L502.94-38.25z M447.17-69.86v31.33l-27.14,15.67v-31.32L447.17-69.86z
		 M362.76-21.14v31.33l-27.14,15.67V-5.47L362.76-21.14z M307.49-21.14l27.14,15.67v31.33l-13.57-7.83l-13.57-7.83V-21.14z
		 M334.63,58.35l-13.57-7.83l-12.18-7.03c0.04-0.16,0.08-0.33,0.08-0.51c0-0.91-0.62-1.67-1.46-1.89V11.35l13.57,7.83l13.57,7.83
		V58.35z M278.36,25.86l-27.14-15.67v-31.33l27.14,15.67V25.86z M223.09-37.39l27.14,15.67V9.62L223.09-6.05V-37.39z M196.34,9.97
		l26.25-15.15l27.14,15.67l-12.33,7.12l-14.81,8.55l-26.25-15.15c0.04-0.16,0.08-0.33,0.08-0.51
		C196.41,10.3,196.38,10.13,196.34,9.97z M250.22,42.68l-27.14,15.67V27.02l27.14-15.67V42.68z M279.36,58.35V27.01l27.14-15.67
		v29.73c-0.84,0.22-1.46,0.98-1.46,1.89c0,0.18,0.03,0.35,0.08,0.51L279.36,58.35z M334.63,90.83l-27.14-15.67V44.86
		c0.34-0.09,0.65-0.26,0.89-0.51l12.67,7.32l13.57,7.83V90.83z M362.76,74.59l-27.14-15.67V27.59l27.14,15.67V74.59z M390.9,25.86
		l-27.14-15.67v-31.33L390.9-5.47V25.86z M391.9-6.63v-31.33l27.14-15.67v31.33L391.9-6.63z M447.17-37.37v31.32L420.04,9.62v-31.32
		L447.17-37.37z M391.9,90.84V59.51l27.14-15.67v29.73c-0.84,0.22-1.46,0.98-1.46,1.89c0,0.18,0.03,0.35,0.08,0.51L391.9,90.84z
		 M447.17,26.44l-27.14,15.67V10.77l27.14-15.67V26.44z M448.17-37.38l25.75,14.86c-0.04,0.16-0.08,0.33-0.08,0.51
		c0,0.91,0.62,1.67,1.46,1.89V9.62L448.17-6.05V-37.38z M448.17,59.51l26.24-15.15c0.24,0.24,0.55,0.42,0.89,0.51v30.31
		l-27.14,15.67V59.51z M503.94,91.13l-27.14-15.67l26.64-15.38v0l0.5-0.29l0.5,0.29v0l26.64,15.38L503.94,91.13z M533.08,75.46
		l27.14-15.67l27.14,15.67l-27.14,15.67L533.08,75.46z"/>
	
		<linearGradient id="SVGID_00000057132304308380308190000006771503589716023939_" gradientUnits="userSpaceOnUse" x1="110.3818" y1="544.3032" x2="329.8393" y2="227.6037" gradientTransform="matrix(-1 0 0 -1 412.2139 820.4083)">
		<stop  offset="0" style="stop-color:#AEB0B1"/>
		<stop  offset="0.1327" style="stop-color:#BABBBC"/>
		<stop  offset="0.3786" style="stop-color:#C9CBCB"/>
		<stop  offset="0.5713" style="stop-color:#CFD0D0"/>
		<stop  offset="0.6868" style="stop-color:#D3D4D4"/>
		<stop  offset="0.8054" style="stop-color:#DFE0E0"/>
		<stop  offset="0.9251" style="stop-color:#F4F4F4"/>
		<stop  offset="0.976" style="stop-color:#FFFFFF"/>
	</linearGradient>
	
		<path style="clip-path:url(#SVGID_00000090279003532378287800000016024138870968861870_);fill:url(#SVGID_00000057132304308380308190000006771503589716023939_);" d="
		M-13.62,222.04l28.14,16.24l-27.39,15.81l-0.25,0.14v32.49l-0.5,0.29l0.5,0.29v32.49l27.62,15.95l-27.4,15.82l-0.25,0.14v33.64
		l28.89-16.68l0.25-0.14v-31.92l0.02,0.01v-33.07l26.24-15.15c0.24,0.24,0.55,0.42,0.89,0.51v63.37l28.14,16.24v32.49l26.75,15.44
		c-0.05,0.17-0.08,0.34-0.08,0.52c0,0.18,0.03,0.35,0.08,0.51l-26.5,15.3l-0.25,0.14v31.9l-27.11-15.65v-65.55l-27.24,15.73
		c-0.36-0.36-0.85-0.58-1.39-0.58c-1.08,0-1.96,0.88-1.96,1.96c0,0.91,0.62,1.67,1.46,1.89v62.76l-27.93,16.13l-0.25,0.14v33.64
		l28.18-16.27v0.03l28.64-16.53l28.64,16.53v-33.08l27.86-16.09l0.25-0.14v-30.89c0.84-0.22,1.46-0.98,1.46-1.89
		c0-0.91-0.62-1.67-1.46-1.89v-30.89l-28.14-16.24v-31.91l27.14-15.67v31.91l28.14,16.24v0.58l0.5-0.29l0.5,0.29v-0.58l27.89-16.1
		l0.25-0.14v-33.64l-27.24,15.73c-0.36-0.36-0.85-0.58-1.39-0.58c-0.55,0-1.04,0.22-1.39,0.58l-26.24-15.15v-65.56L71.79,270.2
		l-27.64-15.95l0,0l-27.64-15.96l27.14-15.67l0.5,0.29v-0.58l0.5-0.29l-0.5-0.29v-32.49l-28.14-16.24v-30.31
		c0.84-0.22,1.46-0.98,1.46-1.89c0-1.08-0.88-1.96-1.96-1.96s-1.96,0.88-1.96,1.96c0,0.18,0.03,0.35,0.08,0.51l-26.5,15.3
		l-0.25,0.14v33.64l28.14-16.24v31.33L-13.62,222.04z M14.99,367.95l-27.14,15.67v-31.33l27.14-15.67V367.95z M-12.12,254.82
		l27.14-15.67v31.33l-27.14,15.67V254.82z M-12.12,287.89l27.14,15.67v31.33l-27.14-15.67V287.89z M15.52,302.69l-27.14-15.67
		l12.33-7.12l14.81-8.55l26.25,15.15c-0.04,0.16-0.08,0.33-0.08,0.51c0,0.18,0.03,0.35,0.08,0.51L15.52,302.69z M44.15,319.22v-30.3
		c0.34-0.09,0.65-0.27,0.89-0.51l12.67,7.32l13.57,7.83v31.33l-13.57-7.83L44.15,319.22z M43.17,449.17l-27.14,15.67V433.5
		l27.14-15.67V449.17z M43.17,385.35v31.33l-27.14,15.67v-29.73c0.84-0.22,1.46-0.98,1.46-1.89c0-0.18-0.03-0.35-0.08-0.51
		L43.17,385.35z M14.99,497.89l-27.14,15.67v-31.33l27.14-15.67V497.89z M16.04,465.99l27.14-15.67v31.33l-27.14,15.67V465.99z
		 M71.31,497.32l-27.14-15.67v-31.33l27.11,15.65v0.59l0.02-0.01V497.32z M72.29,464.84V433.5l26.24-15.15
		c0.24,0.24,0.55,0.42,0.89,0.51v30.31L72.29,464.84z M99.42,384.77v30.31c-0.34,0.09-0.65,0.26-0.89,0.51l-26.25-15.15V369.1
		L99.42,384.77z M44.15,351.7v-31.33l13.57,7.83l13.57,7.83v31.33L44.15,351.7z M155.69,320.38v31.33l-27.14,15.67v-29.73
		c0.84-0.22,1.46-0.98,1.46-1.89c0-0.18-0.03-0.35-0.08-0.51L155.69,320.38z M127.56,337.64v29.73l-27.14-15.67v-31.33l25.75,14.86
		c-0.04,0.16-0.08,0.33-0.08,0.51C126.1,336.66,126.72,337.42,127.56,337.64z M99.42,319.22l-27.14,15.67v-31.33l27.14-15.67V319.22
		z M99.42,286.73L72.29,302.4v-31.33l27.14-15.67V286.73z M71.29,271.07v31.33l-13.57-7.83l-12.18-7.03
		c0.04-0.16,0.08-0.33,0.08-0.51c0-0.91-0.62-1.67-1.46-1.89V255.4L71.29,271.07z M43.15,285.13c-0.34,0.09-0.65,0.26-0.89,0.51
		l-26.24-15.15v-31.33l27.14,15.67V285.13z M16.02,237.42L16.02,237.42l-0.5,0.29l-0.5-0.29v0l-26.64-15.38l27.14-15.67l27.14,15.67
		L16.02,237.42z M43.15,221.18l-27.14-15.67v-31.33l27.14,15.67V221.18z M-12.12,188.69v-31.33l26.24-15.15
		c0.24,0.24,0.55,0.42,0.89,0.51v30.31L-12.12,188.69z M154.23,384.48c0,0.18,0.03,0.35,0.08,0.51l-26.5,15.3l-0.25,0.14v64.94
		l-26.08,15.06c-0.36-0.5-0.94-0.83-1.6-0.83c-1.08,0-1.96,0.88-1.96,1.96c0,0.91,0.62,1.67,1.46,1.89v31.83l28.14-16.24v31.91
		l29.14,16.82v-33.64l-27.61-15.94l27.15-15.68l26.25,15.15c-0.04,0.16-0.08,0.33-0.08,0.51c0,1.08,0.88,1.96,1.96,1.96
		c1.08,0,1.96-0.88,1.96-1.96c0-0.91-0.62-1.67-1.46-1.89v-29.73l0,0V433.5l27.64-15.96l27.14,15.67l-27.39,15.81l-0.25,0.14v32.49
		l-0.5,0.29l0.5,0.29v31.91l-27.89,16.1l-0.25,0.14v33.64l28.89-16.68l0.25-0.14V515.3l27.14,15.67v0.58l0.5-0.29l28.64,16.53
		v-31.46c0.34-0.09,0.65-0.27,0.89-0.51l26.24,15.15v33.06l28.14-16.24v0.01l28.89-16.68l0.25-0.14v-31.91l27.14,15.67v0.58
		l0.5-0.29l0.5,0.29v-0.58l27.64-15.95l28.64,16.53v-33.06l27.14-15.67v31.91l29.14,16.82v0l28.14,16.24v-33.07l26.24-15.15
		c0.36,0.36,0.85,0.58,1.39,0.58c1.08,0,1.96-0.88,1.96-1.96c0-1.08-0.88-1.96-1.96-1.96c-0.55,0-1.04,0.22-1.39,0.58l-26.24-15.15
		v-33.07l-28.89,16.68l-0.25,0.14v31.91l-27.14-15.67v-33.06l-27.24,15.73c-0.24-0.24-0.55-0.42-0.89-0.51v-30.89l-29.14-16.82
		v32.49l-28.14-16.24v33.64l27.64,15.95l-27.13,15.66l-28.64-16.53v33.07l-27.14,15.67v-63.82l27.89-16.1l0.25-0.14v-33.64
		l-27.24,15.73c-0.36-0.36-0.85-0.58-1.39-0.58c-1.08,0-1.96,0.88-1.96,1.96c0,0.91,0.62,1.67,1.46,1.89v30.31l-27.89,16.1
		l-0.25,0.14v31.91l-27.14-15.67v-30.31c0.84-0.22,1.46-0.98,1.46-1.89c0-0.18-0.03-0.35-0.08-0.51l26.5-15.3l0.25-0.14v-33.64
		l-28.64,16.53l-28.14-16.24l-28.14,16.24l-28.14-16.24l-27.64,15.96v-29.73c0.84-0.22,1.46-0.98,1.46-1.89
		c0-1.08-0.88-1.96-1.96-1.96C155.11,382.52,154.23,383.4,154.23,384.48z M128.56,401.02l26.24-15.15c0.24,0.24,0.55,0.42,0.89,0.51
		v30.31l-0.5,0.29l0,0l-26.64,15.38V401.02z M183.83,464.84l-27.14-15.67v-31.33l27.14,15.67V464.84z M155.69,449.17l-27.14,15.67
		V433.5l27.14-15.67V449.17z M128.56,465.99l27.14-15.67v31.33l-27.14,15.67V465.99z M100.38,513.56v-30.09
		c0.84-0.22,1.46-0.98,1.46-1.89c0-0.06-0.01-0.12-0.02-0.18l25.69-14.83v31.33L100.38,513.56z M155.65,546.05l-27.14-15.67v-31.33
		l27.14,15.67V546.05z M183.83,496.3c-0.34,0.09-0.65,0.26-0.89,0.51l-26.24-15.15v-31.33l27.14,15.67V496.3z M240.6,466.28
		l27.14,15.67l-12.33,7.12l-14.81,8.55l-27.14-15.67l12.33-7.12L240.6,466.28z M268.24,512.55c-0.34,0.09-0.65,0.26-0.89,0.51
		l-25.74-14.86l26.64-15.38V512.55z M241.1,499.06l25.75,14.87c-0.04,0.16-0.08,0.33-0.08,0.51c0,0.18,0.03,0.35,0.08,0.51
		l-25.75,14.87V499.06z M241.1,465.41v-31.33l25.75,14.87c-0.04,0.16-0.08,0.33-0.08,0.51c0,0.91,0.62,1.67,1.46,1.89v29.73
		L241.1,465.41z M268.24,447.57c-0.34,0.09-0.65,0.27-0.89,0.51l-25.74-14.86l26.64-15.38V447.57z M212.97,449.75l27.14-15.67v31.33
		l-27.14,15.67V449.75z M211.97,546.63l-27.14,15.67v-31.33l27.14-15.67V546.63z M212.97,514.15v-31.33l27.14,15.67v31.33
		L212.97,514.15z M241.6,530.68l25.74-14.86c0.24,0.24,0.55,0.42,0.89,0.51v29.73L241.6,530.68z M297.38,562.29v-31.33l27.14-15.67
		v31.32L297.38,562.29z M381.78,513.57v-31.33l27.14-15.67v31.33L381.78,513.57z M437.06,513.57l-27.14-15.67v-31.33l13.57,7.83
		l13.57,7.83V513.57z M409.92,434.09l13.57,7.83l12.18,7.03c-0.04,0.16-0.08,0.33-0.08,0.51c0,0.91,0.62,1.67,1.46,1.89v29.73
		l-13.57-7.83l-13.57-7.83V434.09z M466.19,466.57l27.14,15.67v31.33l-27.14-15.67V466.57z M521.46,529.82l-27.14-15.67v-31.33
		l27.14,15.67V529.82z M548.21,482.46l-26.25,15.15l-27.14-15.67l12.33-7.12l14.81-8.55l26.25,15.15c-0.04,0.16-0.08,0.33-0.08,0.51
		S548.17,482.3,548.21,482.46z M494.33,449.75l27.14-15.67v31.33l-27.14,15.67V449.75z M465.19,434.09v31.33l-27.14,15.67v-29.73
		c0.84-0.22,1.46-0.98,1.46-1.89c0-0.18-0.03-0.35-0.08-0.51L465.19,434.09z M409.92,401.6l27.14,15.67v30.31
		c-0.34,0.09-0.65,0.26-0.89,0.51l-12.67-7.32l-13.57-7.83V401.6z M381.78,417.84l27.14,15.67v31.33l-27.14-15.67V417.84z
		 M353.65,466.57l27.14,15.67v31.33l-27.14-15.67V466.57z M352.65,499.06v31.33l-27.14,15.67v-31.33L352.65,499.06z M297.38,529.8
		v-31.32l27.14-15.67v31.32L297.38,529.8z M352.65,401.59v31.33l-27.14,15.67v-29.73c0.84-0.22,1.46-0.98,1.46-1.89
		c0-0.18-0.03-0.35-0.08-0.51L352.65,401.59z M297.38,465.99l27.14-15.67v31.33l-27.14,15.67V465.99z M296.38,529.81l-25.75-14.86
		c0.04-0.16,0.08-0.33,0.08-0.51c0-0.91-0.62-1.67-1.46-1.89v-29.73l27.14,15.67V529.81z M296.38,432.93l-26.24,15.15
		c-0.24-0.24-0.55-0.42-0.89-0.51v-30.31l27.14-15.67V432.93z M240.6,401.3l27.14,15.67l-26.64,15.38v0l-0.5,0.29l-0.5-0.29v0
		l-26.64-15.38L240.6,401.3z M211.47,416.97l-27.14,15.67l-27.14-15.67l27.14-15.67L211.47,416.97z"/>
</g>
</svg>
