<?xml version="1.0" encoding="utf-8"?>
<!-- Generator: Adobe Illustrator 27.2.0, SVG Export Plug-In . SVG Version: 6.00 Build 0)  -->
<svg version="1.1" id="Ñëîé_1" xmlns="http://www.w3.org/2000/svg" xmlns:xlink="http://www.w3.org/1999/xlink" x="0px" y="0px"
	 viewBox="0 0 2500 2000" style="enable-background:new 0 0 2500 2000;" xml:space="preserve">
<style type="text/css">
	.st0{fill:#D4E8FF;}
	.st1{fill:#DCE6FF;}
	.st2{fill:#EEF7FF;}
	.st3{fill:#CFDDF9;}
	.st4{fill:#EB5648;}
	.st5{fill:#255084;}
	.st6{fill:#1D3F70;}
	.st7{fill:#A9BFF7;}
	.st8{fill:#CE4ABF;}
	.st9{fill:#D9E4F9;}
	.st10{fill:#FFFFFF;}
	.st11{fill:#397CAA;}
	.st12{fill:#FF7B7B;}
	.st13{fill:#2E6999;}
	.st14{fill:#FF6666;}
	.st15{fill:#285989;}
	.st16{fill:#F95C58;}
	.st17{fill:#1F4777;}
	.st18{fill:#103663;}
	.st19{fill:#CE3932;}
	.st20{fill:#667ECC;}
	.st21{fill:#A523A2;}
	.st22{fill:#7689D6;}
	.st23{fill:#662948;}
	.st24{fill:#3A72AA;}
	.st25{fill:#F99370;}
	.st26{fill:#E8C0A6;}
	.st27{fill:#395B96;}
	.st28{fill:#23659B;}
	.st29{fill:#163260;}
	.st30{fill:#234270;}
	.st31{fill:#0B274F;}
	.st32{fill:#F4D4BE;}
	.st33{fill:#E57D61;}
	.st34{fill:#C16256;}
	.st35{fill:#0F2E54;}
	.st36{fill:#163356;}
	.st37{fill:#8E4A35;}
	.st38{fill:#F9F8F3;}
</style>
<g id="_x31_2">
	<path class="st0" d="M551.96,1587.15c0,0-253.83-637.93-71.17-779.98c122.1-94.95,251.51,114.36,405.98,3.63
		c137.52-98.58-54.21-346.91,175.25-411.88c241.18-68.28,438.76,484.7,641.13,408.25c245.56-92.78,489.82,95.56,278.73,781.2
		L551.96,1587.15z"/>
	<path class="st1" d="M353.35,1430.12c-4.26-11.54-8.48-23.5-12.53-35.54l9.99-2.63c4.03,11.97,8.22,23.85,12.45,35.31
		L353.35,1430.12z M2140.5,1415.21l-10.34-1.13c1.72-12.29,3.35-24.66,4.85-36.78l10.36,1
		C2143.86,1390.47,2142.23,1402.88,2140.5,1415.21z M329.31,1358.77c-3.65-11.9-7.19-24.03-10.52-36.04l10.12-2.19
		c3.31,11.94,6.83,23.99,10.45,35.82L329.31,1358.77z M2149.63,1341.35l-10.38-0.87c1.32-12.34,2.54-24.74,3.63-36.88l10.39,0.73
		C2152.18,1316.51,2150.96,1328.96,2149.63,1341.35z M309.27,1286.48c-3.01-12.13-5.87-24.39-8.51-36.45l10.23-1.75
		c2.62,11.98,5.47,24.17,8.46,36.22L309.27,1286.48z M2156.27,1267.26l-10.4-0.58c0.88-12.33,1.66-24.76,2.3-36.96l10.41,0.43
		C2157.93,1242.4,2157.16,1254.88,2156.27,1267.26z M293.29,1213.41c-2.32-12.28-4.46-24.65-6.38-36.79l10.32-1.27
		c1.9,12.06,4.03,24.35,6.33,36.55L293.29,1213.41z M2160.17,1193.01l-10.42-0.27c0.41-12.38,0.69-24.83,0.83-37l10.42,0.1
		C2160.86,1168.06,2160.58,1180.57,2160.17,1193.01z M281.69,1139.68c-1.55-12.4-2.91-24.87-4.02-37.06l10.39-0.74
		c1.11,12.1,2.45,24.48,3.99,36.79L281.69,1139.68z M2150.63,1118.74c-0.12-12.39-0.39-24.83-0.79-36.99l10.42-0.27
		c0.4,12.21,0.67,24.72,0.8,37.17L2150.63,1118.74z M274.93,1065.46c-0.69-12.47-1.15-24.99-1.36-37.22l10.42-0.14
		c0.21,12.12,0.67,24.54,1.35,36.91L274.93,1065.46z M2148.16,1044.81c-0.72-12.37-1.6-24.79-2.61-36.9l10.39-0.68
		c1.03,12.18,1.91,24.67,2.63,37.12L2148.16,1044.81z M284.09,991.17l-10.42-0.19c0.29-12.5,0.85-25.03,1.66-37.23l10.4,0.54
		C284.93,966.38,284.38,978.78,284.09,991.17z M2141.93,971.07c-1.39-12.37-2.97-24.73-4.69-36.73l10.34-1.16
		c1.73,12.08,3.31,24.52,4.72,36.97L2141.93,971.07z M289.04,917.52l-10.37-0.92c1.42-12.46,3.14-24.91,5.13-37.01l10.31,1.32
		C292.15,892.88,290.44,905.2,289.04,917.52z M2131.41,897.76c-2.17-12.29-4.55-24.54-7.07-36.4l10.24-1.7
		c2.55,11.96,4.95,24.3,7.13,36.69L2131.41,897.76z M898.8,896.46c-14.48-2.02-24.96-7.85-39.47-17.91l6.59-7.14
		c12.71,8.79,21.89,14.07,33.99,15.89L898.8,896.46z M934.96,874.54l-9.28-4.19c4.77-8.26,8.99-19.72,12.54-34.06l10.18,1.97
		C944.6,853.58,940.21,865.45,934.96,874.54z M828.74,852.13c-8.3-8.17-17.18-17.58-27.12-28.75l8.19-5.7
		c9.81,11.02,18.54,20.27,26.69,28.3L828.74,852.13z M301.08,844.57l-10.23-1.76c2.7-12.3,5.75-24.56,9.08-36.44l10.12,2.21
		C306.76,820.32,303.74,832.43,301.08,844.57z M2115.91,825.19c-3.09-12.17-6.42-24.23-9.9-35.85l10.08-2.36
		c3.51,11.73,6.87,23.91,9.99,36.19L2115.91,825.19z M955.41,801.18L945.07,800c1.6-11,3.04-23.04,4.39-36.81l10.38,0.8
		C958.47,777.89,957.02,790.05,955.41,801.18z M776.09,793.69c-8.47-10.11-17.26-20.8-24.83-30.03l8.44-5.41
		c7.56,9.21,16.33,19.88,24.77,29.96L776.09,793.69z M1539.12,792.93c-8.12,0-16.08-2.14-23.67-6.37l5.56-7.79
		c11.4,6.36,22.62,6.38,34.72,1.3l4.48,8.32C1553.06,791.4,1545.96,792.93,1539.12,792.93z M321.13,773.08l-9.97-2.69
		c4.14-11.97,8.68-23.87,13.5-35.38l9.77,3.2C329.69,749.55,325.21,761.28,321.13,773.08z M1594.3,764.3l-7.66-6.25
		c7.9-7.57,16.37-16.9,25.9-28.53l8.44,5.4C1611.21,746.86,1602.49,756.47,1594.3,764.3z M1485.82,757.97
		c-6.74-9.2-13.43-20.03-20.43-33.11l9.42-3.94c6.81,12.71,13.27,23.19,19.76,32.04L1485.82,757.97z M2094.5,753.89
		c-4.2-11.94-8.68-23.69-13.32-34.92l9.79-3.16c4.69,11.38,9.23,23.27,13.48,35.35L2094.5,753.89z M726.56,733.63
		c-9.54-11.52-17.48-20.98-25.01-29.76l8.31-5.56c7.56,8.83,15.54,18.32,25.11,29.88L726.56,733.63z M962.97,726.78l-10.4-0.59
		c0.79-10.79,1.59-22.92,2.46-37.09l10.41,0.5C964.57,703.79,963.77,715.95,962.97,726.78z M350.06,704.1l-9.53-3.72
		c5.72-11.45,11.82-22.7,18.3-33.7l9.24,4.26C361.69,681.76,355.69,692.83,350.06,704.1z M1644.86,704.1l-8.71-5.06
		c7.41-9.95,15.06-20.5,22.8-31.15l8.77,4.98C1659.96,683.55,1652.3,694.1,1644.86,704.1z M1448.61,690.48
		c-4.72-10.47-9.6-21.89-14.91-34.91l9.8-3.13c5.28,12.93,10.11,24.25,14.79,34.62L1448.61,690.48z M2065.85,684.73
		c-5.6-11.54-11.53-22.74-17.62-33.31l9.29-4.18c6.19,10.74,12.21,22.13,17.91,33.85L2065.85,684.73z M675.82,674.68
		c-9.46-10.38-18.26-19.61-26.91-28.23l7.8-6.11c8.76,8.73,17.67,18.08,27.23,28.57L675.82,674.68z M967.61,652.43l-10.41-0.46
		c0.7-12.31,1.4-24.62,2.14-37.15l10.41,0.48C969,627.82,968.31,640.13,967.61,652.43z M1690.57,641.75l-8.69-5.08
		c8.71-11.65,16.5-21.72,23.81-30.8l8.49,5.34C1706.93,620.21,1699.21,630.2,1690.57,641.75z M388.74,639.15l-8.78-4.96
		c8.19-11.34,16.63-21.58,25.1-30.43l7.96,5.94C404.85,618.25,396.68,628.16,388.74,639.15z M1419.78,620.41
		c-4.78-12.38-9.47-24.77-13.43-35.25l9.89-2.91c3.95,10.47,8.63,22.84,13.4,35.19L1419.78,620.41z M620.25,619.77
		c-10.65-9.17-21.13-17.27-31.13-24.07l6.36-7.3c10.32,7.02,21.11,15.36,32.05,24.77L620.25,619.77z M2028,619.37
		c-7.47-10.77-15.3-20.96-23.27-30.28l8.31-5.56c8.18,9.56,16.2,20,23.85,31.02L2028,619.37z M442.24,584.64l-6.32-7.32
		c12.45-8.39,25.4-14.44,38.5-17.99l3.05,8.81C465.56,571.36,453.71,576.91,442.24,584.64z M1739.31,581.82l-8.1-5.8
		c9.77-10.66,19.04-19.83,28.31-28.04l7.37,6.51C1757.88,562.47,1748.86,571.42,1739.31,581.82z M972.08,578.2l-10.4-0.55
		c0.9-13.39,1.8-25.55,2.74-37.18l10.4,0.66C973.88,552.72,972.98,564.85,972.08,578.2z M554.66,576.27
		c-13.01-5.72-25.8-9.37-38.02-10.85l1.41-9.13c13.35,1.62,27.23,5.56,41.25,11.73L554.66,576.27z M1977.92,561.38
		c-10.03-9.09-20.42-17.11-30.88-23.84l6.14-7.45c10.93,7.03,21.76,15.39,32.2,24.85L1977.92,561.38z M1393.06,549.91
		c-5.18-13.71-9.46-24.88-13.45-35.17l9.86-2.99c4,10.31,8.28,21.51,13.47,35.24L1393.06,549.91z M1798.09,530.98l-5.97-7.55
		c12.82-7.93,25.76-13.8,38.48-17.45l3.22,8.76C1822.09,518.11,1810.07,523.57,1798.09,530.98z M1911.81,519.69
		c-12.91-4.81-25.97-7.79-38.83-8.85l0.97-9.17c13.92,1.15,28.03,4.36,41.92,9.54L1911.81,519.69z M978.15,504.15l-10.38-0.81
		c1.3-12.93,2.71-25.41,4.2-37.1l10.36,1.03C980.84,478.89,979.44,491.3,978.15,504.15z M1365.75,479.7
		c-5.04-12.43-9.78-23.78-14.51-34.72l9.74-3.29c4.75,11,9.52,22.42,14.58,34.9L1365.75,479.7z M987.63,430.53l-10.32-1.32
		c2.11-12.9,4.43-25.3,6.89-36.87l10.24,1.7C992.01,405.48,989.72,417.76,987.63,430.53z M1335.76,410.58
		c-5.6-11.91-11.24-23.3-16.78-33.86l9.46-3.87c5.59,10.67,11.29,22.18,16.95,34.19L1335.76,410.58z M1003.29,358l-10.11-2.23
		c3.64-12.86,7.64-24.98,11.91-36.02l9.86,2.98C1010.78,333.52,1006.86,345.38,1003.29,358z M1300.47,343.66
		c-6.85-11.41-13.86-22.12-20.81-31.84l8.81-4.93c7.1,9.91,14.23,20.83,21.21,32.45L1300.47,343.66z M1030.61,288.98l-9.35-4.08
		c6.84-12.26,14.43-23.09,22.56-32.21l8.19,5.7C1044.33,267,1037.13,277.3,1030.61,288.98z M1255.77,281.94
		c-9.11-10.09-18.51-19.03-27.94-26.57l6.99-6.83c9.85,7.87,19.64,17.18,29.09,27.66L1255.77,281.94z M1081.08,234.51l-5.62-7.76
		c12.35-6.98,25.95-11.53,40.43-13.5l1.59,9.1C1104.44,224.14,1092.2,228.22,1081.08,234.51z M1194.95,234.51
		c-12.14-5.79-24.79-9.74-37.59-11.76l1.83-9.07c13.89,2.19,27.59,6.47,40.71,12.72L1194.95,234.51z"/>
	<path class="st2" d="M2206.55,1351.26c-86.49-14.05-72.37,112.9-195.66,112.9c-112.72,0-148.78-483.46-230.79-345.26
		c-420.43,708.5-176.3-301.3-510.66-314.13c-151.19-5.8-251.94,170.91-289.09,483.78c-53.85,282.85-178.75-215.73-307.27-169.38
		c-81.69,29.46-45.57,377.18-180.2,371.8c-123.2-4.92-114.01-153.77-200.5-139.72c-93.12,15.13-120.93,239.83-120.93,239.83h2156.03
		C2327.48,1591.09,2299.67,1366.39,2206.55,1351.26z"/>
	<path class="st1" d="M2129.96,1488.68c-79.57-6-66.58,48.21-180,48.21c-103.7,0-100.85-121.49-170.24-147.31
		c-127.79-47.55-233.14,193.11-282.68,72.33c-94.1-320.48-368.54-481.2-495.14,0c-49.54,120.78-165.4-94.73-282.68-72.33
		c-72.19,13.79-66.54,147.31-170.24,147.31c-113.42,0-100.43-54.21-180-48.21c-85.67,6.46-111.25,102.41-111.25,102.41h1983.49
		C2241.22,1591.09,2215.63,1495.14,2129.96,1488.68z"/>
	<path class="st3" d="M171.46,1591.09c0,0-12.67,53.23,49.99,65.77c85.71,17.15,587.99,38.92,465.76,73.15
		c-69,19.33,35.22,45.57,371.29,55.23s912.74-28.2,718.81-84.22s598.29,6.59,550.17-109.93H171.46z"/>
</g>
<path id="_x31_1" class="st4" d="M2009.46,817.79l42.83-66.94l-38.52-24.53c4.61-13.87,7.24-28.13,7.97-42.38l45.1-9.93
	l-17.16-77.55l-43.4,9.56c-7.12-15.02-16.59-29.05-28.3-41.47l25.29-39.53l-67.1-42.73l-25.29,39.53
	c-15.06-4.98-30.58-7.64-46.06-8.09l-9.01-40.74l-77.73,17.12l9.01,40.74c-13.85,6.91-26.8,15.84-38.36,26.68l-38.52-24.53
	l-42.83,66.94l38.52,24.53c-5.38,16.18-8.05,32.88-8.17,49.5l-43.4,9.56l17.16,77.55l45.1-9.93c6.68,12.62,15.08,24.45,25.11,35.1
	l-25.29,39.53l67.1,42.73l25.29-39.53c15.06,4.98,30.58,7.64,46.06,8.09l10.5,47.48l77.73-17.12l-10.5-47.48
	c13.85-6.91,26.8-15.84,38.36-26.68L2009.46,817.79z M1824.78,738.96c-83.17-46.28-13.37-172.33,70.09-127.16
	C1978.04,658.08,1908.24,784.13,1824.78,738.96z"/>
<g id="_x31_0">
	<rect x="1119.26" y="1430.59" class="st5" width="225.58" height="203.84"/>
	<rect x="1119.26" y="1310.95" class="st6" width="225.58" height="231.52"/>
	<path class="st6" d="M1577.69,1674.35H886.42c-13.88,0-25.12-11.22-25.12-25.07l0,0c0-13.84,11.25-25.07,25.12-25.07h691.27
		c13.88,0,25.12,11.22,25.12,25.07l0,0C1602.82,1663.13,1591.57,1674.35,1577.69,1674.35z"/>
	<path class="st5" d="M595.74,1458.24V719.13c0-28.13,22.8-50.93,50.93-50.93h1170.76c28.13,0,50.93,22.8,50.93,50.93v739.11
		c0,28.13-22.8,50.93-50.93,50.93H646.67C618.54,1509.17,595.74,1486.37,595.74,1458.24z"/>
	<ellipse class="st6" cx="1232.05" cy="1461.33" rx="26.67" ry="26.61"/>
	<polygon class="st7" points="1818.54,717.59 1818.54,920.94 1515.45,1377.31 645.57,1087.23 645.57,717.59 	"/>
	<path class="st8" d="M645.57,1087.23c0,0,175.02-159.88,352.46-62.36c177.45,97.52,209.46,293.07,447.32,273.48
		c244.13-20.11,81.45-345.06,373.18-377.4v480.12H645.57V1087.23z"/>
	<path class="st9" d="M645.57,717.59c0,0,44.49,185.63,327.5,141.68c258.98-40.22,245.78,233.41,415.17,243.23
		s219.2-186.25,281.64-254.96c62.44-68.71,148.65-56.98,148.65-56.98v-72.97H645.57z"/>
	<path class="st6" d="M1181.78,1126.75c-0.2,0-0.4-0.05-0.59-0.15L820,928.43c-0.6-0.33-0.81-1.08-0.49-1.67
		c0.33-0.6,1.08-0.81,1.67-0.49l361.2,198.17c0.6,0.33,0.81,1.08,0.49,1.67C1182.64,1126.52,1182.22,1126.75,1181.78,1126.75z"/>
	<rect x="987.75" y="1015.38" class="st6" width="13.44" height="13.41"/>
	<ellipse class="st6" cx="820.59" cy="927.35" rx="5.66" ry="5.65"/>
	<path class="st6" d="M1187.44,1125.52c0,3.12-2.53,5.65-5.66,5.65c-3.13,0-5.66-2.53-5.66-5.65c0-3.12,2.53-5.65,5.66-5.65
		C1184.91,1119.87,1187.44,1122.4,1187.44,1125.52z"/>
	<rect x="1438.64" y="1291.33" class="st6" width="13.44" height="13.41"/>
	<path class="st6" d="M1207.49,1319.17c-0.63,0-1.17-0.49-1.23-1.13c-0.06-0.68,0.45-1.27,1.13-1.33l483.3-39.83
		c0.71-0.06,1.27,0.45,1.33,1.13c0.06,0.68-0.45,1.27-1.13,1.33l-483.3,39.83C1207.56,1319.17,1207.53,1319.17,1207.49,1319.17z"/>
	<path class="st6" d="M1213.15,1317.94c0,3.12-2.53,5.65-5.66,5.65c-3.13,0-5.66-2.53-5.66-5.65c0-3.12,2.53-5.65,5.66-5.65
		C1210.62,1312.29,1213.15,1314.82,1213.15,1317.94z"/>
	<path class="st6" d="M1696.45,1278.11c0,3.12-2.53,5.65-5.66,5.65c-3.13,0-5.66-2.53-5.66-5.65s2.53-5.65,5.66-5.65
		C1693.92,1272.46,1696.45,1274.99,1696.45,1278.11z"/>
</g>
<g id="_x39__1_">
	<path class="st10" d="M1497.47,957.78h210.69c14.39,0,26.05,11.66,26.05,26.05v114.13c0,14.39-11.66,26.05-26.05,26.05h-210.69
		c-14.39,0-26.05-11.66-26.05-26.05V983.83C1471.42,969.44,1483.09,957.78,1497.47,957.78z"/>
	
		<rect x="1659.87" y="995.35" transform="matrix(-1.836970e-16 1 -1 -1.836970e-16 2693.1719 -664.4758)" class="st11" width="37.92" height="38"/>
	
		<rect x="1659.87" y="1048.43" transform="matrix(-1.836970e-16 1 -1 -1.836970e-16 2746.2568 -611.391)" class="st12" width="37.92" height="38"/>
	
		<rect x="1621.86" y="995.35" transform="matrix(-1.836970e-16 1 -1 -1.836970e-16 2655.1677 -626.4717)" class="st13" width="37.92" height="38"/>
	
		<rect x="1621.86" y="1048.43" transform="matrix(-1.836970e-16 1 -1 -1.836970e-16 2708.2527 -573.3868)" class="st14" width="37.92" height="38"/>
	
		<rect x="1583.86" y="995.35" transform="matrix(-1.836970e-16 1 -1 -1.836970e-16 2617.1636 -588.4674)" class="st15" width="37.92" height="38"/>
	
		<rect x="1583.86" y="1048.43" transform="matrix(-1.836970e-16 1 -1 -1.836970e-16 2670.2483 -535.3826)" class="st16" width="37.92" height="38"/>
	
		<rect x="1545.85" y="995.35" transform="matrix(-1.836970e-16 1 -1 -1.836970e-16 2579.1592 -550.4631)" class="st17" width="37.92" height="38"/>
	
		<rect x="1545.85" y="1048.43" transform="matrix(-1.836970e-16 1 -1 -1.836970e-16 2632.2441 -497.3783)" class="st4" width="37.92" height="38"/>
	
		<rect x="1507.85" y="995.35" transform="matrix(-1.836970e-16 1 -1 -1.836970e-16 2541.155 -512.4589)" class="st18" width="37.92" height="38"/>
	
		<rect x="1507.85" y="1048.43" transform="matrix(-1.836970e-16 1 -1 -1.836970e-16 2594.2397 -459.3741)" class="st19" width="37.92" height="38"/>
</g>
<g id="_x38_">
	<path class="st20" d="M1071.77,886.92H802.95c-10.96,0-19.84-8.88-19.84-19.84v-96.95c0-10.96,8.88-19.84,19.84-19.84h268.81
		c10.96,0,19.84,8.88,19.84,19.84v96.95C1091.61,878.04,1082.72,886.92,1071.77,886.92z"/>
	<rect x="808.58" y="793.42" class="st6" width="33.65" height="33.58"/>
	<rect x="825.41" y="810.21" class="st6" width="33.65" height="33.58"/>
	<rect x="877.61" y="793.42" class="st6" width="33.65" height="33.58"/>
	<rect x="894.43" y="810.21" class="st7" width="33.65" height="33.58"/>
	<polygon class="st7" points="980.29,793.42 980.29,810.21 963.46,810.21 963.46,827 946.63,827 946.63,793.42 	"/>
	<rect x="963.46" y="810.21" class="st6" width="16.83" height="16.79"/>
	<polygon class="st7" points="997.11,810.21 997.11,843.79 963.46,843.79 963.46,827 980.29,827 980.29,810.21 	"/>
	<polygon class="st6" points="1049.31,793.42 1049.31,810.21 1032.48,810.21 1032.48,827 1015.65,827 1015.65,793.42 	"/>
	<rect x="1032.48" y="810.21" class="st7" width="16.83" height="16.79"/>
	<polygon class="st6" points="1066.13,810.21 1066.13,843.79 1032.48,843.79 1032.48,827 1049.31,827 1049.31,810.21 	"/>
</g>
<g id="_x37_">
	<path class="st7" d="M989.83,1338.33h-93.48c-12.59,0-22.8-10.21-22.8-22.8v-93.15c0-12.59,10.21-22.8,22.8-22.8h93.48
		c12.59,0,22.8,10.21,22.8,22.8v93.15C1012.63,1328.12,1002.42,1338.33,989.83,1338.33z"/>
	<path class="st10" d="M977.55,1264.21v39.09h-39.23v-39.09H977.55L977.55,1264.21z M987.61,1254.15h-59.36v59.22h59.36V1254.15
		L987.61,1254.15z"/>
	<rect x="898.57" y="1224.54" class="st21" width="59.36" height="59.22"/>
	<path class="st4" d="M928.25,1314.91c-0.4,0-0.79-0.15-1.1-0.45c-0.6-0.61-0.6-1.59,0-2.19l59.36-59.22c0.61-0.6,1.59-0.6,2.19,0
		c0.6,0.61,0.6,1.59,0,2.19l-59.36,59.22C929.04,1314.76,928.65,1314.91,928.25,1314.91z"/>
</g>
<g id="_x36_">
	<path class="st20" d="M529.57,895.46V602.19c0-13.41,10.87-24.28,24.28-24.28h140.92c13.41,0,24.28,10.87,24.28,24.28v293.27
		c0,13.41-10.87,24.28-24.28,24.28H553.85C540.44,919.74,529.57,908.87,529.57,895.46z"/>
	<path class="st10" d="M692.94,874.57l-18.76-18.72c2.91-3.5,4.51-7.86,4.51-12.47c0-5.22-2.04-10.13-5.74-13.83
		c-7.64-7.62-20.06-7.62-27.7,0c-3.7,3.69-5.74,8.6-5.74,13.83c0,5.22,2.04,10.13,5.74,13.82c3.82,3.81,8.83,5.71,13.85,5.71
		c4.44,0,8.88-1.5,12.49-4.49l18.77,18.73L692.94,874.57z M647.82,854.62c-3.01-3-4.67-6.99-4.67-11.24c0-4.24,1.66-8.23,4.67-11.24
		c3.11-3.1,7.19-4.65,11.27-4.65c4.08,0,8.16,1.55,11.27,4.65c3.01,3,4.67,6.99,4.67,11.24c0,4.24-1.66,8.23-4.67,11.24
		C664.15,860.82,654.03,860.82,647.82,854.62z"/>
	<path class="st10" d="M666.49,741.28c-6.07,0-12.13-2.3-16.75-6.91c-4.48-4.46-6.94-10.4-6.94-16.72c0-6.31,2.46-12.25,6.94-16.72
		c9.24-9.21,24.26-9.21,33.5,0l0,0c4.48,4.46,6.94,10.4,6.94,16.72c0,6.32-2.46,12.25-6.94,16.72
		C678.62,738.97,672.55,741.28,666.49,741.28z M666.49,697.68c-5.13,0-10.26,1.95-14.17,5.85c-3.78,3.77-5.87,8.79-5.87,14.13
		c0,5.34,2.08,10.35,5.87,14.13c7.81,7.79,20.52,7.79,28.33,0c3.78-3.77,5.87-8.79,5.87-14.13c0-5.34-2.08-10.35-5.87-14.13l0,0
		C676.75,699.62,671.62,697.68,666.49,697.68z"/>
	
		<rect x="641.81" y="782.38" transform="matrix(0.7079 -0.7063 0.7063 0.7079 -359.213 699.7961)" class="st10" width="49.35" height="3.66"/>
	<path class="st10" d="M562.99,628.96l30.83,20.54l-17.33-1.54c-0.11-0.01-0.22-0.01-0.33-0.01c-1.42,0-2.72,0.82-3.32,2.13
		l-7.28,15.8L562.99,628.96L562.99,628.96z M558.82,621.79l4.09,58.6l13.25-28.79l31.63,2.81L558.82,621.79L558.82,621.79z"/>
	<polygon class="st10" points="642,621.79 646.09,680.39 659.34,651.61 690.97,654.42 	"/>
	<polygon class="st10" points="562.98,764.66 562.98,773.95 566.64,773.95 566.64,768.31 581.48,768.31 581.48,800.1 575.92,800.1 
		575.92,803.76 590.69,803.76 590.69,800.1 585.13,800.1 585.13,768.31 599.97,768.31 599.97,773.95 603.62,773.95 603.62,764.66 	
		"/>
	
		<rect x="549.76" y="725.44" transform="matrix(0.7079 -0.7063 0.7063 0.7079 -345.8851 618.1671)" class="st10" width="49.36" height="3.66"/>
	<path class="st10" d="M587.16,702.41c-4.91,0-8.88,3.97-8.88,8.86c0-4.89-3.97-8.86-8.88-8.86c4.91,0,8.88-3.97,8.88-8.86
		C578.27,698.45,582.25,702.41,587.16,702.41z"/>
	<path class="st10" d="M604.61,697.28c-3.7,0-6.7,2.99-6.7,6.68c0-3.69-3-6.68-6.7-6.68c3.7,0,6.7-2.99,6.7-6.68
		C597.91,694.29,600.9,697.28,604.61,697.28z"/>
	<path class="st10" d="M609.64,713.84c-3.7,0-6.7,2.99-6.7,6.68c0-3.69-3-6.68-6.7-6.68c3.7,0,6.7-2.99,6.7-6.68
		C602.94,710.85,605.94,713.84,609.64,713.84z"/>
	<path class="st10" d="M606.65,827.51c-1.6-1.59-4.19-1.6-5.78,0l-4.6,4.58l-1.7-1.7c-1.6-1.59-4.19-1.6-5.78,0v0
		c-1.33,1.32-1.54,3.32-0.66,4.88l-28.94,28.83c-1.44,1.43-2.23,3.34-2.23,5.36c0,2.03,0.79,3.93,2.22,5.37
		c1.48,1.48,3.43,2.22,5.38,2.22c1.94,0,3.89-0.74,5.37-2.21l28.95-28.84c1.56,0.87,3.56,0.67,4.89-0.65c1.6-1.59,1.6-4.18,0-5.77
		l-1.7-1.7l4.6-4.58C608.24,831.69,608.24,829.11,606.65,827.51z M567.32,872.24c-1.54,1.53-4.04,1.53-5.58,0
		c-0.74-0.74-1.15-1.73-1.15-2.78c0-1.05,0.41-2.03,1.15-2.78l28.83-28.72l5.57,5.56L567.32,872.24z"/>
</g>
<g id="_x35_">
	<path class="st20" d="M1235.36,604.8H813.29c-12.36,0-22.37-10.02-22.37-22.37v-70.05c0-12.36,10.02-22.37,22.37-22.37h422.06
		c12.36,0,22.37,10.02,22.37,22.37v70.05C1257.73,594.78,1247.71,604.8,1235.36,604.8z"/>
	<rect x="819.75" y="524.65" class="st10" width="4.13" height="49.65"/>
	<rect x="827" y="530.39" class="st10" width="24.4" height="14.07"/>
	<rect x="827" y="548.63" class="st10" width="33.4" height="14.07"/>
	<rect x="1002.67" y="524.65" class="st10" width="4.13" height="49.65"/>
	
		<rect x="975.16" y="530.39" transform="matrix(-1 -1.224647e-16 1.224647e-16 -1 1974.7106 1074.8558)" class="st10" width="24.4" height="14.07"/>
	
		<rect x="966.16" y="548.63" transform="matrix(-1 -1.224647e-16 1.224647e-16 -1 1965.71 1111.3354)" class="st10" width="33.4" height="14.07"/>
	<rect x="911.21" y="524.65" class="st10" width="4.13" height="49.65"/>
	<rect x="898.45" y="530.39" class="st10" width="29.65" height="14.07"/>
	<rect x="892.98" y="548.63" class="st10" width="40.6" height="14.07"/>
	<rect x="1104.9" y="547.4" class="st10" width="49.76" height="4.13"/>
	
		<rect x="1127.06" y="542.41" transform="matrix(-1.836970e-16 1 -1 -1.836970e-16 1691.3209 -592.3848)" class="st10" width="29.59" height="14.11"/>
	
		<rect x="1103.32" y="542.41" transform="matrix(-1.836970e-16 1 -1 -1.836970e-16 1673.0387 -574.1025)" class="st10" width="40.5" height="14.11"/>
	<rect x="1032.74" y="524.62" class="st10" width="49.76" height="4.13"/>
	
		<rect x="1051.96" y="539.49" transform="matrix(-1.836970e-16 1 -1 -1.836970e-16 1613.3042 -520.2087)" class="st10" width="29.59" height="14.11"/>
	
		<rect x="1028.22" y="544.95" transform="matrix(-1.836970e-16 1 -1 -1.836970e-16 1600.4796 -496.4689)" class="st10" width="40.5" height="14.11"/>
	<rect x="1177.07" y="570.19" class="st10" width="49.76" height="4.13"/>
	
		<rect x="1196.3" y="545.33" transform="matrix(6.123234e-17 -1 1 6.123234e-17 658.7067 1763.4834)" class="st10" width="29.59" height="14.11"/>
	
		<rect x="1172.56" y="539.88" transform="matrix(6.123234e-17 -1 1 6.123234e-17 645.8821 1739.7435)" class="st10" width="40.5" height="14.11"/>
</g>
<path id="_x34_" class="st8" d="M745.72,462.99l5.4-27.74l-21.3-4.13c0.07-4.49-0.23-8.92-0.91-13.27l20.49-7.04l-9.23-26.72
	l-20.52,7.05c-2.17-3.87-4.66-7.55-7.45-11.01l14.23-16.34l-21.38-18.54l-14.22,16.32c-3.78-2.25-7.79-4.19-11.99-5.81l4.14-21.25
	l-27.81-5.39l-4.14,21.25c-4.5-0.07-8.94,0.23-13.3,0.91l-7.06-20.44l-26.78,9.2l7.07,20.47c-3.88,2.17-7.57,4.65-11.04,7.43
	l-16.38-14.2l-18.58,21.33l16.36,14.18c-2.25,3.77-4.2,7.77-5.82,11.96l-21.3-4.13l-5.4,27.74l21.3,4.13
	c-0.07,4.49,0.23,8.92,0.91,13.26l-20.49,7.04l9.23,26.72l20.52-7.05c2.17,3.87,4.66,7.55,7.45,11.01l-14.23,16.34l21.38,18.54
	l14.22-16.32c3.78,2.25,7.79,4.19,11.99,5.81l-4.14,21.25l27.81,5.39l4.14-21.25c4.5,0.07,8.94-0.23,13.3-0.91l7.06,20.44l26.78-9.2
	l-7.07-20.47c3.88-2.17,7.57-4.65,11.04-7.43l16.38,14.2L734.96,485l-16.36-14.18c2.25-3.77,4.2-7.77,5.82-11.96L745.72,462.99z
	 M642.36,469.15c-51.36-10.86-36.46-87.33,15.23-78.22C708.95,401.79,694.05,478.26,642.36,469.15z"/>
<path id="_x33_" class="st22" d="M2068.48,1047.88l3.71-19.08l-14.65-2.84c0.05-3.09-0.16-6.14-0.62-9.12l14.09-4.84l-6.35-18.38
	l-14.11,4.85c-1.49-2.66-3.21-5.2-5.12-7.58l9.79-11.24l-14.71-12.75l-9.78,11.22c-2.6-1.55-5.36-2.88-8.25-3.99l2.85-14.61
	l-19.12-3.71l-2.85,14.61c-3.09-0.05-6.15,0.16-9.14,0.62l-4.85-14.06l-18.42,6.33l4.86,14.08c-2.67,1.49-5.21,3.2-7.59,5.11
	l-11.27-9.77l-12.78,14.67l11.25,9.75c-1.55,2.6-2.89,5.35-4,8.23l-14.65-2.84l-3.71,19.08l14.65,2.84
	c-0.05,3.09,0.16,6.14,0.62,9.12l-14.09,4.84l6.35,18.38l14.11-4.85c1.49,2.66,3.21,5.2,5.12,7.58l-9.79,11.24l14.71,12.75
	l9.78-11.22c2.6,1.55,5.36,2.88,8.25,3.99l-2.85,14.61l19.12,3.71l2.85-14.61c3.09,0.05,6.15-0.16,9.14-0.62l4.85,14.06l18.42-6.33
	l-4.86-14.08c2.67-1.49,5.21-3.2,7.59-5.11l11.27,9.77l12.78-14.67l-11.25-9.75c1.55-2.6,2.89-5.35,4-8.23L2068.48,1047.88z
	 M1997.39,1052.12c-35.32-7.47-25.08-60.07,10.48-53.8C2043.19,1005.79,2032.94,1058.39,1997.39,1052.12z"/>
<g id="_x32__18_">
	<path class="st23" d="M1484.89,321.95c0,0,10.31-19.49,41.2-13.47c30.9,6.02,37.89,45.25,48.26,63.16
		c21.95,37.94,28.3,78.13,16.59,97.32c-13,21.31-41.28,12.72-82.65,8.56c-44.14-4.44-62.35-42.84-34.46-95.22L1484.89,321.95z"/>
	<path class="st24" d="M1497.02,412.99c-12.24,17.61-20.64,103.85-20.95,110.56c-14.23-1.16-48.41-3.95-62.98-5.14
		c-3.87-31.63,38.62-96.09,76.98-103.47c0-0.01,0-0.01,0-0.01C1494.4,413.5,1497.02,412.99,1497.02,412.99z"/>
	<path class="st25" d="M1313.85,887.41l61.53-0.2c-0.08-9.81-2.55-29.64-0.51-40.82c0,0-26.59,3.21-26.59,3.21
		c0.69,5.38,2.24,17.06-6.73,19.78c-11.62,3.53-24.23,2.32-31.54,11.16C1308.12,883.52,1310.32,887.43,1313.85,887.41z"/>
	<path class="st6" d="M1377.17,881.3c-0.24,2.08-0.81,4.1-1.85,5.92l-62.13,0.2c-3.02,0.01-5.22-2.95-4.22-5.8
		c2.34-6.65,10.07-16.3,38.7-17.88c0,0,10.47,1.75,26.48-1.2C1374.14,862.54,1378.17,872.88,1377.17,881.3z"/>
	<path class="st26" d="M1327.31,879.37c-0.49,0-0.96-0.3-1.16-0.78c-2.29-5.6-6.41-7.3-6.58-7.37c-3.26-5.03,6.12-1.47,8.91,6.42
		C1328.84,878.45,1328.19,879.4,1327.31,879.37z"/>
	<path class="st26" d="M1337.09,878.16c-0.53,0-1.02-0.35-1.19-0.88c-2.03-6.48-7.71-9.47-7.77-9.49
		c-2.96-5.85,7.93,0.39,10.17,8.74C1338.57,877.33,1337.93,878.18,1337.09,878.16z"/>
	<path class="st26" d="M1348.22,876.76c-0.52,0-1-0.33-1.18-0.84c-2.37-6.73-7.81-10.39-7.87-10.42c-2.28-6.13,7.61,1.28,10.24,9.59
		C1349.71,875.89,1349.07,876.79,1348.22,876.76z"/>
	<path class="st27" d="M1309.07,881.52l68.17-0.22c-0.24,2.08-0.81,4.1-1.85,5.92l-62.13,0.2
		C1310.19,887.43,1307.99,884.38,1309.07,881.52z"/>
	<path class="st4" d="M1510.6,654.58c-30.27-1.51-82.9-18.56-105.95,19.7c-25.24,41.79-19.84,130.89-17.66,173.95
		c-33.33,10.42-51.12-0.4-51.12-0.4c-13.47-88.21-58.55-289.25,97.21-260.19c0-0.01,104.6,0.81,104.6,0.81
		C1554.9,624.16,1539.02,654.2,1510.6,654.58z"/>
	<path class="st25" d="M1387.63,887.99l61.53-0.19c-0.08-9.81-2.55-29.64-0.51-40.82c0,0-26.59,3.22-26.59,3.22
		c0.69,5.38,2.45,17.06-6.73,19.78c-11.64,3.45-24.23,2.32-31.54,11.16C1381.91,884.09,1384.1,888,1387.63,887.99z"/>
	<path class="st6" d="M1451.02,881.87c-0.24,2.08-0.81,4.1-1.85,5.92l-62.13,0.2c-3.02,0.01-5.22-2.95-4.22-5.8
		c2.34-6.65,10.16-16.46,38.8-18.05c0,0,10.31,2.05,26.32-0.9C1447.93,863.25,1452.02,873.45,1451.02,881.87z"/>
	<path class="st26" d="M1401.09,879.94c-0.49,0-0.96-0.3-1.16-0.78c-2.29-5.6-6.41-7.3-6.58-7.37c-3.26-5.03,6.12-1.47,8.91,6.42
		C1402.62,879.02,1401.97,879.97,1401.09,879.94z"/>
	<path class="st26" d="M1410.87,878.74c-0.53,0-1.02-0.35-1.19-0.88c-2.03-6.48-7.71-9.47-7.77-9.49
		c-2.96-5.85,7.93,0.39,10.17,8.74C1412.35,877.9,1411.71,878.75,1410.87,878.74z"/>
	<path class="st26" d="M1422,877.34c-0.52,0-1-0.33-1.18-0.84c-2.37-6.73-7.81-10.39-7.87-10.42c-2.28-6.13,7.61,1.28,10.24,9.59
		C1423.5,876.46,1422.85,877.36,1422,877.34z"/>
	<path class="st27" d="M1382.85,882.09l68.17-0.22c-0.24,2.08-0.81,4.1-1.85,5.92l-62.13,0.2
		C1383.97,888,1381.77,884.95,1382.85,882.09z"/>
	<path class="st19" d="M1441.6,587.7l-9.46,64.99c-39.23,15.06-42.37,56.1-46.3,102.29C1368.29,683.43,1370.43,611.27,1441.6,587.7z
		"/>
	<path class="st4" d="M1559.43,661.11c-33.4,16.39-72.77-5.48-95.41,39.24c-18.3,39.17-8.8,114.35-4.12,148.44
		c-33.33,10.42-51.12-0.4-51.12-0.4c-19.12-76.15-62.82-253.12,64.64-260.45c34.89-0.84,80.73-0.18,111.57-1.79
		C1585,586.16,1600.73,640.85,1559.43,661.11z"/>
	<path class="st28" d="M1442.99,496.79c-0.61,0-1.1-0.54-1.03-1.14c2.22-17.23,20.7-39.44,23.1-38.23
		c1.62,2.12-19.64,20.47-21.02,38.42C1443.99,496.39,1443.53,496.8,1442.99,496.79z"/>
	<path class="st24" d="M1585.76,568.19c2.55,19.27,1.14,27.4,1.14,27.4c-51.42,5.97-83.82,6.02-146.31-3.19
		c40.43-117.76-49.09-42.54,56.43-179.41c0.25,0.02,25.61,2.51,25.84,2.53C1552.05,437.78,1570.74,467.15,1585.76,568.19z"/>
	<polygon class="st29" points="1332.75,593.61 1471.19,594.68 1444.41,493.23 1306.81,492.16 	"/>
	
		<rect x="1398.51" y="527.86" transform="matrix(7.825215e-03 -1 1 7.825215e-03 793.9092 1994.3096)" class="st30" width="6.88" height="138.44"/>
	<polygon class="st31" points="1442.33,493.21 1447.29,493.25 1473.5,594.2 1539.19,594.71 1539.14,601.59 1468.83,601.04 
		1468.88,594.89 	"/>
	<path class="st25" d="M1568.22,435.48c31.73,24.11,48.44,67.19,39.7,106.18c-3.4,21.91-17.44,42.67-39.19,48.71
		c-10.75,4.19-60.78,10.68-58.32-7c0.83-4.24,4.61-5.78,8.28-6.88c6.04-2.07,12.27-4.37,18.04-6.93
		c10.33-5.25,23.6-10.14,25.93-21.65c4.98-26.88-5.87-53.27-25.89-71c0.04,0.02-0.09-0.08,0.2,0.14
		C1509.82,456.53,1540.9,415.22,1568.22,435.48z"/>
	<path class="st24" d="M1586.18,585.69c-16.31,7.11-31.71,9.21-43.55,9.55c0,0,2.87-17.59-9.83-24.95
		c72.29-53.93-30.17-77.66-9.83-157.57C1600.01,414.7,1678.66,531.84,1586.18,585.69z"/>
	<path class="st25" d="M1479.84,594.25c0,0,6.33-21.46,43.12-18.7l7.56,19.09L1479.84,594.25z"/>
	<path class="st28" d="M1551.17,594.71c-5.27,0.54-8.54,0.53-8.54,0.53s2.87-17.59-9.83-24.95c0,0,3.16-2.01,7.29-5.59
		C1540.09,564.7,1553.99,575.06,1551.17,594.71z"/>
	<path class="st28" d="M1539.41,567.71c-0.93,0.01-1.42-1.24-0.67-1.84c32.13-28.12,16.74-58.27-2.09-77.87
		c-0.92-0.96,0.64-2.44,1.55-1.41C1558.22,506.88,1573.27,540.26,1539.41,567.71z"/>
	<path class="st28" d="M1550.49,594.82c-5.94-3.51,16.77-1.61,34.12-9.62c0.54-0.21,1.15,0.04,1.36,0.58
		c0.22,0.54-0.04,1.14-0.58,1.36C1567.47,594.3,1550.72,594.82,1550.49,594.82z"/>
	<path class="st32" d="M1529.84,445c-0.78,5.5-6.07,7.17-7.38,6.87c-18.47-8.05-5.48,17.01-13.13,19.49
		c-6.43,2.09-7.13-6.26-12.71-6.76c-8.11-0.73-9.8,3.67-12.62,0.97c-3.94-3.76,5.72-10.2,4.54-16.89
		c-0.83-4.7-10.21-0.06-10.01-9.71c0.22-9.48,11.21-23.6,11.56-24.03c0-0.01,0-0.01,0-0.01c10.35-5.37,32.9-2.2,32.9-2.2
		s2.99-0.63,5.85,0.47C1530.17,420.92,1531.37,436.75,1529.84,445z"/>
	<path class="st25" d="M1497.71,403.82l-0.7,9.17c0,0-0.93,8.82-1.06,25.22c-0.18,23.06,5.55,20.42,13.59,4.37
		c4.42-8.82,13.42-29.85,13.42-29.85l1.35-16.12L1497.71,403.82z"/>
	<path class="st33" d="M1528.71,377.81c-0.11,0.43-0.23,0.87-0.38,1.3c-0.55-0.45-3.49,14.38-4.73,26.01
		c-11.11,6.38-24.23,5.82-26.42,5.13c0.73-17.21,2.38-42.96,15.7-47.66C1521.82,359.83,1531.2,368.67,1528.71,377.81z"/>
	<path class="st23" d="M1495.66,320.84c-33.36-4.26-39.07,48.29-16.53,67.81L1495.66,320.84z"/>
	<path class="st25" d="M1534.73,358.19c1.52,11.49,1.52,24.96-4.98,34.81l-0.01,0c-17.79,28.53-75.77,9.6-59.58-24.27
		c2.37-4.32,3.73-9.58,3.94-14.05C1474.98,307.75,1530.39,318.03,1534.73,358.19z"/>
	<path class="st34" d="M1490.75,363.96c-1.58-1.6,0.99-4.04,2.52-2.39C1494.84,363.18,1492.28,365.62,1490.75,363.96z"/>
	<path class="st34" d="M1476.06,365.8c-1.58-1.6,0.99-4.04,2.52-2.39C1480.15,365.01,1477.59,367.45,1476.06,365.8z"/>
	<path class="st34" d="M1484.7,378.88c-2.94,0.44-7.19-0.35-4.38-3.84c2.63-2.64,2.99-9.83,2.99-9.9c0.03-0.84,1.37-0.8,1.31,0.06
		c-0.01,0.32-0.39,7.77-3.38,10.77c-0.34,0.34-0.69,0.81-0.45,1.1c0.69,0.83,4,0.99,5.91-0.31c0.29-0.2,0.71-0.13,0.91,0.17
		C1488.1,378.3,1485.73,378.58,1484.7,378.88z"/>
	<path class="st33" d="M1534.73,358.19c1.52,11.49,1.52,24.96-4.98,34.81l-0.01,0c3.02-7.4,2.02-21.63,2.02-21.63l-4.05-5.25
		c-41.85-0.88-47.76-32.44-47.76-32.44C1497.95,308.65,1532.75,331.71,1534.73,358.19z"/>
	<path class="st23" d="M1483.18,329.76c0,0,5.98,31.07,43.85,33.24l10.23-10.41C1542.19,325.62,1510.23,297.72,1483.18,329.76z"/>
	<path class="st25" d="M1543.37,361.65c1.24,13.14-15.4,14.52-16.35,1.35C1525.78,349.85,1542.43,348.48,1543.37,361.65z"/>
	<path class="st34" d="M1539.48,358.22C1539.48,358.22,1539.48,358.22,1539.48,358.22c-1.65-5.22-11.74,0.26-7.47,0.49
		c0.02-0.23,4.49-2.85,5.86-0.54c-4.4,2.03-5.93,10.17-3.37,7.56c0-0.05,0.57-4.69,4.03-6.42
		C1540.16,371.19,1541.78,362.97,1539.48,358.22z"/>
	<path class="st32" d="M1538.21,369.45c0.58,1.82-2.3,2.68-2.83,0.84C1534.81,368.48,1537.69,367.62,1538.21,369.45z"/>
	<path class="st28" d="M1495.65,477.29c0.03,3.8-5.96,3.76-5.88-0.05C1489.75,473.44,1495.74,473.49,1495.65,477.29z"/>
	<path class="st28" d="M1489.72,497.9c0.03,3.8-5.96,3.76-5.88-0.05C1483.82,494.05,1489.81,494.09,1489.72,497.9z"/>
	<path class="st28" d="M1489.57,516.48c0.03,3.8-5.96,3.76-5.88-0.05C1483.67,512.63,1489.66,512.67,1489.57,516.48z"/>
	<path class="st19" d="M1386.25,833.44c0.47,9.22,0.75,14.79,0.75,14.79c-33.33,10.42-51.12-0.4-51.12-0.4s-0.62-4.59-1.99-12.57
		C1334.28,835.46,1355.01,845.83,1386.25,833.44z"/>
	<path class="st19" d="M1459.9,848.8c-33.33,10.42-51.12-0.4-51.12-0.4s-1.08-4.28-2.91-11.66c0,0,18.26,9.65,52.38,0.41
		C1459.2,844.44,1459.9,848.8,1459.9,848.8z"/>
	<path class="st33" d="M1481.85,594.05c-6.54,0.15,17.4-15.96,24.47-11.92c0.05,0.58-0.37,1.09-0.94,1.14
		C1491.96,584.56,1482.98,594.02,1481.85,594.05z"/>
	<path class="st33" d="M1491.93,594.5c-4.95-2.15,10.5-5.66,18.15-7.66c0.56-0.11,1.12,0.26,1.23,0.82
		c0.11,0.57-0.26,1.11-0.82,1.23C1502.34,590.5,1492.75,594.41,1491.93,594.5z"/>
	<path class="st34" d="M1496.25,358.69c-0.16,0-0.32-0.05-0.46-0.16c-4.15-3.29-7.96-2.26-8.12-2.22c-0.4,0.11-0.81-0.11-0.92-0.51
		c-0.11-0.39,0.11-0.8,0.5-0.92c0.19-0.06,4.68-1.31,9.46,2.48c0.32,0.26,0.38,0.72,0.12,1.04
		C1496.69,358.59,1496.47,358.69,1496.25,358.69z"/>
	<path class="st34" d="M1485.82,384.1c0.1-0.12,0.25-0.21,0.42-0.25c5.2-1.07,6.84-4.65,6.91-4.8c0.17-0.38,0.6-0.54,0.98-0.38
		c0.38,0.16,0.55,0.6,0.38,0.97c-0.08,0.18-1.99,4.43-7.97,5.66c-0.4,0.08-0.8-0.18-0.88-0.58
		C1485.61,384.5,1485.68,384.27,1485.82,384.1z"/>
	<path class="st34" d="M1474.37,360.31c-0.14,0-0.29-0.04-0.42-0.13c-0.34-0.23-0.43-0.69-0.19-1.03c0.1-0.14,2.44-3.5,6.31-3.32
		c0.41,0.02,0.73,0.37,0.71,0.78c-0.02,0.41-0.37,0.73-0.78,0.71c-3.04-0.12-5,2.65-5.02,2.68
		C1474.84,360.2,1474.61,360.31,1474.37,360.31z"/>
</g>
<g id="_x31_">
	<path class="st25" d="M805.51,1177.55c0,0,8.35,1.24,14.15-3.16l-7.87-3.12L805.51,1177.55z"/>
	<path class="st25" d="M505.46,1669.71l-1.09-0.57c0,0.76-0.95,3.42-1.71,3.42l-32.36,0.66c-0.77,0-1.24-1.44-1.24-2.2l-2.76-0.79
		c0-4.83,0.4-6.59,2.54-10.33c7.87-10.43-1.52-57.08-1.25-69.27c-1.94-3.33,34.07-0.72,34.58-1.5c0.81,0,1.45,0.69,1.38,1.49
		l-4.24,53.31C497.41,1654.05,505.19,1660.17,505.46,1669.71z"/>
	<path class="st25" d="M665.5,1674.35h-64.45c-5.63-0.23-5.58-5.95-4.55-10.39c3.55-16-2.72-52.75-3.89-69.2
		c-0.31-3.01,2.06-5.63,5.1-5.63c47.56-0.48,31.36-7.04,28.57,44.2c-1.42,26.07,18.35,23.99,30.54,25.96
		C664.85,1659.87,678.27,1670.79,665.5,1674.35z"/>
	<path class="st18" d="M594.05,1667.68c0.17,3.15,1.74,6.75,5.4,6.67c0,0,66.85,0,66.85,0c15.77-5.84-6.89-26.7-37.75-26.58
		c-14.14,3.87-30.99,1.19-30.99,1.19S593.01,1654.75,594.05,1667.68z"/>
	<path class="st18" d="M471.43,1674.35H500c13.93-1.9,3.98-26.55-14.29-27.3C467.36,1646.3,457.52,1672.48,471.43,1674.35z"/>
	<path class="st26" d="M650.37,1665.33c0.56,0,1.09-0.33,1.32-0.89c2.57-6.32,7.2-8.26,7.4-8.34c3.61-5.69-6.89-1.64-10.03,7.28
		C648.66,1664.28,649.39,1665.34,650.37,1665.33z"/>
	<path class="st26" d="M639.33,1664c0.61,0,1.17-0.39,1.36-1c2.27-7.32,8.66-10.71,8.73-10.74c3.28-6.61-8.93,0.47-11.44,9.91
		C637.68,1663.05,638.4,1664.01,639.33,1664z"/>
	<path class="st26" d="M626.77,1662.46c0.59,0,1.14-0.37,1.34-0.95c2.65-7.61,8.78-11.75,8.84-11.79
		C640.58,1639.95,620.57,1659.84,626.77,1662.46z"/>
	<path class="st26" d="M475.47,1656.2c7.94-4.8,20.11-0.48,20.16-0.13c8.29-1.78-11.31-8.76-20.88-2.51
		C473.51,1654.24,474.08,1656.26,475.47,1656.2z"/>
	<path class="st35" d="M670.99,1667.68h-76.93c0.28,2.34,0.93,4.62,2.11,6.67h70.15C669.76,1674.36,672.21,1670.9,670.99,1667.68z"
		/>
	<path class="st35" d="M471.43,1674.35H500c3.64,0,6.56-3.05,6.34-6.67h-41.25C464.87,1671.3,467.79,1674.36,471.43,1674.35z"/>
	<path class="st19" d="M619.51,1180.15c62.92,47.91,140.92,28.29,185.55-5.04l4.16-18.83c-102.96,7.96-128.1-42.71-193.88-65.71
		l5.73,20.76C621.06,1111.32,618.8,1178.61,619.51,1180.15z"/>
	<path class="st6" d="M634.41,1631.68c-24.25,9.07-51.13,2.15-51.13,2.15c0.34-3.27,0.65-6.59,0.93-9.96
		c9.16-113.22-21.5-272.79-24.65-284.4c0-0.01-0.01-0.02-0.01-0.02c-0.15-0.56-0.24-0.77-0.24-0.59
		c-20.13,131.21-40.07,240.01-49.42,290.81c-23.89,11.15-48.14-4.8-48.14-4.8c-0.15-4.58-0.27-9.09-0.37-13.56
		c-5.51-88.16,7.1-358.67,52.74-411.5c52.95,26.2,125.76,30.3,125.76,30.3C652.05,1460.72,651.45,1570.94,634.41,1631.68z"/>
	<path class="st25" d="M607.63,1087.7c3.02-15.92,10.35-44.57-1.66-51.63c-8.45-4.62-20.37,1.22-19.31,11.78
		c0.9-0.37-1.36,28.85-4.5,36.53C557.27,1087.49,624.59,1122.79,607.63,1087.7z"/>
	<path class="st33" d="M586.64,1046.5c-0.01,0.45-0.01,0.91,0.02,1.35c0.65-0.29-0.39,15.87-2.32,27.4
		c10.02,6.75,22.19,6.49,24.48,6.41c3.26-16.94,8.64-37.81-2.85-45.59C598.11,1031.03,586.71,1037.04,586.64,1046.5z"/>
	<path class="st36" d="M618.23,1627.1c29.94-139.32-0.52-322.21-5.09-323.55C610.79,1304.64,637.39,1488.44,618.23,1627.1z"/>
	<path class="st36" d="M486.72,1624.86l2.11-0.94c23.37-148.26,48.98-325.73,45.74-328.26
		C531.05,1296.15,503.57,1473.11,486.72,1624.86z"/>
	<path class="st4" d="M485.19,1276.96c35.25,26.61,121.62,34.9,156.82,22.19c11.86-5.01,13.52-44.88,12.15-84.03
		c-2.11-52.19-14.69-89.68-38.83-124.55c-0.3-0.12-5.05-2.4-7.69-2.84c0.12,4.77-0.97,18.55-25.48-3.33
		c-0.11,0.09-9.24,0.4-9.24,0.4c-37.07,18.48-52.94,57.77-64.51,102.54C490.67,1256.01,478.2,1266.59,485.19,1276.96z"/>
	<path class="st36" d="M594.02,1622.47l-9.82,1.4c9.16-113.22-21.5-272.79-24.65-284.4c1.92,4.68,14.42,36.65,23.72,96.08
		C593.38,1500.08,596.53,1589.75,594.02,1622.47z"/>
	<path class="st19" d="M572.93,1084.78c8.07,13.72,43.87,35.21,42.4,5.77c-0.3-0.14-3.59-2.33-7.68-2.84
		c0.06,0.77,1.46,21.02-25.49-3.33C582.19,1084.59,577.98,1083.14,572.93,1084.78z"/>
	<path class="st36" d="M583.28,1633.83c0,0,26.88,6.92,51.13-2.15l3.16-12.72c0,0-30.33,10.51-52.88-1.11
		C584.26,1623.21,583.79,1628.54,583.28,1633.83z"/>
	<path class="st36" d="M461.37,1611.31c0.11,4.47,0.23,8.98,0.38,13.56c0,0,24.24,15.95,48.14,4.81c0,0,0.78-4.17,2.19-11.82
		C512.07,1617.85,486.33,1625.51,461.37,1611.31z"/>
	<path class="st19" d="M602.16,1129.91c11.1,0,17.34-2.08,17.72-2.21l-1.38-4.01c-0.13,0.05-13.49,4.43-36.05-0.07l-0.83,4.16
		C589.63,1129.37,596.53,1129.91,602.16,1129.91z"/>
	<path class="st19" d="M600.35,1146.23c13.88,0,22.15-3.22,22.63-3.41l-1.58-3.94c-0.15,0.06-15.35,5.91-38.96,1.33l-0.81,4.16
		C588.64,1145.74,594.92,1146.23,600.35,1146.23z"/>
	<path class="st19" d="M603.02,1162.4c12.44,0,20.94-3.5,21.47-3.72l-1.65-3.91c-0.18,0.08-18.41,7.51-40.1-0.05l-1.4,4
		C589.23,1161.48,596.64,1162.4,603.02,1162.4z"/>
	<path class="st37" d="M630.93,1025.22c0,0-0.94-13.54-5.67-22.67l-7.57,4.2L630.93,1025.22z"/>
	<path class="st25" d="M633.22,1064.87c-11.5,12.41-30.42,15.18-44.54,8.07l0,0c-1.05-0.58-2.05-1.22-3.01-1.93l-0.01,0
		c-45.64-41.3,9.54-115.65,39.66-54.83C635.31,1033.23,651.62,1041.8,633.22,1064.87z"/>
	<path class="st34" d="M612.7,1030.53c0.39-0.88,0-1.9-0.88-2.29c-0.88-0.39-1.91,0-2.3,0.88c-0.39,0.88,0,1.9,0.88,2.29
		C611.28,1031.8,612.31,1031.4,612.7,1030.53z"/>
	<path class="st34" d="M627.19,1027.33c0.39-0.88,0-1.9-0.88-2.29c-0.88-0.39-1.91,0-2.3,0.88c-0.39,0.88,0,1.9,0.88,2.29
		C625.77,1028.6,626.8,1028.2,627.19,1027.33z"/>
	<path class="st34" d="M623.44,1042.57c-1.01,0.17-2.06,0.17-2.95-0.06c-0.35-0.09-0.56-0.45-0.47-0.8
		c0.09-0.35,0.46-0.56,0.81-0.47c2.24,0.59,5.31-0.67,5.69-1.69c0.13-0.36-0.36-0.68-0.79-0.89c-3.84-1.82-6.7-8.73-6.82-9.03
		c-0.14-0.34,0.02-0.72,0.36-0.86c0.35-0.14,0.72,0.02,0.86,0.36c0.03,0.07,2.79,6.73,6.17,8.34c1.84,0.87,1.64,2.06,1.46,2.53
		C627.3,1041.23,625.43,1042.23,623.44,1042.57z"/>
	<path class="st33" d="M623.07,1011.98c-9.69-4.47-26.56,0.94-34.96,1.31c0,0,2.53,14.23-11.43,25.19
		c-0.54,13.24-2.41,19.1,12,34.46l0,0c-1.05-0.58-2.05-1.22-3.01-1.93l-0.01,0C541.72,1031.65,592.41,957.94,623.07,1011.98z"/>
	<path class="st37" d="M628.71,983.07c-5.97-10.37-22.33-15.32-35.5-1.43c-10.14,10.69-21.67,11.21-20.88,21.87
		c-20.91,10.81-9.05,33.79-9.05,33.79l10.67-1.83c11.74-10.53,10.61-25.06,10.61-25.06l0,0c2.74-0.01,5.61-0.28,8.13-1.06
		c7.79-2.42,19.43-4.01,28.51-1.2C630.27,1010.95,635.39,994.65,628.71,983.07z"/>
	<path class="st25" d="M562.2,1046c1.45,5.44,6.18,8.9,10.57,7.74c4.39-1.16,6.78-6.51,5.33-11.95c-1.45-5.44-6.18-8.9-10.57-7.74
		C563.14,1035.21,560.76,1040.56,562.2,1046z"/>
	<path class="st34" d="M572.36,1038.17c-0.18-0.06-4.33-1.41-6.5,0.82c-0.55,0.57-0.91,1.31-1.08,2.21c0,0,0,0,0,0.01
		c-0.02,0.08-0.04,0.16-0.05,0.25c0,0,0,0,0,0c0,0,0,0,0,0c-0.24,1.67,0.13,3.87,1.11,6.58c0.11,0.3,0.42,0.48,0.73,0.42
		c0.04-0.01,0.07-0.02,0.11-0.03c0.34-0.12,0.52-0.5,0.4-0.84c-0.8-2.2-1.15-4-1.09-5.38c3.83,0.48,5.95,4.62,5.97,4.66
		c0.13,0.27,0.42,0.41,0.7,0.36c0.06-0.01,0.12-0.03,0.18-0.06c0.33-0.16,0.46-0.55,0.3-0.88c-0.1-0.21-2.42-4.83-6.92-5.42
		c0.14-0.38,0.32-0.71,0.57-0.97c1.6-1.64,5.11-0.5,5.14-0.49c0.35,0.11,0.72-0.07,0.83-0.42
		C572.89,1038.65,572.7,1038.28,572.36,1038.17z"/>
	<path class="st34" d="M603.63,1028.58c-0.14,0.02-0.28,0.01-0.42-0.05c-0.39-0.16-0.58-0.61-0.42-1.01c0.1-0.24,2.52-5.9,9.58-7.49
		c0.41-0.09,0.83,0.17,0.93,0.58c0.09,0.42-0.17,0.83-0.58,0.92c-6.26,1.41-8.41,6.36-8.5,6.57
		C604.11,1028.37,603.89,1028.54,603.63,1028.58z"/>
	<path class="st34" d="M627.48,1021.86c-0.24,0.04-0.49-0.03-0.67-0.21c-2.1-2.07-6.32-1.65-6.36-1.65
		c-0.42,0.05-0.81-0.26-0.85-0.69c-0.05-0.42,0.26-0.81,0.69-0.85c0.2-0.02,4.99-0.51,7.62,2.09c0.3,0.3,0.31,0.79,0.01,1.09
		C627.78,1021.76,627.63,1021.83,627.48,1021.86z"/>
	<path class="st38" d="M627.45,1050.27l-16.63-7.52c0,0-0.56,8.88,5.98,10.98C623.05,1055.73,627.45,1050.27,627.45,1050.27z"/>
	<path class="st34" d="M627.57,1051.04c-0.15,0.02-0.3,0.01-0.45-0.06l-16.63-7.52c-0.39-0.18-0.56-0.63-0.39-1.02
		c0.18-0.39,0.64-0.56,1.02-0.38l16.63,7.52c0.39,0.18,0.56,0.63,0.39,1.02C628.04,1050.84,627.82,1050.99,627.57,1051.04z"/>
	<path class="st10" d="M997.1,1032.81l-2.53-4.02l-50.2,31.4c0.74,3.04-0.48,6.35-3.28,8.12c-3.42,2.17-8.16,1.14-10.36-2.26
		c-2.29-3.53-1.23-8.23,2.32-10.45c2.82-1.76,6.35-1.43,8.79,0.57l50.2-31.4l-2.53-4.02l-65.44,12.39
		c-6.09,1.15-11.53,4.52-15.27,9.46l-19.72,26.04l10.53,16.75l10.53,16.75l32.08-6.36c6.08-1.21,11.49-4.62,15.19-9.59
		L997.1,1032.81z"/>
	<path class="st24" d="M443.17,1373.15l-2.08-3.3c-7.73-12.3-4-28.51,8.33-36.22l430.63-269.32l30.05,47.83l-430.63,269.32
		C467.15,1389.16,450.89,1385.44,443.17,1373.15z"/>
	<path class="st5" d="M896.96,1111.32l-21.9-34.86c-2.74-4.36-1.42-10.11,2.95-12.84l0,0c4.37-2.73,10.13-1.41,12.87,2.94
		l21.9,34.86c2.74,4.36,1.42,10.11-2.95,12.84l0,0C905.46,1116.99,899.7,1115.68,896.96,1111.32z"/>
	<path class="st25" d="M530.84,1282.7l-6.01,3.76c0,0,5.14,5.35,9.57,7.47c4.33,2.08,8.57,4.13,13.28,5.63
		c6.64,8.44-18.56-0.45-21.63-0.84c-0.02,0.06-0.02,0.05-0.04,0.11c5.96,4.45,12.2,8.56,18.77,12.07
		c4.84,10.34-20.13-5.81-22.99-7.14c-0.01,0.03-0.01,0.02-0.02,0.05c4.85,5.21,10.37,9.78,16.35,13.65
		c3.96,10.89-19.97-7.49-22.33-9.78c-0.03,0.01-0.05,0.03-0.08,0.04c3.18,4.7,7,8.96,11.02,12.97c2.32,10.83-16.08-8.32-17.95-10.65
		c-1.85-0.84-11.92-8.57-18.03-19.95c-2-3.73,7.76-13.07,11.98-12.66c0,0,11.13,0.77,12.99,1.16
		C520.01,1278.87,526.31,1281.38,530.84,1282.7z"/>
	<path class="st25" d="M812.82,1172.91c5.9,6.12,12.86-2.29,3.81-4.46l0.11,0.1C813.49,1165.29,809.7,1169.93,812.82,1172.91z"/>
	<path class="st25" d="M817.85,1170.17c7.94,5.65,11.85-5.54,3.39-5.04c0.18,0.04-0.76-0.29-0.59-0.25
		C816.78,1162.3,814.39,1167.99,817.85,1170.17z"/>
	<path class="st25" d="M823.22,1167.46l3.09,1c4.37,1.25,4.59-5.3,0.92-6.23c0,0-3.09-1-3.09-1
		C819.78,1159.97,819.55,1166.52,823.22,1167.46z"/>
	<path class="st25" d="M827.51,1164.38l3.09,1c4.37,1.25,4.59-5.3,0.92-6.23c0,0-3.09-1-3.09-1
		C824.07,1156.9,823.84,1163.45,827.51,1164.38z"/>
	<path class="st19" d="M572.93,1084.78c0,0-58.4-5.47-110.42,48.51c-38.63,40.08-63.26,108.27,28.13,157.12
		c0,0,3.07-9.81,12.09-12.98c0,0-16.47-38.61-11.92-59.34c5.03-22.94,33.34-44.87,55.1-71.86
		C564.89,1122.67,572.93,1084.78,572.93,1084.78z"/>
</g>
</svg>
