<?xml version="1.0" encoding="utf-8"?>
<!-- Generator: Adobe Illustrator 27.2.0, SVG Export Plug-In . SVG Version: 6.00 Build 0)  -->
<svg version="1.1" id="Layer_1" xmlns="http://www.w3.org/2000/svg" xmlns:xlink="http://www.w3.org/1999/xlink" x="0px" y="0px"
	 viewBox="0 0 50 22.1" style="enable-background:new 0 0 50 22.1;" xml:space="preserve">
<style type="text/css">
	.st0{fill:#FFFFFF;}
</style>
<g>
	<g>
		<path class="st0" d="M20.9,3.7c0.4-0.1,0.9-0.1,1.5-0.1c0.9,0,1.6,0.2,2.1,0.6c0.5,0.4,0.8,1,0.8,1.9c0,0.9-0.3,1.6-0.8,2
			c-0.5,0.5-1.3,0.7-2.3,0.7c-0.5,0-0.9,0-1.2-0.1V3.7z M21.9,8c0.1,0,0.3,0,0.5,0c1.2,0,1.9-0.7,1.9-1.9c0-1.1-0.6-1.8-1.8-1.8
			c-0.3,0-0.5,0-0.6,0.1V8z"/>
		<path class="st0" d="M26.8,7.1c0,0.7,0.5,0.9,1.1,0.9c0.4,0,0.7-0.1,1-0.2l0.1,0.6c-0.3,0.1-0.8,0.2-1.3,0.2C26.7,8.8,26,8,26,6.9
			c0-1,0.6-2,1.8-2c1.2,0,1.6,1,1.6,1.8c0,0.2,0,0.3,0,0.4H26.8z M28.4,6.5c0-0.3-0.1-0.9-0.8-0.9c-0.6,0-0.8,0.5-0.8,0.9H28.4z"/>
		<path class="st0" d="M30.2,3.3h0.9v5.3h-0.9V3.3z"/>
		<path class="st0" d="M32.2,7.8c0.2,0.1,0.6,0.3,0.9,0.3c0.4,0,0.6-0.2,0.6-0.4c0-0.2-0.2-0.4-0.6-0.5c-0.7-0.2-1-0.6-1-1.1
			c0-0.6,0.5-1.1,1.4-1.1c0.4,0,0.8,0.1,1,0.2l-0.2,0.7c-0.2-0.1-0.5-0.2-0.8-0.2C33.2,5.6,33,5.8,33,6c0,0.2,0.2,0.3,0.6,0.5
			c0.7,0.2,1,0.6,1,1.1c0,0.7-0.5,1.1-1.5,1.1c-0.4,0-0.8-0.1-1.1-0.3L32.2,7.8z"/>
		<path class="st0" d="M35.6,3.3h0.9v2.2h0c0.1-0.2,0.3-0.3,0.5-0.4c0.2-0.1,0.4-0.2,0.6-0.2c0.6,0,1.3,0.4,1.3,1.6v2.2h-0.9V6.6
			c0-0.5-0.2-0.9-0.7-0.9c-0.4,0-0.6,0.2-0.7,0.5c0,0.1,0,0.2,0,0.3v2.2h-0.9V3.3z"/>
		<path class="st0" d="M42.8,7.8c0,0.3,0,0.7,0.1,0.9h-0.8L42,8.3h0c-0.2,0.3-0.6,0.5-1.1,0.5c-0.7,0-1.1-0.5-1.1-1.1
			c0-0.9,0.8-1.4,2.2-1.4V6.2c0-0.2-0.1-0.6-0.7-0.6c-0.4,0-0.7,0.1-1,0.3L40,5.3c0.3-0.2,0.7-0.3,1.3-0.3c1.2,0,1.5,0.7,1.5,1.5
			V7.8z M41.9,6.9c-0.7,0-1.3,0.1-1.3,0.7c0,0.4,0.2,0.5,0.5,0.5c0.4,0,0.6-0.2,0.7-0.5c0-0.1,0-0.1,0-0.2V6.9z"/>
		<path class="st0" d="M47.3,3.3v4.3c0,0.4,0,0.8,0,1h-0.8l0-0.6h0c-0.2,0.4-0.7,0.7-1.2,0.7c-0.9,0-1.6-0.7-1.6-1.9
			c0-1.2,0.8-2,1.6-2c0.5,0,0.9,0.2,1,0.5h0V3.3H47.3z M46.4,6.5c0-0.1,0-0.2,0-0.2c-0.1-0.4-0.4-0.7-0.8-0.7
			c-0.6,0-0.9,0.5-0.9,1.2C44.7,7.5,45,8,45.6,8c0.4,0,0.7-0.3,0.8-0.7c0-0.1,0-0.2,0-0.3V6.5z"/>
	</g>
	<g>
		<g>
			<path class="st0" d="M24.8,3.6c0.5,0,0.9,0.1,1.3,0.4c0.3,0.2,0.5,0.4,0.6,0.8c0.1,0.3,0.2,0.6,0.2,0.9c0,0.3,0,0.6-0.1,1
				c0,0,0,0.1-0.1,0.1c-0.1,0-0.1,0-0.2,0c-0.1-0.1-0.2-0.1-0.2-0.1c0.1-0.5,0.2-0.9,0.2-1.1c0-0.2,0-0.4-0.1-0.6
				c-0.1-0.2-0.2-0.5-0.4-0.6C25.6,4.1,25.4,4,25.1,4c-0.5,0-1.1,0.2-1.6,0.5c-0.6,0.4-1.1,0.9-1.6,1.6c-0.5,0.7-0.9,1.4-1.3,2.2
				c-0.5,1.2-0.8,2.3-0.8,3.2c0,0.1,0,0.3,0,0.4c0.1,0.7,0.3,1,0.6,1c0.5,0,1.3-0.9,2.3-2.6c0.5-0.9,1.1-1.9,1.6-3
				c0.4-0.8,0.6-1.3,0.7-1.6c0,0,0-0.1,0.1-0.2c0,0,0.1-0.1,0.1-0.1c0,0,0.1,0,0.1,0c0.1,0,0.1,0.1,0.1,0.1c0,0.8-0.1,1.7-0.2,2.5
				c-0.1,1.1-0.3,2.2-0.6,3.2c-0.4,1.4-0.8,2.5-1.3,3.2c-0.4,0.5-0.9,0.8-1.4,0.8c-0.2,0-0.4,0-0.6-0.1c-0.1,0-0.1-0.1-0.1-0.1
				c0-0.2,0.1-0.3,0.2-0.4c0,0,0.1-0.1,0.1-0.1c0,0,0,0,0,0c0.1,0,0.2,0.1,0.3,0.1c0.3,0,0.6-0.2,0.9-0.5c0.5-0.6,0.9-1.5,1.3-2.9
				c0.3-1,0.5-2.1,0.7-3.2c0.1-0.4,0.1-0.9,0.2-1.5c-0.3,0.7-0.8,1.6-1.3,2.6c-0.5,1-1.1,1.8-1.6,2.5c-0.8,1.1-1.5,1.6-2,1.6
				c0,0,0,0-0.1,0c-0.4,0-0.6-0.3-0.8-0.7c-0.1-0.3-0.2-0.7-0.2-1.2c0-0.9,0.3-2,0.8-3.3c0.3-0.8,0.8-1.5,1.3-2.2
				c0.3-0.4,0.6-0.7,0.9-1C23,4,23.8,3.6,24.8,3.6 M24.8,3.4c-0.9,0-1.9,0.4-2.7,1.2c-0.3,0.3-0.6,0.6-0.9,1c-0.5,0.7-1,1.5-1.3,2.3
				c-0.6,1.3-0.8,2.4-0.8,3.4c0,0.5,0.1,0.9,0.2,1.3c0.2,0.5,0.5,0.7,0.9,0.8c0,0,0,0,0.1,0c0.6,0,1.3-0.6,2.1-1.7
				c0.5-0.7,1.1-1.5,1.6-2.5c0.4-0.6,0.7-1.2,0.9-1.8c0,0.2-0.1,0.4-0.1,0.6c-0.2,1.1-0.4,2.2-0.7,3.2c-0.4,1.3-0.8,2.3-1.3,2.8
				c-0.2,0.3-0.5,0.4-0.8,0.4c-0.1,0-0.2,0-0.3-0.1c0,0-0.1,0-0.1,0c-0.1,0-0.2,0-0.2,0.1c-0.1,0.1-0.2,0.3-0.2,0.5
				c0,0.1,0.1,0.2,0.2,0.3c0.2,0.1,0.4,0.1,0.6,0.1c0.6,0,1.1-0.3,1.5-0.8c0.5-0.7,1-1.8,1.4-3.2c0.3-1,0.5-2.1,0.6-3.3
				c0.1-0.9,0.2-1.7,0.2-2.5c0-0.1,0-0.2-0.3-0.3c0,0-0.1,0-0.1,0c-0.1,0-0.2,0.1-0.2,0.1C25,5.5,25,5.6,24.9,5.6
				c-0.1,0.3-0.4,0.8-0.7,1.6c-0.5,1.1-1.1,2.1-1.6,3c-1.3,2.2-1.9,2.5-2.2,2.5c-0.3,0-0.4-0.5-0.4-0.9c0-0.1,0-0.2,0-0.4
				c0-0.9,0.3-1.9,0.8-3.1c0.3-0.7,0.7-1.5,1.2-2.1c0.5-0.6,1-1.1,1.6-1.5c0.5-0.3,1-0.5,1.5-0.5c0.3,0,0.5,0.1,0.7,0.2
				c0.2,0.2,0.3,0.3,0.4,0.6c0,0.2,0.1,0.4,0.1,0.5c0,0.3-0.1,0.6-0.2,1.1c0,0.2,0.1,0.2,0.3,0.3c0.1,0,0.2,0,0.2,0
				c0.1,0,0.2-0.1,0.2-0.2c0.1-0.4,0.1-0.7,0.1-1c0-0.4-0.1-0.7-0.2-1c-0.2-0.4-0.4-0.7-0.6-0.9C25.7,3.6,25.3,3.4,24.8,3.4
				L24.8,3.4z"/>
		</g>
		<g>
			<path class="st0" d="M28.2,10.1c0.2,0,0.3,0.1,0.5,0.2c0.1,0.1,0.2,0.3,0.2,0.5c0,0.1,0.1,0.3,0.1,0.4c0.1,0.2,0.2,0.3,0.3,0.3
				c0.1,0,0.3-0.1,0.6-0.2c0,0,0.1,0,0.1,0c0.1,0,0.1,0,0.1,0.1c0,0,0,0.1,0,0.1c0,0.1,0,0.1-0.1,0.1c-0.3,0.2-0.5,0.3-0.7,0.3
				c-0.1,0-0.2,0-0.2,0c-0.2-0.1-0.4-0.2-0.5-0.4c-0.1-0.1-0.2-0.3-0.2-0.4l-0.1-0.2c-0.1-0.2-0.2-0.3-0.3-0.3
				c-0.1,0-0.3,0.2-0.4,0.5c-0.2,0.4-0.3,0.8-0.4,1.2c-0.2,0.6-0.3,1-0.4,1.3c-0.1,0.3-0.1,0.5-0.2,0.6c0,0-0.1,0.1-0.2,0.1
				c-0.1,0-0.1,0-0.2-0.1l0-0.1c-0.1-0.4-0.1-1.1-0.1-2c0-0.5,0-0.9,0-1.1c0-0.1,0-0.1,0.1-0.1c0.1,0,0.1,0,0.2,0
				c0.1,0,0.2,0,0.3,0.1c0.1,0,0.1,0.1,0.1,0.2c0,0.2,0,0.4-0.1,0.7c-0.1,0.6-0.1,1-0.1,1.1c0.2-0.7,0.4-1.3,0.6-1.8
				c0.1-0.2,0.2-0.4,0.4-0.6C27.8,10.1,28,10.1,28.2,10.1 M28.2,9.9c-0.2,0-0.4,0.1-0.6,0.3c-0.2,0.2-0.4,0.4-0.4,0.6
				C27.1,11,27,11.1,27,11.2c0-0.1,0-0.2,0-0.3c0-0.1-0.1-0.2-0.2-0.3c-0.1-0.1-0.2-0.1-0.3-0.1c-0.1,0-0.2,0-0.3,0
				c-0.1,0.1-0.2,0.1-0.2,0.3c0,0.3,0,0.6,0,1.1c0,0.9,0,1.6,0.1,2.1l0,0.1c0,0.1,0.1,0.2,0.3,0.2c0.2,0,0.2-0.1,0.3-0.1
				c0-0.1,0.1-0.2,0.2-0.6c0.1-0.3,0.2-0.8,0.4-1.3c0.1-0.4,0.3-0.8,0.4-1.2c0.2-0.4,0.3-0.5,0.3-0.5c0,0,0.1,0,0.1,0.2l0.1,0.2
				c0.1,0.1,0.2,0.3,0.2,0.4c0.1,0.2,0.3,0.3,0.5,0.4c0.1,0,0.2,0,0.3,0c0.2,0,0.5-0.1,0.8-0.3c0.1-0.1,0.1-0.2,0.1-0.3
				c0-0.1,0-0.1,0-0.2c-0.1-0.1-0.2-0.1-0.3-0.1c-0.1,0-0.1,0-0.2,0c-0.2,0.2-0.4,0.2-0.5,0.2c0,0-0.1,0-0.2-0.2
				c0-0.1-0.1-0.2-0.1-0.4c0-0.3-0.1-0.4-0.2-0.6C28.6,10,28.4,9.9,28.2,9.9L28.2,9.9z"/>
		</g>
		<g>
			<path class="st0" d="M31.9,8.4c0.2,0,0.3,0.1,0.5,0.2c0.4,0.3,0.6,0.9,0.6,1.8c0,0.8-0.2,1.8-0.5,3.1c0,0.1-0.1,0.1-0.2,0.1
				c0,0-0.1,0-0.1,0c-0.1,0-0.2-0.1-0.2-0.1c-0.1,0-0.1-0.1-0.1-0.1c0,0,0-0.2,0.1-0.5c0.1-0.2,0.1-0.4,0.2-0.5c0,0,0,0.1-0.1,0.1
				c0,0.1-0.1,0.1-0.1,0.2c-0.3,0.4-0.5,0.7-0.8,0.8c-0.1,0.1-0.3,0.2-0.4,0.3c-0.1,0.1-0.2,0.1-0.4,0.1h0c-0.2,0-0.4-0.1-0.5-0.3
				c-0.1-0.2-0.2-0.5-0.2-0.8c0-0.3,0.1-0.7,0.2-1.1c0.1-0.3,0.3-0.6,0.5-0.8c0.2-0.3,0.5-0.4,0.8-0.4c0.2,0,0.4,0.1,0.6,0.2
				c0.1,0.1,0.2,0.2,0.4,0.4c0,0,0,0.1,0,0.1c0,0.1,0,0.1-0.1,0.1c0,0-0.1,0-0.1,0c-0.1,0-0.1,0-0.1-0.1c-0.2-0.3-0.4-0.4-0.6-0.4
				c-0.2,0-0.3,0.1-0.4,0.3c-0.1,0.2-0.2,0.4-0.3,0.7c-0.1,0.4-0.1,0.7-0.1,1.1c0,0.4,0.1,0.6,0.2,0.6c0.1,0,0.1,0,0.2-0.1
				c0.1-0.1,0.2-0.2,0.2-0.2c0.2-0.2,0.4-0.4,0.7-0.8c0.2-0.3,0.4-0.5,0.5-0.8c0.2-0.5,0.3-1,0.3-1.5c0-0.1,0-0.2,0-0.3
				c0-0.4-0.2-0.8-0.3-1c-0.1-0.1-0.2-0.2-0.4-0.2c0,0-0.1,0-0.1,0c-0.2,0.1-0.4,0.4-0.5,0.8c0,0.1-0.1,0.3-0.1,0.3
				c0,0-0.1,0.1-0.1,0.1c-0.1,0-0.2,0-0.2-0.1c0-0.1,0-0.2,0.1-0.4C30.9,9.2,31,9,31.1,8.9C31.4,8.6,31.6,8.4,31.9,8.4 M31.9,8.3
				c-0.3,0-0.6,0.2-0.9,0.5c-0.1,0.2-0.3,0.4-0.4,0.7c0,0.1-0.1,0.2-0.1,0.4c0,0.1,0,0.2,0.3,0.3c0,0,0,0,0,0c0.2,0,0.3-0.1,0.3-0.2
				c0-0.1,0-0.2,0.1-0.3c0.2-0.5,0.3-0.7,0.5-0.8c0,0,0,0,0.1,0c0.1,0,0.2,0.1,0.3,0.2c0.2,0.2,0.3,0.5,0.3,0.9c0,0.1,0,0.2,0,0.3
				c0,0.3,0,0.6-0.1,0.9c0,0,0-0.1-0.1-0.1c-0.1-0.2-0.3-0.3-0.4-0.4c-0.2-0.2-0.5-0.3-0.7-0.3c-0.3,0-0.6,0.2-0.9,0.5
				c-0.2,0.2-0.4,0.5-0.5,0.9c-0.1,0.4-0.2,0.7-0.2,1.1c0,0.4,0.1,0.7,0.2,0.9c0.2,0.2,0.4,0.3,0.6,0.3h0c0.1,0,0.3,0,0.4-0.1
				c0.2-0.1,0.3-0.2,0.5-0.3c0.1-0.1,0.3-0.3,0.5-0.5c-0.1,0.2-0.1,0.2-0.1,0.2c0,0.1,0,0.2,0.1,0.2c0.1,0.1,0.2,0.1,0.3,0.1
				c0.1,0,0.1,0,0.2,0c0.2,0,0.3-0.1,0.3-0.2c0.3-1.3,0.5-2.3,0.5-3.1c0-1-0.2-1.6-0.7-1.9C32.3,8.4,32.1,8.3,31.9,8.3L31.9,8.3z
				 M30.5,13.4c0,0-0.1-0.1-0.1-0.4c0-0.3,0-0.7,0.1-1c0.1-0.3,0.2-0.5,0.3-0.6c0.1-0.2,0.2-0.2,0.3-0.2c0.1,0,0.3,0.1,0.5,0.4
				c0.1,0.1,0.1,0.1,0.2,0.1c0.1,0,0.1,0,0.2-0.1c0,0.1,0,0.1-0.1,0.2c-0.1,0.3-0.3,0.5-0.5,0.8c-0.3,0.3-0.5,0.6-0.7,0.7l0,0l0,0
				c0,0,0,0,0,0c0,0,0,0-0.2,0.1C30.6,13.4,30.6,13.4,30.5,13.4L30.5,13.4z"/>
		</g>
		<g>
			<path class="st0" d="M36.4,9.3c0.2,0,0.4,0.1,0.5,0.2c0.2,0.2,0.4,0.6,0.4,1.1c0,0.3,0,0.5-0.1,0.8c0.3-0.1,0.5-0.1,0.8-0.1
				c0.3,0,0.5-0.1,0.6-0.1c0,0,0.1,0,0.1,0c0,0,0.1,0.1,0.1,0.1c0,0,0,0.1,0,0.1c0,0-0.1,0.1-0.1,0.1c-0.5,0-1,0.1-1.4,0.2
				c-0.3,0.9-0.7,1.6-1.1,2.1c-0.3,0.2-0.6,0.4-0.9,0.4c-0.1,0-0.1,0-0.2,0c-0.3-0.1-0.5-0.2-0.6-0.5c0-0.1,0-0.1,0-0.2
				c0-0.2,0.1-0.3,0.2-0.6c0.4-0.6,1-1.1,1.9-1.4c0.1-0.5,0.2-0.8,0.2-1.2c0-0.1,0-0.2,0-0.2c0-0.1-0.1-0.3-0.1-0.4
				c-0.1-0.1-0.2-0.2-0.3-0.2c-0.2,0-0.4,0.1-0.7,0.4c-0.4,0.4-0.9,1.1-1.3,2c-0.1,0.2-0.2,0.4-0.2,0.5c-0.1,0.2-0.1,0.5-0.1,0.9
				c-0.1,1.3-0.2,2.6-0.2,3.9c0,0.1,0,0.1-0.1,0.2c-0.1,0-0.1,0-0.2,0c-0.1,0-0.2,0-0.2-0.1c-0.1,0-0.1-0.1-0.1-0.2
				c0-0.5,0-1.1,0.1-1.8c0.1-1,0.3-2,0.5-3.1c0.3-1.2,0.6-2.2,0.9-2.8c0,0,0.1,0,0.1,0c0,0,0.1,0,0.1,0c0.1,0,0.1,0.1,0.1,0.1
				c0,0,0,0,0,0.1c-0.2,0.3-0.3,0.8-0.5,1.4C35,10,35.7,9.3,36.4,9.3 M36.3,12.1c-0.2,0.1-0.4,0.2-0.6,0.3c-0.4,0.2-0.7,0.5-0.9,0.9
				c-0.1,0.2-0.1,0.3-0.1,0.4c0,0,0,0.1,0,0.1c0,0.1,0.1,0.2,0.3,0.2c0.2,0,0.4-0.1,0.6-0.4C35.8,13.2,36.1,12.7,36.3,12.1
				 M36.4,9.2c-0.5,0-1.1,0.4-1.6,1.1c0-0.1,0.1-0.2,0.1-0.2c0,0,0-0.1,0-0.1c0-0.1,0-0.2-0.2-0.3c-0.1,0-0.1,0-0.2,0
				c-0.1,0-0.2,0-0.2,0.1c-0.4,0.6-0.7,1.6-1,2.8c-0.2,1-0.4,2-0.5,3.1c-0.1,0.7-0.1,1.3-0.1,1.8c0,0.1,0.1,0.2,0.2,0.3
				c0.1,0.1,0.2,0.1,0.3,0.1c0.1,0,0.2,0,0.3-0.1c0.1-0.1,0.2-0.2,0.2-0.3c0-1.3,0.1-2.6,0.2-3.9c0-0.3,0.1-0.6,0.1-0.9
				c0-0.1,0.1-0.3,0.2-0.5c0.4-0.9,0.8-1.6,1.2-2c0.3-0.3,0.5-0.4,0.6-0.4c0.1,0,0.2,0,0.2,0.1c0.1,0.1,0.1,0.2,0.1,0.4
				c0,0.1,0,0.1,0,0.2c0,0.3-0.1,0.6-0.2,1c-0.9,0.3-1.6,0.7-1.9,1.4c-0.1,0.2-0.2,0.4-0.2,0.6c0,0.1,0,0.2,0,0.2
				c0.1,0.3,0.3,0.5,0.7,0.6c0.1,0,0.1,0,0.2,0c0.3,0,0.7-0.1,1-0.4c0.5-0.4,0.9-1.1,1.2-2c0.4-0.1,0.9-0.2,1.3-0.2
				c0.1,0,0.2,0,0.2-0.1c0-0.1,0.1-0.1,0.1-0.2c0-0.1,0-0.2-0.1-0.2c-0.1,0-0.1-0.1-0.2-0.1c0,0-0.2,0-0.6,0.1
				c-0.2,0-0.4,0.1-0.6,0.1c0-0.2,0.1-0.4,0.1-0.6c0-0.6-0.1-1-0.4-1.2C36.9,9.3,36.7,9.2,36.4,9.2L36.4,9.2z M35,13.8
				c-0.1,0-0.1,0-0.1-0.1c0,0,0,0,0,0c0-0.1,0-0.2,0.1-0.3c0.2-0.3,0.5-0.6,0.8-0.8c0.1-0.1,0.2-0.1,0.3-0.1
				c-0.2,0.5-0.4,0.8-0.6,1.1C35.3,13.7,35.1,13.8,35,13.8L35,13.8z"/>
		</g>
		<g>
			<path class="st0" d="M40.5,5.1c0.1,0,0.2,0,0.2,0.1c0.2,0.1,0.2,0.1,0.2,0.2c0,0-0.1,0.3-0.3,0.7c-0.9,2.1-1.4,3.8-1.6,5.1
				c-0.1,0.4-0.1,0.7-0.1,1.1c0.2-0.4,0.4-0.8,0.6-1c0.3-0.5,0.6-0.9,0.8-1.1c0.3-0.3,0.6-0.5,0.8-0.5c0.2,0,0.3,0.1,0.4,0.2
				c0.1,0.1,0.1,0.3,0.1,0.4c0,0.4-0.1,1-0.3,1.8c-0.1,0.3-0.1,0.6-0.1,0.7c0,0.1,0,0.2,0.1,0.3c0,0,0,0,0.1,0
				c0.2,0,0.9-0.6,1.9-1.7c0,0,0.1-0.1,0.1-0.1c0,0,0.1,0,0.1,0c0,0,0.1,0.1,0.1,0.1c0,0,0,0.1,0,0.1c-0.7,0.8-1.3,1.4-1.7,1.6
				c-0.2,0.2-0.5,0.2-0.7,0.2c-0.4,0-0.6-0.3-0.6-0.9c0-0.3,0.1-0.8,0.2-1.5c0.1-0.4,0.1-0.7,0.1-0.9c0-0.2,0-0.3-0.1-0.3
				c-0.1,0-0.4,0.3-0.8,0.9c-0.2,0.3-0.3,0.5-0.3,0.5c-0.3,0.5-0.6,0.9-0.8,1.5c0,0.1-0.1,0.1-0.2,0.1c-0.1,0-0.2-0.1-0.2-0.2
				c0-0.1,0-0.4,0-0.6c0-0.7,0.1-1.5,0.3-2.4c0.2-0.8,0.4-1.7,0.7-2.6c0.2-0.7,0.5-1.4,0.7-2C40.3,5.1,40.4,5.1,40.5,5.1 M40.5,4.9
				c-0.2,0-0.2,0.1-0.3,0.1c-0.3,0.6-0.5,1.3-0.7,2c-0.3,0.9-0.5,1.8-0.7,2.6c-0.2,1-0.3,1.8-0.3,2.5c0,0.3,0,0.5,0.1,0.7
				c0.1,0.2,0.2,0.3,0.3,0.3c0.1,0,0.2,0,0.3-0.2c0.2-0.5,0.5-1,0.8-1.5l0,0l0,0c0,0,0-0.1,0.3-0.4c0.4-0.6,0.6-0.8,0.7-0.8
				c0,0,0,0,0,0.1c0,0.2,0,0.4-0.1,0.9c-0.1,0.7-0.2,1.2-0.2,1.5c0,0.8,0.4,1,0.7,1c0.2,0,0.5-0.1,0.8-0.3c0.4-0.3,0.9-0.8,1.7-1.6
				c0.1-0.1,0.1-0.1,0.1-0.2c0-0.1,0-0.2-0.1-0.2c-0.1-0.1-0.1-0.1-0.2-0.1c-0.1,0-0.2,0-0.2,0.1c-1.3,1.5-1.7,1.6-1.7,1.6
				c0,0,0-0.1,0-0.1c0-0.1,0-0.4,0.1-0.7c0.2-0.8,0.3-1.4,0.3-1.8c0-0.2,0-0.4-0.1-0.5c-0.1-0.2-0.3-0.3-0.6-0.3
				c-0.3,0-0.6,0.2-0.9,0.5c-0.2,0.2-0.5,0.6-0.8,1.1c-0.1,0.1-0.2,0.3-0.3,0.5c0-0.1,0-0.3,0.1-0.4c0.2-1.3,0.8-3,1.6-5
				c0.3-0.7,0.3-0.7,0.3-0.8c0-0.1-0.1-0.3-0.3-0.4C40.7,4.9,40.6,4.9,40.5,4.9L40.5,4.9z"/>
		</g>
		<g>
			<path class="st0" d="M44.3,8.9c0.1,0,0.2,0,0.3,0.1c0.3,0.1,0.4,0.2,0.4,0.5c0,0.1,0,0.1,0,0.2c0,0.1-0.1,0.2-0.1,0.2
				c0,0,0,0-0.1,0c0,0-0.1,0-0.1-0.1l0,0c0.1-0.1,0.1-0.2,0.1-0.3c0,0,0-0.1,0-0.1c0-0.1-0.1-0.1-0.1-0.1c0,0,0,0.1,0,0.1
				c0,0.2-0.1,0.3-0.2,0.3c0,0-0.1,0-0.1,0c-0.1,0-0.2-0.1-0.3-0.2c0-0.1,0-0.1,0-0.2c0-0.2,0.1-0.3,0.2-0.3l0,0
				c-0.1,0-0.2,0-0.2,0.1C44,9.3,44,9.3,44,9.4c0,0.1,0.1,0.2,0.2,0.3c0,0,0,0,0,0c0,0,0,0.1,0,0.1c0,0,0,0-0.1,0c0,0,0,0,0,0
				c0,0,0,0,0,0c-0.1-0.1-0.2-0.2-0.2-0.4c0-0.1,0-0.3,0.1-0.4C44,8.9,44.1,8.9,44.3,8.9 M44.4,9.6C44.4,9.6,44.4,9.5,44.4,9.6
				c0.1-0.1,0.1-0.2,0.1-0.2c0-0.1,0-0.1,0-0.2c0,0-0.1,0-0.1,0c0,0-0.1,0.1-0.1,0.2C44.3,9.4,44.3,9.4,44.4,9.6
				C44.3,9.5,44.3,9.6,44.4,9.6 M44,10.1c0.1,0,0.2,0,0.3,0.1c0.1,0,0.1,0.1,0.1,0.1c0,0.1-0.1,0.3-0.2,0.8c-0.1,0.2-0.2,0.5-0.3,1
				c-0.1,0.4-0.2,0.7-0.2,1c0,0.1,0,0.2,0,0.3c0,0.1,0.1,0.1,0.2,0.1c0.2,0,0.6-0.3,1.2-0.9c0.3-0.4,0.7-0.8,1-1.2
				c0,0,0.1-0.1,0.1-0.1c0,0,0.1,0,0.1,0c0,0,0.1,0.1,0.1,0.1c0,0,0,0.1,0,0.1c-0.4,0.5-0.8,0.9-1.1,1.2c-0.6,0.6-1.1,0.9-1.4,0.9
				c-0.4,0-0.6-0.3-0.6-1c0-0.2,0-0.5,0.1-0.8c0.1-0.4,0.2-0.7,0.2-1.1c0.1-0.3,0.1-0.6,0.2-0.7C43.7,10.1,43.8,10.1,44,10.1
				 M44.3,8.7c-0.2,0-0.3,0.1-0.5,0.3c-0.1,0.1-0.1,0.3-0.1,0.4c0,0.2,0.1,0.4,0.2,0.5c-0.2,0-0.3,0.1-0.3,0.2
				c0,0.2-0.1,0.4-0.2,0.7c-0.1,0.3-0.2,0.7-0.2,1.1c-0.1,0.3-0.1,0.6-0.1,0.8c0,0.9,0.4,1.1,0.7,1.1c0.4,0,0.9-0.3,1.5-1
				c0.3-0.3,0.7-0.8,1.1-1.3c0-0.1,0.1-0.1,0.1-0.2c0-0.1,0-0.2-0.1-0.2c-0.1,0-0.1-0.1-0.2-0.1c-0.1,0-0.2,0-0.2,0.1
				c-0.4,0.5-0.7,0.9-1,1.2c-0.7,0.7-1,0.8-1.1,0.8c-0.1,0-0.1,0-0.1,0c0-0.1,0-0.1,0-0.2c0-0.2,0.1-0.5,0.2-0.9
				c0.2-0.5,0.3-0.8,0.3-1c0.2-0.6,0.3-0.8,0.3-0.8c0-0.1,0-0.2-0.2-0.2c-0.1,0-0.1-0.1-0.2-0.1c0,0,0,0,0,0c0,0,0,0,0,0
				c0,0,0.1,0,0.1,0c0.1,0,0.1,0,0.2,0c0,0,0.1,0.1,0.1,0.1c0,0,0.1,0,0.1,0c0.1,0,0.2-0.2,0.2-0.3c0-0.1,0-0.2,0-0.2
				c0-0.3-0.2-0.5-0.5-0.6C44.5,8.8,44.4,8.7,44.3,8.7L44.3,8.7z"/>
		</g>
		<g>
			<path class="st0" d="M48.3,9.3c0.2,0,0.3,0,0.4,0.1c0.1,0.1,0.2,0.2,0.2,0.3c0,0.2-0.1,0.3-0.3,0.5c0,0,0,0,0,0
				c0,0-0.1,0-0.1-0.1c-0.1-0.1-0.1-0.1-0.1-0.1c0,0,0,0,0,0c0.1-0.1,0.1-0.2,0.1-0.2c0-0.1-0.1-0.1-0.1-0.1c-0.1,0-0.2,0.1-0.4,0.2
				c-0.2,0.2-0.4,0.4-0.5,0.7c-0.2,0.4-0.4,0.8-0.5,1c-0.1,0.4-0.2,0.7-0.2,1c0,0.2,0,0.4,0.1,0.5c0.1,0.1,0.2,0.1,0.3,0.1
				c0.2,0,0.5-0.1,0.8-0.3c0.5-0.3,1-0.8,1.7-1.6c0,0,0.1-0.1,0.1-0.1c0,0,0.1,0,0.1,0c0,0,0.1,0.1,0.1,0.1c0,0.1-0.2,0.3-0.5,0.6
				c-0.5,0.5-0.9,0.9-1.3,1.1c-0.4,0.2-0.7,0.3-1,0.3c-0.2,0-0.4-0.1-0.6-0.2c-0.3-0.2-0.4-0.5-0.5-0.9c0-0.1,0-0.1,0-0.2
				c0-0.6,0.3-1.3,0.8-2c0.2-0.3,0.5-0.6,0.8-0.7C48,9.3,48.2,9.3,48.3,9.3 M48.3,9.1c-0.2,0-0.4,0.1-0.7,0.2
				c-0.3,0.2-0.6,0.5-0.8,0.8c-0.5,0.8-0.8,1.5-0.8,2.1c0,0.1,0,0.1,0,0.2c0,0.5,0.2,0.8,0.6,1c0.2,0.1,0.4,0.2,0.6,0.2
				c0.3,0,0.7-0.1,1.1-0.4c0.4-0.2,0.8-0.6,1.3-1.1c0.5-0.5,0.5-0.6,0.5-0.7c0-0.1,0-0.2-0.1-0.2c-0.1,0-0.1-0.1-0.2-0.1
				c-0.1,0-0.2,0-0.2,0.1C49,12,48.4,12.5,48,12.8C47.7,13,47.4,13,47.3,13c-0.1,0-0.2-0.1-0.2-0.1c-0.1-0.1-0.1-0.2-0.1-0.4
				c0-0.3,0.1-0.6,0.2-0.9c0.1-0.3,0.3-0.6,0.5-1c0.2-0.3,0.3-0.5,0.5-0.7c0.1-0.1,0.2-0.2,0.3-0.2c0,0,0,0.1-0.1,0.1
				c0,0-0.1,0.1-0.1,0.1c0,0.1,0,0.2,0.1,0.2c0.1,0.1,0.1,0.1,0.2,0.1c0.1,0,0.1,0,0.1-0.1c0.2-0.2,0.3-0.4,0.3-0.6
				c0-0.2-0.1-0.3-0.2-0.4C48.7,9.2,48.5,9.1,48.3,9.1L48.3,9.1z"/>
		</g>
	</g>
	<g>
		<path class="st0" d="M21,13.6c0.4-0.1,0.8-0.1,1.3-0.1c0.9,0,1.5,0.2,2,0.6c0.4,0.4,0.7,1,0.7,1.7c0,0.8-0.2,1.4-0.7,1.9
			c-0.5,0.5-1.2,0.7-2.2,0.7c-0.4,0-0.8,0-1.1-0.1V13.6z M21.6,17.9c0.2,0,0.4,0,0.6,0c1.3,0,2.1-0.8,2.1-2.1c0-1.1-0.6-1.9-2-1.9
			c-0.3,0-0.6,0-0.7,0.1V17.9z"/>
		<path class="st0" d="M26.2,16.8c0,0.9,0.6,1.2,1.2,1.2c0.5,0,0.7-0.1,1-0.2l0.1,0.5c-0.2,0.1-0.6,0.2-1.2,0.2
			c-1.1,0-1.7-0.7-1.7-1.8s0.6-1.9,1.6-1.9c1.1,0,1.4,1,1.4,1.6c0,0.1,0,0.2,0,0.3H26.2z M28,16.3c0-0.4-0.2-1-0.9-1
			c-0.6,0-0.9,0.6-1,1H28z"/>
		<path class="st0" d="M29.3,17.8c0.2,0.1,0.5,0.3,0.8,0.3c0.5,0,0.7-0.2,0.7-0.5c0-0.3-0.2-0.5-0.7-0.6c-0.6-0.2-0.9-0.6-0.9-1
			c0-0.6,0.5-1,1.2-1c0.4,0,0.7,0.1,0.9,0.2l-0.2,0.5c-0.1-0.1-0.4-0.2-0.7-0.2c-0.4,0-0.6,0.2-0.6,0.5c0,0.3,0.2,0.4,0.7,0.6
			c0.6,0.2,0.9,0.5,0.9,1.1c0,0.6-0.5,1-1.3,1c-0.4,0-0.7-0.1-1-0.2L29.3,17.8z"/>
		<path class="st0" d="M33,13.9c0,0.2-0.2,0.4-0.4,0.4c-0.2,0-0.4-0.2-0.4-0.4c0-0.2,0.2-0.4,0.4-0.4C32.8,13.5,33,13.7,33,13.9z
			 M32.3,18.4v-3.5h0.6v3.5H32.3z"/>
		<path class="st0" d="M37,14.9c0,0.3,0,0.5,0,1v2c0,0.8-0.2,1.3-0.5,1.6c-0.3,0.3-0.8,0.4-1.3,0.4c-0.4,0-0.9-0.1-1.2-0.3l0.2-0.5
			c0.2,0.1,0.6,0.3,1,0.3c0.6,0,1.1-0.3,1.1-1.2v-0.4h0c-0.2,0.3-0.6,0.6-1.1,0.6c-0.9,0-1.5-0.7-1.5-1.7c0-1.2,0.8-1.9,1.6-1.9
			c0.6,0,0.9,0.3,1.1,0.6h0l0-0.5H37z M36.3,16.3c0-0.1,0-0.2,0-0.3c-0.1-0.4-0.4-0.7-0.9-0.7c-0.6,0-1,0.5-1,1.3
			c0,0.7,0.3,1.3,1,1.3c0.4,0,0.7-0.2,0.9-0.6c0-0.1,0.1-0.2,0.1-0.3V16.3z"/>
		<path class="st0" d="M38,15.9c0-0.4,0-0.7,0-0.9h0.6l0,0.6h0c0.2-0.3,0.6-0.7,1.2-0.7c0.5,0,1.2,0.3,1.2,1.5v2.1h-0.6v-2
			c0-0.6-0.2-1-0.8-1c-0.4,0-0.7,0.3-0.9,0.7c0,0.1,0,0.2,0,0.3v2.1H38V15.9z"/>
		<path class="st0" d="M42.3,16.8c0,0.9,0.6,1.2,1.2,1.2c0.5,0,0.7-0.1,1-0.2l0.1,0.5c-0.2,0.1-0.6,0.2-1.2,0.2
			c-1.1,0-1.7-0.7-1.7-1.8s0.6-1.9,1.6-1.9c1.1,0,1.4,1,1.4,1.6c0,0.1,0,0.2,0,0.3H42.3z M44.2,16.3c0-0.4-0.2-1-0.9-1
			c-0.6,0-0.9,0.6-1,1H44.2z"/>
		<path class="st0" d="M45.6,16c0-0.4,0-0.8,0-1.1h0.6l0,0.7h0c0.2-0.5,0.5-0.8,1-0.8c0.1,0,0.1,0,0.2,0v0.6c-0.1,0-0.1,0-0.2,0
			c-0.4,0-0.8,0.3-0.9,0.8c0,0.1,0,0.2,0,0.3v1.9h-0.6V16z"/>
	</g>
</g>
<g>
	<path class="st0" d="M5.1,22.2H2c-1.1,0-2-0.9-2-2v0c0-1.1,0.9-2,2-2l3.2,0c3.9,0,7.2-3,7.4-6.8c0.2-4.1-3.1-7.5-7.2-7.5H2
		c-1.1,0-2-0.9-2-2v0c0-1.1,0.9-2,2-2h3.4c6.3,0,11.3,5.2,11.1,11.5C16.2,17.5,11.1,22.2,5.1,22.2z"/>
	<circle class="st0" cx="5.5" cy="11.1" r="3.2"/>
</g>
</svg>
