<?xml version="1.0" encoding="utf-8"?>
<!-- Generator: Adobe Illustrator 27.2.0, SVG Export Plug-In . SVG Version: 6.00 Build 0)  -->
<svg version="1.1" id="Layer_1" xmlns="http://www.w3.org/2000/svg" xmlns:xlink="http://www.w3.org/1999/xlink" x="0px" y="0px"
	 viewBox="0 0 50 22.13" style="enable-background:new 0 0 50 22.13;" xml:space="preserve">
<style type="text/css">
	.st0{fill:#374EA2;}
	.st1{fill:#939598;}
</style>
<g>
	<g>
		<path class="st0" d="M20.71,3.68c0.41-0.07,0.92-0.1,1.47-0.1c0.95,0,1.6,0.2,2.07,0.59c0.49,0.4,0.79,1,0.79,1.86
			c0,0.9-0.31,1.58-0.79,2.01c-0.5,0.46-1.31,0.69-2.29,0.69c-0.54,0-0.95-0.03-1.25-0.07V3.68z M21.63,7.97
			c0.13,0.02,0.32,0.02,0.51,0.02c1.2,0.01,1.92-0.65,1.92-1.94c0.01-1.12-0.64-1.76-1.8-1.76c-0.29,0-0.5,0.02-0.63,0.05V7.97z"/>
		<path class="st0" d="M26.6,7.1c0.02,0.66,0.54,0.95,1.13,0.95c0.43,0,0.74-0.06,1.01-0.17l0.14,0.64
			c-0.32,0.13-0.75,0.23-1.28,0.23c-1.19,0-1.89-0.74-1.89-1.86c0-1.01,0.62-1.97,1.79-1.97c1.19,0,1.58,0.98,1.58,1.78
			c0,0.17-0.01,0.31-0.03,0.39H26.6z M28.21,6.46c0.01-0.34-0.14-0.89-0.76-0.89c-0.57,0-0.81,0.52-0.85,0.89H28.21z"/>
		<path class="st0" d="M29.97,3.34h0.93v5.34h-0.93V3.34z"/>
		<path class="st0" d="M31.99,7.83c0.21,0.13,0.61,0.26,0.94,0.26c0.41,0,0.59-0.17,0.59-0.41c0-0.25-0.15-0.38-0.6-0.53
			C32.2,6.9,31.9,6.51,31.91,6.08c0-0.65,0.53-1.15,1.38-1.15c0.41,0,0.76,0.1,0.97,0.22L34.08,5.8c-0.16-0.09-0.45-0.21-0.77-0.21
			c-0.33,0-0.51,0.16-0.51,0.38c0,0.23,0.17,0.35,0.64,0.51c0.66,0.24,0.97,0.58,0.98,1.12c0,0.66-0.52,1.15-1.49,1.15
			c-0.44,0-0.84-0.11-1.11-0.26L31.99,7.83z"/>
		<path class="st0" d="M35.31,3.34h0.93v2.18h0.01c0.11-0.17,0.27-0.32,0.46-0.42c0.18-0.11,0.4-0.17,0.63-0.17
			c0.62,0,1.28,0.41,1.28,1.59v2.16H37.7V6.62c0-0.53-0.2-0.93-0.71-0.93c-0.36,0-0.62,0.24-0.71,0.52
			c-0.03,0.08-0.04,0.17-0.04,0.28v2.19h-0.93V3.34z"/>
		<path class="st0" d="M42.6,7.8c0,0.33,0.02,0.65,0.05,0.88h-0.83l-0.06-0.41h-0.02c-0.23,0.29-0.61,0.49-1.08,0.49
			c-0.74,0-1.15-0.53-1.15-1.09c0-0.92,0.82-1.39,2.17-1.38V6.22c0-0.24-0.1-0.64-0.74-0.64c-0.36,0-0.74,0.11-0.98,0.27l-0.18-0.6
			c0.27-0.17,0.74-0.32,1.32-0.32c1.17,0,1.51,0.74,1.51,1.54V7.8z M41.69,6.89c-0.65-0.01-1.28,0.13-1.28,0.68
			c0,0.36,0.23,0.53,0.53,0.53c0.37,0,0.64-0.24,0.72-0.5c0.02-0.07,0.03-0.14,0.03-0.2V6.89z"/>
		<path class="st0" d="M47.09,3.34v4.31c0,0.38,0.01,0.78,0.03,1.03h-0.83L46.25,8.1h-0.01c-0.22,0.41-0.66,0.66-1.19,0.66
			c-0.87,0-1.56-0.74-1.56-1.87c-0.01-1.22,0.76-1.95,1.64-1.95c0.5,0,0.86,0.21,1.03,0.48h0.01V3.34H47.09z M46.16,6.54
			c0-0.08-0.01-0.17-0.02-0.24c-0.08-0.36-0.38-0.65-0.8-0.65c-0.59,0-0.92,0.53-0.92,1.21c0,0.67,0.33,1.16,0.92,1.16
			c0.38,0,0.71-0.26,0.8-0.65c0.02-0.08,0.03-0.17,0.03-0.27V6.54z"/>
	</g>
	<g>
		<path class="st1" d="M21.74,15.19c-0.19,0-0.39-0.04-0.58-0.11c-0.06-0.03-0.09-0.07-0.1-0.14c0-0.19,0.06-0.33,0.17-0.43
			c0.04-0.04,0.08-0.06,0.13-0.06c0.01,0,0.03,0,0.04,0.01c0.12,0.04,0.23,0.07,0.34,0.07c0.31,0,0.6-0.15,0.87-0.46
			c0.49-0.56,0.93-1.53,1.33-2.9c0.28-0.99,0.52-2.06,0.71-3.22c0.06-0.37,0.13-0.86,0.21-1.46c-0.34,0.73-0.78,1.58-1.33,2.55
			c-0.54,0.96-1.07,1.78-1.59,2.47c-0.83,1.09-1.5,1.64-2.01,1.64c-0.02,0-0.04,0-0.06,0c-0.35-0.03-0.6-0.26-0.75-0.67
			c-0.12-0.33-0.18-0.74-0.18-1.23c0-0.94,0.28-2.05,0.83-3.33c0.34-0.79,0.77-1.53,1.29-2.23c0.27-0.36,0.56-0.68,0.88-0.97
			c0.82-0.75,1.69-1.12,2.6-1.12c0.5,0,0.93,0.12,1.28,0.37c0.25,0.18,0.45,0.45,0.6,0.8c0.11,0.27,0.16,0.58,0.16,0.94
			c0,0.31-0.04,0.65-0.12,0.99c-0.01,0.04-0.05,0.06-0.1,0.06c-0.06,0-0.13-0.01-0.19-0.04c-0.13-0.05-0.2-0.1-0.2-0.14
			c0.11-0.48,0.17-0.86,0.17-1.14c0-0.2-0.02-0.39-0.07-0.58c-0.07-0.25-0.21-0.46-0.42-0.64c-0.23-0.17-0.49-0.26-0.78-0.26
			c-0.55,0-1.08,0.17-1.59,0.5c-0.59,0.39-1.13,0.9-1.61,1.55c-0.5,0.68-0.92,1.4-1.26,2.16c-0.54,1.22-0.81,2.28-0.81,3.17
			c0,0.13,0.01,0.26,0.02,0.37c0.08,0.7,0.27,1.04,0.59,1.04c0.49,0,1.26-0.85,2.31-2.56c0.55-0.9,1.09-1.89,1.62-2.98
			c0.39-0.78,0.64-1.32,0.74-1.61c0-0.02,0.03-0.09,0.09-0.23c0.02-0.04,0.06-0.06,0.11-0.06c0.03,0,0.05,0,0.08,0.01
			c0.09,0.02,0.14,0.06,0.14,0.13c-0.04,0.82-0.12,1.67-0.22,2.53c-0.14,1.13-0.33,2.21-0.59,3.24c-0.36,1.42-0.81,2.48-1.34,3.17
			C22.71,14.93,22.25,15.19,21.74,15.19z"/>
		<path class="st1" d="M26.22,14.19c-0.09,0-0.15-0.03-0.17-0.08l-0.02-0.13c-0.08-0.42-0.11-1.09-0.11-2.03
			c0-0.49,0.01-0.85,0.02-1.1c0.01-0.07,0.05-0.12,0.12-0.15c0.06-0.03,0.13-0.04,0.2-0.04c0.11,0,0.19,0.02,0.26,0.06
			c0.06,0.04,0.1,0.1,0.1,0.17c-0.01,0.17-0.04,0.41-0.08,0.72c-0.08,0.63-0.12,0.99-0.12,1.08c0.2-0.73,0.39-1.33,0.59-1.81
			c0.09-0.22,0.23-0.42,0.42-0.6c0.15-0.15,0.33-0.23,0.52-0.23c0.18,0,0.33,0.08,0.46,0.24c0.1,0.12,0.17,0.3,0.21,0.53
			c0.02,0.15,0.06,0.28,0.1,0.39c0.07,0.18,0.18,0.27,0.33,0.27c0.15,0,0.33-0.08,0.55-0.23c0.03-0.02,0.06-0.03,0.09-0.03
			c0.06,0,0.11,0.03,0.14,0.08c0.02,0.03,0.03,0.06,0.03,0.1c0,0.06-0.02,0.1-0.07,0.14c-0.26,0.18-0.5,0.26-0.72,0.26
			c-0.08,0-0.15-0.01-0.22-0.04c-0.21-0.08-0.36-0.2-0.48-0.37c-0.09-0.13-0.17-0.28-0.24-0.43L28,10.75
			c-0.09-0.18-0.18-0.26-0.27-0.26c-0.13,0-0.27,0.18-0.42,0.54c-0.15,0.37-0.29,0.77-0.42,1.19c-0.17,0.55-0.28,1-0.36,1.34
			c-0.08,0.33-0.14,0.52-0.17,0.58C26.35,14.17,26.3,14.19,26.22,14.19z"/>
		<path class="st1" d="M30.19,13.9h-0.04c-0.19,0-0.35-0.09-0.5-0.27c-0.14-0.21-0.21-0.48-0.21-0.84c0-0.35,0.06-0.7,0.19-1.06
			c0.11-0.31,0.26-0.58,0.45-0.81c0.23-0.26,0.49-0.4,0.76-0.4c0.21,0,0.43,0.08,0.64,0.24c0.12,0.09,0.24,0.21,0.36,0.36
			c0.02,0.03,0.03,0.07,0.03,0.1c0,0.05-0.02,0.09-0.06,0.12c-0.04,0.03-0.07,0.04-0.11,0.04c-0.05,0-0.1-0.02-0.13-0.06
			c-0.23-0.29-0.44-0.43-0.62-0.43c-0.17,0-0.31,0.1-0.44,0.3c-0.12,0.19-0.21,0.42-0.28,0.69c-0.09,0.37-0.14,0.72-0.14,1.06
			c0,0.39,0.07,0.59,0.21,0.59c0.07,0,0.15-0.03,0.23-0.08c0.14-0.1,0.22-0.16,0.23-0.18c0.21-0.17,0.45-0.42,0.71-0.76
			c0.2-0.27,0.36-0.54,0.48-0.81c0.22-0.5,0.33-0.99,0.33-1.49c0-0.1-0.01-0.2-0.02-0.3c-0.04-0.44-0.16-0.78-0.34-1.03
			c-0.12-0.15-0.24-0.22-0.38-0.22c-0.04,0-0.09,0.01-0.13,0.03c-0.22,0.09-0.4,0.37-0.54,0.84c-0.04,0.14-0.07,0.25-0.08,0.32
			c-0.01,0.04-0.05,0.06-0.13,0.06c-0.13-0.01-0.2-0.04-0.2-0.1c0.02-0.12,0.05-0.24,0.09-0.35c0.09-0.25,0.2-0.45,0.33-0.61
			c0.23-0.28,0.5-0.42,0.79-0.42c0.17,0,0.34,0.06,0.51,0.18c0.4,0.31,0.6,0.92,0.6,1.83c0,0.81-0.17,1.83-0.5,3.07
			c-0.02,0.07-0.09,0.11-0.21,0.11c-0.05,0-0.1-0.01-0.15-0.02c-0.09-0.02-0.16-0.06-0.22-0.1c-0.05-0.04-0.08-0.08-0.08-0.13
			c0-0.03,0.05-0.19,0.15-0.47c0.07-0.2,0.12-0.36,0.16-0.5c-0.02,0.02-0.04,0.06-0.09,0.13c-0.04,0.07-0.08,0.12-0.11,0.16
			c-0.29,0.38-0.54,0.66-0.76,0.84c-0.13,0.11-0.27,0.21-0.44,0.28C30.43,13.86,30.31,13.9,30.19,13.9z"/>
		<path class="st1" d="M33.06,17.67c-0.09,0-0.17-0.02-0.24-0.06c-0.06-0.04-0.1-0.09-0.1-0.16c0.01-0.53,0.04-1.14,0.1-1.82
			c0.09-1.03,0.25-2.05,0.47-3.06c0.28-1.25,0.59-2.18,0.94-2.78c0.02-0.03,0.05-0.05,0.09-0.05c0.04,0,0.08,0.01,0.12,0.03
			c0.07,0.04,0.1,0.08,0.1,0.13c0,0.02-0.01,0.04-0.02,0.05c-0.17,0.3-0.34,0.76-0.5,1.36c0.73-1.32,1.44-1.98,2.14-1.98
			c0.21,0,0.39,0.07,0.54,0.22c0.24,0.25,0.36,0.63,0.36,1.14c0,0.27-0.03,0.55-0.1,0.83c0.25-0.05,0.51-0.1,0.76-0.13
			c0.3-0.05,0.49-0.07,0.56-0.07c0.04,0,0.08,0.01,0.12,0.04c0.04,0.03,0.06,0.07,0.06,0.12c0,0.04-0.01,0.08-0.04,0.11
			c-0.03,0.03-0.06,0.05-0.11,0.06c-0.49,0.05-0.97,0.13-1.44,0.23c-0.29,0.94-0.67,1.63-1.14,2.06c-0.28,0.24-0.56,0.36-0.86,0.36
			c-0.06,0-0.12-0.01-0.18-0.02c-0.29-0.06-0.48-0.22-0.56-0.49c-0.02-0.06-0.03-0.12-0.03-0.18c0-0.16,0.06-0.35,0.17-0.55
			c0.38-0.64,1.02-1.09,1.93-1.35c0.13-0.46,0.2-0.85,0.2-1.16c0-0.08,0-0.15-0.01-0.22c-0.01-0.15-0.06-0.29-0.13-0.42
			c-0.07-0.11-0.17-0.16-0.31-0.16c-0.19,0-0.42,0.14-0.7,0.41c-0.43,0.42-0.85,1.1-1.28,2.03c-0.09,0.19-0.15,0.35-0.19,0.5
			c-0.06,0.24-0.11,0.53-0.14,0.88c-0.14,1.3-0.23,2.59-0.24,3.88c-0.01,0.07-0.04,0.13-0.11,0.16
			C33.22,17.66,33.15,17.67,33.06,17.67z M34.73,13.92c0.18,0,0.38-0.12,0.58-0.36c0.29-0.35,0.55-0.83,0.77-1.45
			c-0.21,0.07-0.42,0.16-0.61,0.27c-0.4,0.23-0.7,0.51-0.9,0.85c-0.08,0.15-0.13,0.28-0.13,0.39c0,0.03,0,0.05,0.01,0.08
			C34.48,13.85,34.57,13.92,34.73,13.92z"/>
		<path class="st1" d="M41,13.48c-0.37,0-0.55-0.29-0.55-0.88c0-0.32,0.07-0.81,0.21-1.46c0.09-0.42,0.14-0.72,0.14-0.89
			c0-0.17-0.03-0.25-0.1-0.25c-0.13,0-0.41,0.3-0.82,0.9c-0.2,0.3-0.31,0.46-0.32,0.48c-0.3,0.45-0.56,0.94-0.77,1.47
			c-0.05,0.1-0.11,0.15-0.19,0.15c-0.1,0-0.17-0.06-0.2-0.17c-0.03-0.15-0.05-0.35-0.05-0.62c0-0.68,0.1-1.5,0.29-2.45
			c0.17-0.83,0.4-1.7,0.7-2.62c0.24-0.74,0.48-1.41,0.73-2.01c0.03-0.05,0.08-0.07,0.16-0.07c0.07,0,0.15,0.02,0.24,0.06
			c0.15,0.07,0.23,0.14,0.23,0.22c0,0.02-0.09,0.26-0.28,0.72c-0.85,2.09-1.39,3.78-1.61,5.07c-0.06,0.37-0.1,0.74-0.11,1.12
			c0.21-0.42,0.4-0.76,0.59-1.04c0.31-0.5,0.57-0.87,0.79-1.11c0.28-0.31,0.56-0.47,0.84-0.47c0.19,0,0.33,0.07,0.44,0.21
			c0.08,0.11,0.12,0.25,0.12,0.44c0,0.36-0.09,0.95-0.26,1.78c-0.08,0.34-0.13,0.58-0.13,0.74c0,0.13,0.03,0.21,0.09,0.26
			c0.02,0.01,0.04,0.02,0.07,0.02c0.24,0,0.86-0.55,1.85-1.66c0.04-0.04,0.08-0.06,0.13-0.06c0.04,0,0.08,0.02,0.12,0.05
			c0.03,0.03,0.05,0.07,0.05,0.12c0,0.04-0.01,0.08-0.04,0.11c-0.74,0.82-1.3,1.36-1.66,1.62C41.45,13.4,41.22,13.48,41,13.48z"/>
		<path class="st1" d="M43.61,13.73c-0.4,0-0.6-0.32-0.6-0.96c0-0.24,0.03-0.51,0.08-0.82c0.08-0.38,0.15-0.73,0.24-1.06
			c0.08-0.31,0.13-0.55,0.16-0.72c0.02-0.08,0.11-0.11,0.27-0.11c0.12,0,0.23,0.03,0.32,0.08c0.05,0.03,0.08,0.07,0.08,0.11
			c0,0.09-0.08,0.35-0.24,0.79c-0.06,0.15-0.18,0.49-0.35,0.99c-0.13,0.42-0.2,0.74-0.2,0.96c0,0.11,0.02,0.21,0.05,0.28
			c0.04,0.09,0.11,0.13,0.22,0.13c0.25-0.01,0.64-0.29,1.19-0.85c0.34-0.35,0.68-0.76,1.05-1.21c0.04-0.04,0.08-0.06,0.13-0.06
			c0.04,0,0.07,0.01,0.1,0.03c0.04,0.04,0.06,0.08,0.06,0.13c0,0.04-0.01,0.07-0.04,0.1c-0.41,0.51-0.77,0.92-1.09,1.25
			C44.45,13.41,43.97,13.72,43.61,13.73z M43.81,9.87c-0.01,0-0.01,0-0.02-0.01c-0.01-0.01-0.02-0.01-0.03-0.02
			c-0.14-0.11-0.21-0.25-0.21-0.41c0-0.15,0.04-0.27,0.12-0.36c0.1-0.14,0.22-0.21,0.35-0.21c0.1,0,0.19,0.04,0.27,0.13
			c0.26,0.06,0.39,0.22,0.39,0.46c0,0.06-0.01,0.13-0.03,0.2c-0.04,0.13-0.07,0.19-0.1,0.19c-0.02,0-0.04-0.01-0.07-0.02
			c-0.04-0.02-0.06-0.04-0.06-0.06l0-0.01c0.06-0.11,0.08-0.21,0.08-0.3c0-0.04-0.01-0.08-0.02-0.11c-0.03-0.06-0.06-0.1-0.1-0.12
			c0.01,0.03,0.02,0.08,0.02,0.15c0,0.15-0.05,0.27-0.15,0.34c-0.04,0.03-0.07,0.04-0.11,0.04c-0.11,0-0.2-0.07-0.25-0.21
			c-0.02-0.05-0.02-0.1-0.03-0.15c0-0.15,0.06-0.27,0.18-0.34l-0.03,0c-0.08,0-0.15,0.05-0.22,0.14c-0.05,0.08-0.08,0.15-0.08,0.22
			c0,0.12,0.06,0.22,0.18,0.29c0.01,0.01,0.01,0.01,0.01,0.02c0,0.04-0.02,0.08-0.05,0.13C43.84,9.85,43.82,9.87,43.81,9.87z
			 M44.14,9.56c0.03,0,0.05-0.02,0.06-0.05c0.03-0.05,0.04-0.11,0.04-0.16c0-0.08-0.01-0.14-0.04-0.19
			c-0.04,0.01-0.07,0.02-0.1,0.05c-0.04,0.04-0.06,0.1-0.06,0.16c0,0.03,0.01,0.07,0.02,0.1C44.07,9.53,44.1,9.56,44.14,9.56z"/>
		<path class="st1" d="M46.99,13.51c-0.21,0-0.4-0.05-0.56-0.16c-0.28-0.2-0.45-0.51-0.49-0.94c-0.01-0.06-0.01-0.12-0.01-0.18
			c0-0.62,0.26-1.3,0.77-2.05c0.22-0.32,0.49-0.56,0.79-0.74c0.22-0.12,0.42-0.18,0.61-0.18c0.16,0,0.3,0.04,0.41,0.11
			c0.12,0.08,0.18,0.19,0.18,0.33c0,0.16-0.08,0.33-0.25,0.5c-0.01,0.01-0.02,0.02-0.04,0.02c-0.04,0-0.08-0.03-0.14-0.08
			c-0.05-0.05-0.08-0.1-0.08-0.14c0-0.02,0.01-0.03,0.02-0.04c0.1-0.1,0.14-0.19,0.14-0.25c-0.01-0.07-0.06-0.11-0.14-0.11
			c-0.11,0-0.25,0.07-0.4,0.2c-0.19,0.19-0.37,0.42-0.53,0.7c-0.25,0.42-0.43,0.76-0.53,1.04c-0.13,0.35-0.19,0.67-0.19,0.97
			c0,0.22,0.05,0.39,0.14,0.52c0.08,0.1,0.19,0.15,0.34,0.15c0.21,0,0.47-0.1,0.78-0.29c0.47-0.29,1.02-0.81,1.66-1.55
			c0.03-0.04,0.08-0.06,0.13-0.06c0.04,0,0.07,0.01,0.1,0.04c0.04,0.04,0.06,0.08,0.06,0.13c0,0.06-0.16,0.27-0.49,0.62
			c-0.47,0.5-0.9,0.88-1.28,1.12C47.63,13.4,47.3,13.51,46.99,13.51z"/>
	</g>
	<g>
		<path class="st0" d="M20.74,13.61c0.38-0.06,0.84-0.1,1.34-0.1c0.9,0,1.55,0.21,1.97,0.61c0.43,0.4,0.69,0.96,0.69,1.75
			c0,0.79-0.25,1.44-0.7,1.89c-0.46,0.45-1.21,0.7-2.15,0.7c-0.45,0-0.82-0.02-1.14-0.06V13.61z M21.37,17.91
			c0.16,0.03,0.39,0.04,0.64,0.04c1.34,0,2.07-0.75,2.07-2.07c0.01-1.15-0.64-1.88-1.97-1.88c-0.32,0-0.57,0.03-0.74,0.06V17.91z"/>
		<path class="st0" d="M25.92,16.78c0.01,0.86,0.56,1.21,1.2,1.21c0.45,0,0.73-0.08,0.97-0.18l0.11,0.45
			c-0.22,0.1-0.61,0.22-1.16,0.22c-1.08,0-1.72-0.71-1.72-1.76s0.62-1.89,1.64-1.89c1.14,0,1.44,1,1.44,1.65
			c0,0.13-0.01,0.23-0.02,0.3H25.92z M27.78,16.32c0.01-0.4-0.17-1.03-0.88-1.03c-0.64,0-0.92,0.59-0.98,1.03H27.78z"/>
		<path class="st0" d="M29.09,17.76c0.19,0.12,0.52,0.25,0.84,0.25c0.46,0,0.68-0.23,0.68-0.52c0-0.3-0.18-0.47-0.65-0.64
			c-0.63-0.22-0.92-0.57-0.92-0.99c0-0.56,0.46-1.03,1.21-1.03c0.35,0,0.66,0.1,0.86,0.22l-0.16,0.46c-0.14-0.09-0.39-0.2-0.72-0.2
			c-0.38,0-0.59,0.22-0.59,0.48c0,0.29,0.21,0.42,0.66,0.59c0.61,0.23,0.92,0.53,0.92,1.05c0,0.61-0.48,1.05-1.31,1.05
			c-0.38,0-0.74-0.09-0.98-0.24L29.09,17.76z"/>
		<path class="st0" d="M32.75,13.93c0.01,0.22-0.15,0.39-0.4,0.39c-0.22,0-0.38-0.17-0.38-0.39c0-0.22,0.17-0.4,0.4-0.4
			C32.6,13.54,32.75,13.71,32.75,13.93z M32.04,18.41v-3.5h0.64v3.5H32.04z"/>
		<path class="st0" d="M36.75,14.92c-0.01,0.25-0.03,0.53-0.03,0.96v2.03c0,0.8-0.16,1.29-0.5,1.6c-0.34,0.32-0.83,0.42-1.27,0.42
			c-0.42,0-0.88-0.1-1.16-0.29l0.16-0.48c0.23,0.14,0.59,0.27,1.03,0.27c0.65,0,1.13-0.34,1.13-1.22v-0.39h-0.01
			c-0.2,0.32-0.57,0.59-1.11,0.59c-0.87,0-1.49-0.74-1.49-1.7c0-1.18,0.77-1.86,1.57-1.86c0.61,0,0.94,0.32,1.09,0.61h0.01
			l0.03-0.53H36.75z M36.09,16.3c0-0.11-0.01-0.2-0.04-0.29c-0.12-0.37-0.43-0.67-0.89-0.67c-0.61,0-1.04,0.51-1.04,1.32
			c0,0.69,0.35,1.26,1.03,1.26c0.39,0,0.74-0.25,0.88-0.65c0.04-0.11,0.05-0.23,0.05-0.34V16.3z"/>
		<path class="st0" d="M37.73,15.86c0-0.36-0.01-0.66-0.03-0.95h0.56l0.04,0.58h0.01c0.17-0.33,0.58-0.66,1.16-0.66
			c0.48,0,1.24,0.29,1.24,1.49v2.09h-0.64V16.4c0-0.56-0.21-1.03-0.81-1.03c-0.42,0-0.74,0.3-0.85,0.65
			c-0.03,0.08-0.04,0.19-0.04,0.3v2.1h-0.64V15.86z"/>
		<path class="st0" d="M42.09,16.78c0.01,0.86,0.56,1.21,1.2,1.21c0.45,0,0.73-0.08,0.97-0.18l0.11,0.45
			c-0.22,0.1-0.61,0.22-1.16,0.22c-1.08,0-1.72-0.71-1.72-1.76s0.62-1.89,1.64-1.89c1.14,0,1.44,1,1.44,1.65
			c0,0.13-0.01,0.23-0.02,0.3H42.09z M43.96,16.32c0.01-0.4-0.17-1.03-0.88-1.03c-0.64,0-0.92,0.59-0.98,1.03H43.96z"/>
		<path class="st0" d="M45.36,16.01c0-0.41-0.01-0.77-0.03-1.09h0.56l0.02,0.69h0.03c0.16-0.47,0.54-0.77,0.97-0.77
			c0.07,0,0.12,0.01,0.18,0.02v0.6c-0.06-0.01-0.13-0.02-0.22-0.02c-0.45,0-0.77,0.34-0.85,0.82c-0.01,0.09-0.03,0.19-0.03,0.3v1.86
			h-0.63V16.01z"/>
	</g>
</g>
<g>
	<path class="st0" d="M4.85,22.16H1.72c-1.08,0-1.95-0.88-1.95-1.95v0c0-1.08,0.88-1.95,1.95-1.95h3.2c3.86,0,7.19-2.96,7.38-6.82
		c0.2-4.13-3.09-7.55-7.18-7.55H1.72C0.64,3.88-0.24,3-0.24,1.92v0c0-1.08,0.88-1.95,1.95-1.95h3.41c6.26,0,11.32,5.21,11.09,11.52
		C15.99,17.5,10.86,22.16,4.85,22.16z"/>
	<circle class="st0" cx="5.24" cy="11.06" r="3.16"/>
</g>
</svg>
